<svg width="65" height="64" viewBox="0 0 65 64" fill="none" xmlns="http://www.w3.org/2000/svg">
<g clip-path="url(#clip0_45_1055)">
<path d="M64.5 50.7888V51.215C64.3567 51.9925 63.925 52.5142 63.205 52.78C63.1987 52.7821 63.193 52.7858 63.1885 52.7906C63.1839 52.7954 63.1805 52.8012 63.1787 52.8076C63.1768 52.814 63.1766 52.8207 63.1779 52.8272C63.1792 52.8337 63.1821 52.8398 63.1862 52.845C63.5496 53.2942 63.9042 53.7508 64.25 54.215C64.3492 54.3492 64.4325 54.6054 64.5 54.9838V55.35C64.3833 56.0733 64.0404 56.5713 63.4712 56.8438C62.7021 57.2121 61.9592 57.0775 61.2425 56.44C61.1708 56.3758 61.11 56.2988 61.06 56.2088C61.0183 56.1346 60.9971 56.14 60.9963 56.225C60.9863 56.9542 60.6887 57.5088 60.1037 57.8888C59.1312 58.5188 57.865 58.075 57.4012 57.045C57.2971 56.8142 57.245 56.5208 57.245 56.165C57.2408 46.7325 57.2417 37.405 57.2475 28.1825C57.2475 28.1735 57.245 28.1646 57.2404 28.1568C57.2359 28.149 57.2293 28.1426 57.2214 28.1381C57.2136 28.1337 57.2047 28.1314 57.1956 28.1315C57.1866 28.1316 57.1778 28.1341 57.17 28.1388C48.8667 33.1371 40.4046 38.2296 31.7838 43.4163C31.1187 43.8163 30.415 43.8325 29.7313 43.4213C20.2821 37.7363 10.8337 32.0504 1.38625 26.3638C0.899583 26.0713 0.604167 25.6121 0.5 24.9863V24.55C0.6075 23.9292 0.892917 23.4796 1.35625 23.2013C10.8429 17.4913 20.3292 11.7808 29.815 6.07C30.4288 5.70125 31.1875 5.76625 31.7825 6.125C41.3233 11.875 50.7163 17.5279 59.9613 23.0838C60.6504 23.4988 60.995 24.0946 60.995 24.8713C60.9942 32.8871 60.9942 40.8971 60.995 48.9013C60.995 48.9471 61.0175 48.9721 61.0625 48.9763C61.4642 49.0163 61.865 49.0475 62.265 49.07C62.74 49.0983 63.1096 49.1692 63.3737 49.2825C63.9812 49.545 64.3567 50.0471 64.5 50.7888Z" fill="#E38929"/>
<path d="M29.1313 47.2425C30.493 47.6192 31.7263 47.5608 32.8313 47.0675C33.2855 46.865 33.7613 46.6138 34.2588 46.3138C38.7497 43.6071 43.6242 40.6696 48.8826 37.5013C48.8885 37.4977 48.8953 37.4958 48.9022 37.4957C48.9091 37.4956 48.9159 37.4974 48.9219 37.5008C48.9279 37.5043 48.9328 37.5093 48.9363 37.5153C48.9397 37.5213 48.9414 37.5281 48.9413 37.535C48.9322 38.8883 48.9334 40.3404 48.9451 41.8913C48.9534 42.9671 48.9251 43.7846 48.8601 44.3438C48.4301 48.0425 46.0363 51.1363 42.9613 53.17C37.4488 56.8113 30.2026 57.49 23.9338 55.67C18.6126 54.125 13.4026 50.2188 12.6326 44.4088C12.5667 43.9088 12.5384 43.1042 12.5476 41.995C12.5609 40.5242 12.563 39.0358 12.5538 37.53C12.5537 37.5231 12.5555 37.5163 12.5589 37.5103C12.5623 37.5043 12.5673 37.4993 12.5733 37.4958C12.5793 37.4924 12.5861 37.4906 12.593 37.4907C12.5999 37.4908 12.6067 37.4927 12.6126 37.4963C17.2967 40.3229 22.1459 43.2404 27.1601 46.2488C28.0842 46.8038 28.7413 47.135 29.1313 47.2425Z" fill="#E38929"/>
</g>
<defs>
<clipPath id="clip0_45_1055">
<rect width="64" height="64" fill="white" transform="translate(0.5)"/>
</clipPath>
</defs>
</svg>
