<svg width="65" height="64" viewBox="0 0 65 64" fill="none" xmlns="http://www.w3.org/2000/svg">
<g id="rotate 1">
<path id="Vector" d="M20.6587 7.84749C20.6937 7.78499 20.6767 7.76249 20.6075 7.77999C13.3787 9.61374 8.24749 15.7212 7.85124 23.1975C7.82749 23.655 7.88874 24.1662 7.73374 24.6C7.48874 25.285 7.0279 25.7254 6.35124 25.9212C5.41624 26.1925 4.37624 25.6837 4.00124 24.7825C3.8704 24.4683 3.8129 24.0921 3.82874 23.6537C3.91874 21.0862 4.35499 18.7967 5.13749 16.785C7.14165 11.6317 10.6162 7.82958 15.5612 5.37874C18.0662 4.13708 20.9008 3.45333 24.065 3.32749C24.585 3.30666 25.0233 3.38083 25.38 3.54999C26.1937 3.93499 26.6425 4.88249 26.44 5.75374C26.3767 6.02958 26.2337 6.34958 26.0112 6.71374C25.1529 8.12041 24.3042 9.53124 23.465 10.9462C23.0983 11.5654 22.575 11.9125 21.895 11.9875C20.4962 12.1425 19.425 10.8062 19.7675 9.50374C19.915 8.94374 20.3637 8.37249 20.6587 7.84749Z" fill="#E38929"/>
<path id="Vector_2" d="M35.2299 17.0187C38.2611 18.6775 41.3174 20.29 44.3424 21.9587C44.9824 22.3125 45.4036 23.1637 45.3999 23.93C45.3965 24.8725 44.9511 25.5837 44.0636 26.0637C40.8186 27.8196 37.5732 29.575 34.3274 31.33C33.5257 31.7633 32.714 31.9067 31.8924 31.76C31.4515 31.6808 30.904 31.4625 30.2499 31.105C27.169 29.42 24.0936 27.7583 21.0236 26.12C20.6336 25.9125 20.3299 25.6733 20.1124 25.4025C19.1749 24.24 19.5311 22.5662 20.8861 21.8362C24.1928 20.0529 27.4674 18.2896 30.7099 16.5462C31.5399 16.1004 32.3536 15.9562 33.1511 16.1137C33.5945 16.2012 34.2874 16.5029 35.2299 17.0187Z" fill="#E38929"/>
<path id="Vector_3" d="M19.9524 28.6463C22.8457 30.1054 25.7724 31.5692 28.7324 33.0375C29.3265 33.3317 29.7961 33.6388 30.1411 33.9588C31.0399 34.7888 31.3936 35.94 31.3861 37.1775C31.3686 39.9725 31.3682 42.7354 31.3849 45.4663C31.3874 45.8654 31.3295 46.21 31.2111 46.5C30.6836 47.7975 29.1899 48.2975 27.9399 47.6613C25.0324 46.1804 22.1153 44.7213 19.1886 43.2838C18.4961 42.9446 18.0095 42.635 17.7286 42.355C16.8061 41.435 16.4824 40.41 16.4911 39.0875C16.5086 36.5033 16.5078 33.8608 16.4886 31.16C16.4836 30.5567 16.5324 30.1213 16.6349 29.8538C17.1624 28.4675 18.6449 27.9863 19.9524 28.6463Z" fill="#E38929"/>
<path id="Vector_4" d="M43.9276 29.2C44.3651 28.9792 44.8046 28.7637 45.2463 28.5537C45.8251 28.28 46.4913 28.2813 47.0876 28.5338C48.0367 28.9354 48.5096 29.6975 48.5063 30.82C48.4971 33.5067 48.4988 36.2754 48.5113 39.1263C48.5138 39.6988 48.4542 40.1846 48.3326 40.5838C47.9876 41.7221 47.2501 42.5708 46.1201 43.13C43.2884 44.5317 40.3671 45.9938 37.3563 47.5163C36.8596 47.7671 36.4642 47.9054 36.1701 47.9313C34.7951 48.055 33.6188 47.0075 33.6238 45.6063C33.6313 42.8104 33.6288 40.0258 33.6163 37.2525C33.6101 35.8975 33.9088 34.885 34.8376 33.9562C35.1351 33.6587 35.6646 33.3225 36.4263 32.9475C38.848 31.7558 41.3484 30.5067 43.9276 29.2Z" fill="#E38929"/>
<path id="Vector_5" d="M44.365 56.1113C44.3175 56.1863 44.3366 56.2125 44.4225 56.19C48.085 55.2467 51.0929 53.3421 53.4462 50.4763C55.7037 47.7263 57 44.3063 57.165 40.7875C57.2037 39.9363 57.1112 39.2475 57.7912 38.5625C58.8537 37.4913 60.5687 37.9488 61.0762 39.31C61.1762 39.5792 61.2091 40.0688 61.175 40.7788C60.8012 48.6188 56.2212 55.4613 49.085 58.7838C46.675 59.9063 44.0341 60.5313 41.1625 60.6588C40.4633 60.6896 39.9504 60.6213 39.6237 60.4538C38.5237 59.8863 38.2075 58.5988 38.8375 57.5463C39.7233 56.0688 40.6208 54.5738 41.53 53.0613C42.0762 52.1525 43.0725 51.7388 44.0712 52.1363C45.1912 52.5813 45.64 53.9025 45.0625 54.9425C44.8475 55.3317 44.615 55.7213 44.365 56.1113Z" fill="#E38929"/>
</g>
</svg>
