<svg width="65" height="64" viewBox="0 0 65 64" fill="none" xmlns="http://www.w3.org/2000/svg">
<g id="gloves 1">
<path id="Vector" d="M43.2376 24.8975C43.9518 19.9033 44.6893 14.8179 45.4501 9.64125C45.5143 9.20625 45.6901 8.76667 45.9776 8.3225C46.2651 7.87833 46.7101 7.58333 47.3126 7.4375C48.9101 7.04875 50.4889 7.71375 50.9339 9.38375C51.023 9.71792 51.038 10.2433 50.9789 10.96C50.588 15.7008 50.2118 20.4379 49.8501 25.1712C49.8426 25.2596 49.8555 25.2629 49.8889 25.1812C51.1564 22.0512 52.4055 18.9212 53.6364 15.7912C53.9264 15.0546 54.1701 14.5658 54.3676 14.325C55.0801 13.4575 56.1601 13.16 57.2539 13.34C58.3651 13.5237 59.2376 13.9525 59.7314 15C60.0255 15.6233 60.0964 16.2987 59.9439 17.0262C58.8464 22.2721 57.7393 27.5154 56.6226 32.7562C56.5385 33.1504 56.4968 33.5412 56.4976 33.9287C56.4983 35.2341 56.4507 47.4223 56.4365 51.0106C56.4344 51.5613 55.9873 52 55.4366 52H32.1978C31.6553 52 31.2117 51.5675 31.1987 51.0251C31.1824 50.3505 31.1639 49.5491 31.1639 49.4062C31.1639 49.3578 31.147 49.3113 31.1164 49.275C28.4897 46.2108 25.9085 43.1975 23.3726 40.235C23.2335 40.0725 23.063 39.9333 22.8614 39.8175C21.3355 38.9383 19.7789 38.0375 18.1914 37.115C16.7039 36.2513 15.8626 34.6225 16.6314 32.9437C17.1114 31.8962 17.8376 31.1717 18.8101 30.77C19.2676 30.5812 19.7476 30.5725 20.2151 30.7625C23.401 32.0575 26.5868 33.35 29.7726 34.64C29.816 34.6575 29.8339 34.6433 29.8264 34.5975C28.6964 27.93 27.5147 20.9371 26.2814 13.6187C26.188 13.0679 26.173 12.64 26.2364 12.335C26.5139 10.9837 27.6801 10.1112 29.0364 10.0312C29.7114 9.99042 30.286 10.15 30.7601 10.51C31.6226 11.165 31.7639 11.8612 32.0626 13.0462C33.0801 17.0696 34.0901 21.0679 35.0926 25.0412C35.1426 25.2396 35.1676 25.2367 35.1676 25.0325C35.1593 19.0475 35.1601 13.3692 35.1701 7.9975C35.1726 6.58 36.1614 5.17 37.5714 4.81375C39.053 4.43958 40.2685 4.78792 41.2176 5.85875C41.8939 6.6225 42.0651 7.4425 42.1314 8.52625C42.4389 13.5012 42.7747 18.9571 43.1389 24.8937C43.1589 25.2196 43.1918 25.2208 43.2376 24.8975Z" fill="#E38929"/>
<path id="Vector_2" d="M23.1627 23.7575C23.1702 18.8233 23.1672 13.9983 23.1539 9.2825C23.1514 8.18167 23.2072 7.46667 23.3214 7.1375C23.8427 5.635 25.2089 4.535 26.8414 4.7375C28.3547 4.92417 29.3897 5.75542 29.9464 7.23125C29.9722 7.30125 29.9481 7.33625 29.8739 7.33625C29.0302 7.345 28.1489 7.31 27.3414 7.56875C25.1552 8.2675 23.6914 10.1463 23.5264 12.4213C23.4914 12.9029 23.5643 13.6683 23.7452 14.7175C24.6385 19.8908 25.5064 25.0096 26.3489 30.0737C26.3499 30.0795 26.3494 30.0854 26.3475 30.0908C26.3455 30.0963 26.3422 30.1012 26.3379 30.1049C26.3335 30.1086 26.3283 30.111 26.3228 30.1119C26.3172 30.1128 26.3116 30.1122 26.3064 30.11C24.4647 29.4283 22.6018 28.7513 20.7177 28.0788C19.5952 27.6788 18.1402 28.0537 17.0977 28.6437C17.0905 28.6477 17.0824 28.6499 17.0742 28.6502C17.0661 28.6505 17.0579 28.6489 17.0506 28.6455C17.0432 28.6421 17.0369 28.6369 17.032 28.6305C17.0271 28.6241 17.0239 28.6167 17.0226 28.6087C16.1135 23.1454 15.1777 17.5304 14.2152 11.7638C13.7852 9.19125 16.8914 7.6625 18.8164 9.23375C19.5164 9.805 19.7627 10.4725 19.9852 11.3638C21.036 15.5779 22.0781 19.7113 23.1114 23.7638C23.1447 23.8971 23.1618 23.895 23.1627 23.7575Z" fill="#E38929"/>
<path id="Vector_3" d="M19.1011 47.9225C16.5644 44.965 13.9965 41.9683 11.3973 38.9325C11.2415 38.75 11.0619 38.6004 10.8586 38.4837C9.3069 37.5887 7.75649 36.6921 6.20732 35.7938C3.31357 34.115 4.28232 29.7088 7.63982 29.35C7.83982 29.3292 8.03857 29.3558 8.23607 29.43C10.2769 30.2 12.2998 30.9587 14.3048 31.7062C14.3432 31.7212 14.3552 31.7479 14.3411 31.7862C13.5073 34.0925 13.9823 36.75 15.7673 38.4925C16.1365 38.8525 16.6752 39.2442 17.3836 39.6675C18.7152 40.4633 20.049 41.2767 21.3848 42.1075C21.4229 42.1315 21.4571 42.1615 21.4861 42.1963L28.4536 50.6087C28.4576 50.6137 28.4601 50.6197 28.4609 50.626C28.4616 50.6324 28.4606 50.6388 28.4578 50.6445C28.4551 50.6503 28.4507 50.6552 28.4453 50.6586C28.4399 50.662 28.4337 50.6638 28.4273 50.6637H20.208C19.6688 50.6637 19.2267 50.2363 19.2093 49.6974C19.1879 49.0327 19.1636 48.2434 19.1636 48.0925C19.1636 48.0283 19.1427 47.9717 19.1011 47.9225Z" fill="#E38929"/>
<path id="Vector_4" d="M27.435 53.3288H20.23C19.6777 53.3288 19.23 53.7765 19.23 54.3288V56.3363C19.23 56.8885 19.6777 57.3363 20.23 57.3363H27.435C27.9873 57.3363 28.435 56.8885 28.435 56.3363V54.3288C28.435 53.7765 27.9873 53.3288 27.435 53.3288Z" fill="#E38929"/>
<path id="Vector_5" d="M55.4554 54.6637H32.209C31.6567 54.6637 31.209 55.1115 31.209 55.6637V57.6637C31.209 58.216 31.6567 58.6637 32.209 58.6637H55.4668C56.014 58.6637 56.4561 58.2245 56.4563 57.6772C56.4564 57.0594 56.4558 56.2756 56.4552 55.6623C56.4546 55.1106 56.0071 54.6637 55.4554 54.6637Z" fill="#E38929"/>
</g>
</svg>
