<svg width="65" height="64" viewBox="0 0 65 64" fill="none" xmlns="http://www.w3.org/2000/svg">
<g id="class 1" clip-path="url(#clip0_45_1058)">
<path id="Vector" d="M10.4486 0H11.0648C12.7407 0.176667 14.0357 0.885417 14.9498 2.12625C17.4398 5.50375 15.2486 10.0387 11.1661 10.48C11.1651 10.48 11.1641 10.4804 11.1634 10.4811C11.1627 10.4818 11.1623 10.4828 11.1623 10.4838C11.1623 10.4847 11.1627 10.4857 11.1634 10.4864C11.1641 10.4871 11.1651 10.4875 11.1661 10.4875C13.7586 10.6617 16.0007 11.6417 17.8923 13.4275C19.3586 14.8112 20.4423 17.0725 20.7748 19.005C20.9748 20.1687 20.0998 21.2087 18.9136 21.2075C13.5161 21.205 8.17568 21.2079 2.89235 21.2162C2.39318 21.2171 2.0311 21.1612 1.8061 21.0487C1.16443 20.7271 0.802765 20.2329 0.721099 19.5662C0.681099 19.2437 0.732765 18.8204 0.876099 18.2962C1.19943 17.1104 1.70443 15.9833 2.3911 14.915C3.0861 13.8337 3.9411 13.0487 4.9911 12.3225C6.58027 11.2217 8.35568 10.6129 10.3173 10.4963C10.3857 10.4921 10.3861 10.4858 10.3186 10.4775C8.87943 10.3017 7.71985 9.71292 6.83985 8.71125C5.40485 7.07875 5.09985 4.76875 6.07985 2.8725C6.96318 1.16083 8.41943 0.203333 10.4486 0Z" fill="#E38929"/>
<path id="Vector_2" d="M53.9487 0H54.5499C56.4333 0.209167 57.8199 1.05208 58.7099 2.52875C59.8399 4.4025 59.7337 6.6975 58.4012 8.4225C57.4895 9.60167 56.2566 10.2867 54.7024 10.4775C54.6641 10.4825 54.6645 10.4863 54.7037 10.4888C57.2979 10.6646 59.552 11.67 61.4662 13.505C62.8674 14.85 63.9662 17.1475 64.2662 19.0175C64.4512 20.1775 63.5924 21.2112 62.4099 21.21C57.0824 21.2067 51.6741 21.2087 46.1849 21.2162C44.9162 21.2175 44.0049 20.22 44.2287 18.9587C44.5599 17.0875 45.6424 14.835 47.0137 13.5162C48.8374 11.7612 51.2174 10.6225 53.7462 10.5087C53.907 10.5013 53.9074 10.4879 53.7474 10.4688C49.7587 9.9775 47.6062 5.5625 49.9962 2.20125C50.9112 0.914583 52.2287 0.180833 53.9487 0Z" fill="#E38929"/>
<path id="Vector_3" d="M39.0003 8.72365L25.9928 8.74635C24.9828 8.74811 24.1655 9.5683 24.1673 10.5783L24.1674 10.6633C24.1692 11.6733 24.9894 12.4906 25.9993 12.4888L39.0068 12.4661C40.0168 12.4644 40.8341 11.6442 40.8324 10.6342L40.8322 10.5492C40.8305 9.53921 40.0103 8.72189 39.0003 8.72365Z" fill="#E38929"/>
<path id="Vector_4" d="M33.3062 20.6863L46.4099 27.0613C46.7176 27.2109 46.9769 27.444 47.1583 27.734C47.3397 28.024 47.4359 28.3592 47.4359 28.7013C47.4359 29.0433 47.3397 29.3785 47.1583 29.6685C46.9769 29.9585 46.7176 30.1916 46.4099 30.3412L33.3049 36.7188C33.0565 36.8396 32.7838 36.9024 32.5074 36.9024C32.2311 36.9024 31.9584 36.8396 31.7099 36.7188L18.5937 30.3412C18.2862 30.1915 18.0269 29.9583 17.8456 29.6682C17.6643 29.3781 17.5682 29.0429 17.5684 28.7009C17.5685 28.3588 17.6648 28.0237 17.8463 27.7337C18.0279 27.4438 18.2873 27.2108 18.5949 27.0613L31.7112 20.6863C31.9597 20.5654 32.2324 20.5026 32.5087 20.5026C32.785 20.5026 33.0577 20.5654 33.3062 20.6863Z" fill="#E38929"/>
<path id="Vector_5" d="M10.815 24.9176L10.715 24.9174C9.70986 24.9157 8.8936 25.7291 8.89184 26.7342L8.87348 37.2567C8.87172 38.2619 9.68514 39.0781 10.6903 39.0799L10.7903 39.0801C11.7955 39.0818 12.6117 38.2684 12.6135 37.2633L12.6318 26.7408C12.6336 25.7356 11.8202 24.9194 10.815 24.9176Z" fill="#E38929"/>
<path id="Vector_6" d="M54.3096 24.9176L54.2096 24.9174C53.2045 24.9157 52.3882 25.7291 52.3865 26.7342L52.3681 37.2567C52.3664 38.2619 53.1798 39.0781 54.1849 39.0799L54.2849 39.0801C55.2901 39.0818 56.1063 38.2684 56.1081 37.2633L56.1265 26.7408C56.1282 25.7356 55.3148 24.9194 54.3096 24.9176Z" fill="#E38929"/>
<path id="Vector_7" d="M28.7552 39.4575C29.5152 39.8292 29.9443 40.0371 30.0427 40.0813C31.2243 40.6129 32.4152 40.76 33.6152 40.5225C34.1577 40.415 34.8689 40.1446 35.7489 39.7113C38.3472 38.4296 40.8056 37.2321 43.1239 36.1188C43.1531 36.1046 43.1677 36.1138 43.1677 36.1463C43.1568 38.0113 43.1585 39.9979 43.1727 42.1063C43.1802 43.3788 42.4477 44.2375 41.1364 44.2363C34.9189 44.2346 29.0906 44.2325 23.6514 44.23C22.9514 44.23 22.3139 43.7675 22.0152 43.1563C21.8893 42.8988 21.8277 42.5529 21.8302 42.1188C21.8418 40.0704 21.8435 38.09 21.8352 36.1775C21.8352 36.1183 21.8614 36.1017 21.9139 36.1275C24.2281 37.2467 26.5085 38.3567 28.7552 39.4575Z" fill="#E38929"/>
<path id="Vector_8" d="M19.1461 64H2.34239C1.36822 63.7975 0.817385 63.2033 0.689885 62.2175C0.664052 62.0167 0.724469 61.6475 0.871135 61.11C1.39864 59.1775 2.42114 57.2113 3.95864 55.9038C5.74989 54.38 7.99364 53.345 10.2586 53.3088C10.3561 53.3071 10.3574 53.2967 10.2624 53.2775C9.78614 53.18 9.32238 53.1075 8.87364 52.9238C7.5003 52.3596 6.52239 51.415 5.93989 50.09C4.51489 46.85 6.72739 43.27 10.1499 42.8325C13.4924 42.405 16.4286 45.3925 15.9461 48.7337C15.6436 50.8237 14.1636 52.53 12.1199 53.095C11.9457 53.1433 11.7995 53.1717 11.6811 53.18C11.5036 53.1925 11.3461 53.2458 11.2086 53.34C11.2045 53.3433 11.202 53.3421 11.2011 53.3363L11.1986 53.305C11.1984 53.3041 11.1985 53.3032 11.1988 53.3023C11.1991 53.3014 11.1996 53.3005 11.2003 53.2998C11.201 53.2991 11.2019 53.2985 11.2029 53.2981C11.2039 53.2977 11.205 53.2975 11.2061 53.2975C13.7511 53.4088 16.1249 54.5163 17.9486 56.2713C18.592 56.8904 19.1607 57.6763 19.6549 58.6288C20.2566 59.7863 20.6266 60.8325 20.7649 61.7675C20.9399 62.9475 20.2899 63.7463 19.1461 64Z" fill="#E38929"/>
<path id="Vector_9" d="M62.6413 64H45.835C44.71 63.8 44.015 62.8337 44.2363 61.6975C44.6038 59.8087 45.6338 57.6337 47.0188 56.305C48.6846 54.7058 50.6104 53.7333 52.7963 53.3875C53.1246 53.3358 53.4459 53.3096 53.76 53.3087C53.8667 53.3079 53.8675 53.2975 53.7625 53.2775C53.525 53.2317 53.2996 53.1867 53.0863 53.1425C51.6863 52.8525 50.4563 51.8887 49.7413 50.695C47.9038 47.6287 49.6663 43.7375 53.0638 42.9337C55.1175 42.4487 57.2188 43.26 58.4613 44.94C60.5975 47.8325 59.2475 51.8187 55.915 53.0012C55.5225 53.1412 55.12 53.1912 54.715 53.285C54.6667 53.2967 54.6675 53.3033 54.7175 53.305C57.1138 53.3737 59.3888 54.4212 61.24 56.08C62.66 57.3525 63.6225 59.2825 64.1425 61.155C64.305 61.74 64.3271 62.2467 64.2088 62.675C64.0154 63.3708 63.4929 63.8125 62.6413 64Z" fill="#E38929"/>
<path id="Vector_10" d="M39.0057 51.5314L25.9982 51.5087C24.9882 51.5069 24.168 52.3242 24.1662 53.3342L24.1661 53.4217C24.1643 54.4317 24.9817 55.2519 25.9916 55.2536L38.9991 55.2764C40.0091 55.2781 40.8293 54.4608 40.8311 53.4508L40.8312 53.3633C40.833 52.3533 40.0157 51.5331 39.0057 51.5314Z" fill="#E38929"/>
</g>
<defs>
<clipPath id="clip0_45_1058">
<rect width="64" height="64" fill="white" transform="translate(0.5)"/>
</clipPath>
</defs>
</svg>
