<svg width="58" height="55" viewBox="0 0 58 55" fill="none" xmlns="http://www.w3.org/2000/svg">
<path fill-rule="evenodd" clip-rule="evenodd" d="M34.7888 5.97699C34.8226 5.9724 34.8347 5.92927 34.808 5.90799C33.2817 4.69115 31.817 3.34895 30.5041 1.88138C29.9876 1.30408 29.4946 0.707386 29.0306 0.0912892C29.0152 0.0708072 28.9844 0.0708073 28.969 0.0912893C28.505 0.707386 28.012 1.30408 27.4955 1.88138C26.1826 3.3489 24.718 4.69107 23.1917 5.90787C23.165 5.92916 23.1771 5.97229 23.211 5.97688C23.5292 6.02009 23.8671 6.08923 24.2289 6.18703C24.2422 6.19063 24.2565 6.1868 24.2664 6.17713C24.9863 5.47022 26.0542 5.29416 26.5516 5.47285C26.6476 5.5073 26.7415 5.60753 26.833 5.76329C26.8457 5.78482 26.875 5.78967 26.8934 5.77272C27.6112 5.10955 28.3072 4.41525 28.9714 3.68957C28.9866 3.67289 29.013 3.67289 29.0282 3.68957C29.6925 4.4154 30.3887 5.10984 31.1067 5.77314C31.125 5.79009 31.1544 5.78524 31.167 5.7637C31.2586 5.60773 31.3527 5.50737 31.4487 5.47289C31.9461 5.2942 33.014 5.47026 33.7339 6.17716C33.7438 6.18683 33.7581 6.19067 33.7714 6.18707C34.133 6.08932 34.4707 6.0202 34.7888 5.97699ZM43.8076 11.6152C43.7743 11.5981 43.7373 11.6339 43.7537 11.6676C44.087 12.3531 44.2884 13.2204 44.3206 14.4193C44.321 14.4337 44.3295 14.447 44.3426 14.4532C45.6582 15.082 46.8324 15.5913 47.7836 15.9816C48.112 16.1163 48.4143 16.237 48.6872 16.3438C48.7029 16.3499 48.7127 16.3654 48.7116 16.3822C48.6614 17.1273 48.5774 17.8654 48.4623 18.5958C48.4622 18.5964 48.4624 18.5971 48.4628 18.5975C48.4635 18.5981 48.4636 18.5992 48.4631 18.5999L48.4618 18.6017C48.4614 18.6022 48.4612 18.6028 48.4611 18.6035C48.2428 19.9856 47.9134 21.3402 47.492 22.6626C47.4876 22.6763 47.4912 22.6914 47.5015 22.7015C47.9854 23.1779 48.6141 23.6989 49.3562 24.2122C49.377 24.2266 49.4059 24.2172 49.4143 24.1933C50.448 21.2288 51.0704 18.0803 51.0738 14.7941C51.0739 14.7775 51.0654 14.7635 51.0497 14.7582C50.7512 14.6569 47.7137 13.6092 43.8076 11.6152ZM48.584 26.3372C48.5956 26.3098 48.573 26.28 48.5433 26.2836C48.1648 26.3294 47.7425 26.3304 47.2924 26.2707C47.2659 26.2672 47.2436 26.2909 47.249 26.3171C47.3849 26.9808 47.4368 27.7954 47.4406 28.6124C47.4408 28.6528 47.4953 28.666 47.5136 28.6299C47.8942 27.8807 48.2523 27.1161 48.584 26.3372ZM44.3203 33.9259C44.3445 33.8913 44.3037 33.8484 44.2684 33.8715L43.7409 34.2155C43.7244 34.2262 43.7026 34.2229 43.6901 34.2077C43.3039 33.7361 42.8831 33.2228 42.4365 32.6785C42.4203 32.6589 42.3898 32.66 42.3752 32.6809C41.1011 34.4971 39.7219 36.1933 38.3215 37.7493C35.6609 40.7056 32.9938 43.077 30.9912 44.7087C30.2212 45.3362 29.552 45.8521 29.0227 46.2477C29.0091 46.2579 28.9906 46.2579 28.9769 46.2477C28.4476 45.8521 27.7784 45.3362 27.0084 44.7087C25.0058 43.077 22.3388 40.7056 19.6781 37.7493C18.2778 36.1935 16.8988 34.4973 15.6247 32.6813C15.6101 32.6604 15.5796 32.6593 15.5634 32.679C15.117 33.2231 14.6963 33.7362 14.3102 34.2077C14.2977 34.2229 14.2759 34.2262 14.2594 34.2155L13.7306 33.8706C13.6953 33.8476 13.6545 33.8905 13.6787 33.9251C20.0013 42.9761 28.544 48.7965 28.9822 49.0919C28.9951 49.1006 29.0045 49.1006 29.0174 49.0919C29.4556 48.7965 37.9978 42.9765 44.3203 33.9259ZM6.92578 14.7941C6.92576 14.7775 6.93419 14.7635 6.94987 14.7582C7.2484 14.6569 10.2864 13.6091 14.1928 11.6147C14.2262 11.5977 14.2632 11.6334 14.2468 11.6671C13.9134 12.3527 13.7119 13.22 13.6797 14.4189C13.6793 14.4334 13.6708 14.4466 13.6577 14.4529C12.3418 15.0819 11.1674 15.5913 10.216 15.9816C9.88759 16.1163 9.58527 16.2371 9.31238 16.3438C9.29676 16.3499 9.28689 16.3654 9.28802 16.3822C9.3382 17.1275 9.4223 17.8659 9.53749 18.5966C9.53756 18.5971 9.53741 18.5975 9.5371 18.5978C9.53662 18.5982 9.53655 18.5989 9.53693 18.5995L9.5378 18.6007C9.53808 18.6011 9.53826 18.6015 9.53833 18.602C9.75661 19.9847 10.0862 21.34 10.5078 22.663C10.5122 22.6768 10.5086 22.6918 10.4983 22.702C10.0144 23.1783 9.38563 23.6993 8.64354 24.2125C8.6227 24.2269 8.59383 24.2176 8.58549 24.1936C7.5517 21.229 6.92927 18.0804 6.92578 14.7941ZM10.5597 28.6137C10.5595 28.6541 10.505 28.6673 10.4867 28.6312C10.1059 27.8815 9.74746 27.1165 9.41562 26.3371C9.40393 26.3097 9.42662 26.2799 9.45624 26.2835C9.835 26.3294 10.2575 26.3304 10.7079 26.2707C10.7344 26.2672 10.7566 26.2908 10.7513 26.3171C10.6154 26.9811 10.5634 27.7962 10.5597 28.6137Z" fill="#11151D"/>
<g clip-path="url(#clip0_97_1053)">
<path d="M37.5187 8.47944C38.7421 8.34823 39.8469 8.68803 40.833 9.49882C41.1282 9.74146 41.4279 10.1749 41.1252 10.5452C41.1204 10.5511 41.1169 10.5579 41.1149 10.5652C41.1129 10.5724 41.1124 10.58 41.1134 10.5875C41.1145 10.595 41.1171 10.6022 41.121 10.6086C41.125 10.615 41.1302 10.6206 41.1364 10.6249C41.3308 10.7606 41.5263 10.9006 41.7231 11.0448C42.6584 11.7299 43.1962 12.9574 43.1775 14.1089C43.1729 14.4252 43.1046 14.7535 43.2503 15.0577C44.0346 16.6908 44.8767 18.3254 46.5496 19.0781C46.7404 19.1643 46.9295 19.2409 47.1168 19.308C47.1478 19.3193 47.1754 19.3383 47.1971 19.3633C47.2188 19.3883 47.2338 19.4183 47.2407 19.4507C47.3068 19.7587 47.3008 20.3206 47.0386 20.5445C46.4196 21.0718 45.2267 21.1702 44.4064 21.1778C44.3819 21.1783 44.3766 21.1888 44.3906 21.2093C44.6961 21.651 44.9736 22.0319 45.223 22.3519C45.5175 22.73 45.873 23.0733 46.2897 23.3818C46.5323 23.5613 46.7952 23.677 47.0634 23.81C47.2833 23.9196 47.4012 24.1022 47.4172 24.3576C47.442 24.752 47.3474 25.2087 46.9815 25.4123C46.7001 25.5695 46.3893 25.6321 46.0493 25.6001C46.0443 25.5996 46.0392 25.6004 46.0347 25.6025C46.0301 25.6046 46.0262 25.608 46.0233 25.6122C46.0204 25.6163 46.0186 25.6213 46.0182 25.6264C46.0177 25.6315 46.0186 25.6367 46.0208 25.6414C46.0543 25.7125 46.0761 25.7866 46.0861 25.8638C46.3661 27.9686 46.2729 30.0342 45.8067 32.0604C45.7173 32.4503 45.6279 32.8582 45.5107 33.2526C45.3259 33.8726 45.0953 34.4873 44.8188 35.0968C44.4688 35.8653 44.1172 36.5361 43.5275 37.1325C43.3237 37.3384 43.063 37.4047 42.7455 37.3316C42.7212 37.326 42.6958 37.3301 42.6744 37.3428C42.653 37.3555 42.6373 37.376 42.6306 37.4C42.2855 38.6485 41.5817 39.6491 40.519 40.4018C40.2463 40.5956 39.8241 40.7834 39.5041 40.6474C39.475 40.6354 39.4527 40.6156 39.4372 40.5881C39.3426 40.4198 39.2895 40.2433 39.278 40.0585C39.272 39.9678 39.2487 39.9631 39.2081 40.0442C38.6094 41.2349 37.7771 42.3256 36.6705 43.0918C36.2454 43.3863 35.8082 43.4584 35.3574 43.188C35.3429 43.1793 35.3258 43.176 35.3091 43.1786C35.2923 43.1812 35.277 43.1896 35.2658 43.2022C34.6476 43.8911 34.0173 44.598 33.2556 45.0848C32.8059 45.3722 32.3331 45.6271 31.8373 45.8495C31.497 46.002 31.0035 46.1349 30.6767 45.9208C30.6221 45.8848 30.5755 45.8931 30.537 45.9456C30.096 46.5368 29.6648 47.1618 29.1135 47.6291C29.0855 47.6526 29.0506 47.6663 29.0143 47.6678C28.9779 47.6693 28.9422 47.6585 28.9129 47.6373C28.8403 47.5848 28.7702 47.5254 28.7025 47.4593C28.2228 46.987 27.8124 46.475 27.4713 45.9231C27.4641 45.9114 27.4545 45.9013 27.4432 45.8934C27.4319 45.8855 27.4192 45.88 27.4057 45.8773C27.3923 45.8745 27.3784 45.8746 27.365 45.8774C27.3516 45.8803 27.339 45.8858 27.3278 45.8938C27.2026 45.9819 27.0737 46.023 26.941 46.017C26.633 46.0027 26.2724 45.8885 25.9817 45.7616C25.1328 45.389 24.3844 44.8739 23.7363 44.2164C23.4344 43.9099 23.1249 43.5904 22.8079 43.2578C22.7856 43.2348 22.7563 43.2198 22.7245 43.2155C22.6928 43.2111 22.6605 43.2176 22.6328 43.2338C22.0341 43.5876 21.4437 43.2766 20.9381 42.8927C20.0272 42.2001 19.327 41.327 18.8378 40.2733C18.7887 40.1676 18.7421 40.1686 18.698 40.2763C18.4186 40.9569 17.7756 40.6444 17.3459 40.3259C16.5231 39.7169 15.9436 38.9685 15.6076 38.0806C15.5114 37.8266 15.4253 37.5772 15.3492 37.3324C15.3407 37.3043 15.3216 37.2895 15.2921 37.288C15.232 37.285 15.1701 37.289 15.1065 37.3001C14.74 37.3627 14.427 37.2422 14.1675 36.9387C13.9016 36.6287 13.6968 36.333 13.5531 36.0516C13.0866 35.1366 12.6839 34.2306 12.3985 33.224C11.7499 30.9384 11.5569 28.6089 11.8193 26.2356C11.8383 26.0648 11.8716 25.8763 11.9192 25.6699C11.9262 25.6384 11.9134 25.6221 11.8809 25.6211C11.3821 25.6091 10.836 25.4513 10.685 24.9202C10.573 24.5274 10.5137 23.9782 10.9952 23.81C11.3913 23.6718 11.7922 23.3923 12.1979 22.9716C12.7047 22.4458 13.1424 21.8816 13.511 21.2792C13.5155 21.2718 13.5181 21.2634 13.5184 21.2548C13.5188 21.2462 13.5169 21.2376 13.513 21.2299C13.5091 21.2222 13.5032 21.2156 13.496 21.2108C13.4888 21.206 13.4805 21.2032 13.4719 21.2025C12.8327 21.159 12.2189 21.1117 11.6097 20.8908C11.0042 20.6714 10.7441 20.2292 10.8292 19.5642C10.8472 19.426 10.9176 19.3366 11.0403 19.296C11.9966 18.9797 12.6892 18.3127 13.2961 17.5367C13.7013 17.0184 14.0248 16.5181 14.2667 16.0358C14.458 15.6537 14.6398 15.2891 14.8121 14.942C14.8436 14.8784 14.8539 14.8103 14.8429 14.7377C14.6423 13.4306 15.0036 12.0852 16.0208 11.2394C16.2426 11.0551 16.4857 10.8843 16.7502 10.727C16.7842 10.7068 16.8092 10.6742 16.82 10.636C16.8308 10.5979 16.8265 10.557 16.808 10.522C16.5165 9.96682 17.0446 9.50633 17.4751 9.24417C18.3615 8.7038 19.2877 8.44038 20.2538 8.4539C20.2603 8.45386 20.2667 8.45203 20.2723 8.44862C20.2779 8.4452 20.2825 8.44033 20.2854 8.43456C20.2884 8.42879 20.2897 8.42234 20.2891 8.41594C20.2886 8.40954 20.2862 8.40343 20.2823 8.39831C20.1839 8.26535 20.069 8.14441 19.9931 7.99492C19.8016 7.62007 20.4273 7.46382 20.6624 7.38269C22.0784 6.89966 23.7409 6.96201 25.1156 7.62082C25.1232 7.62448 25.1315 7.62626 25.14 7.626C25.1484 7.62573 25.1567 7.62344 25.1641 7.61932C25.1714 7.61519 25.1777 7.60935 25.1823 7.60229C25.187 7.59523 25.1898 7.58715 25.1907 7.57875C25.2365 7.14381 25.2951 6.79825 25.7939 6.70435C26.1775 6.63174 26.502 6.73941 26.7674 7.02737C26.7726 7.03312 26.779 7.03761 26.7862 7.0405C26.7933 7.04338 26.801 7.04458 26.8087 7.044C26.8164 7.04341 26.8239 7.04107 26.8305 7.03715C26.8372 7.03322 26.8428 7.02782 26.8471 7.02136C27.1145 6.61871 27.3799 6.19404 27.6434 5.74732C28.0866 4.99462 28.5132 4.31278 28.9234 3.7018C28.9287 3.69404 28.9358 3.68762 28.9441 3.68307C28.9523 3.67851 28.9615 3.67595 28.9708 3.67558C28.9802 3.67522 28.9895 3.67706 28.9979 3.68096C29.0064 3.68486 29.0138 3.69071 29.0196 3.69804C29.0651 3.75664 29.1069 3.81448 29.145 3.87157C29.5446 4.46752 29.9713 5.13785 30.4251 5.88254C30.6624 6.27316 30.8963 6.642 31.1267 6.98906C31.1306 6.995 31.1358 6.99999 31.1419 7.00371C31.148 7.00742 31.1548 7.00975 31.1619 7.01053C31.169 7.01132 31.1762 7.01055 31.183 7.00827C31.1897 7.00598 31.1959 7.00225 31.201 6.99732C31.5263 6.68332 32.0439 6.56613 32.4368 6.81328C32.717 6.98906 32.759 7.26099 32.8064 7.58777C32.8119 7.62633 32.8324 7.63759 32.868 7.62157C33.0267 7.54895 33.1947 7.47984 33.372 7.41424C34.6436 6.94248 35.9449 6.91844 37.276 7.34212C37.5284 7.4225 37.7973 7.57124 37.9994 7.75528C38.0282 7.78137 38.0467 7.81677 38.0518 7.85515C38.0569 7.89354 38.0482 7.93242 38.0272 7.96487C37.916 8.13714 37.7413 8.29239 37.5029 8.43061C37.4323 8.47168 37.4375 8.48796 37.5187 8.47944ZM28.8265 5.44759L26.8388 8.45916C26.8343 8.46573 26.8282 8.47097 26.821 8.47434C26.8138 8.47771 26.8058 8.47909 26.7979 8.47832C26.79 8.47755 26.7824 8.47467 26.776 8.46998C26.7696 8.46529 26.7646 8.45895 26.7614 8.45165C26.6628 8.21176 26.5624 7.98265 26.4602 7.7643C26.3691 7.56949 26.2326 7.46056 26.0508 7.43753C26.0378 7.4359 26.0245 7.43747 26.0122 7.44209C26 7.44671 25.989 7.45424 25.9803 7.46403C25.9717 7.47381 25.9655 7.48555 25.9625 7.49822C25.9595 7.51089 25.9596 7.52409 25.9629 7.53668C26.1036 8.08456 26.2146 8.68577 26.2957 9.34032C25.6421 8.92215 25.1038 8.61366 24.6806 8.41484C24.0581 8.12287 23.357 7.96562 22.5772 7.94308C22.0259 7.92656 21.504 8.04199 21.0117 8.28939C21.0057 8.29239 21.0042 8.2969 21.0072 8.30291V8.30366C21.0122 8.31418 21.0198 8.31668 21.0298 8.31117C21.518 8.05276 22.5044 9.29375 22.7312 9.63855C22.7673 9.69313 22.755 9.70741 22.6944 9.68136C20.9617 8.93217 19.2437 9.06638 17.5404 10.084C17.4733 10.1241 17.4781 10.1366 17.5547 10.1216C18.4647 9.93978 19.3769 10.0146 20.2913 10.3462C21.5323 10.9269 22.7545 11.9282 23.3457 13.191C23.4043 13.3162 23.4491 13.4406 23.4802 13.5643C23.4833 13.5769 23.4832 13.5901 23.4799 13.6026C23.4766 13.6151 23.4702 13.6266 23.4613 13.6361C23.4524 13.6455 23.4413 13.6525 23.429 13.6565C23.4167 13.6605 23.4035 13.6614 23.3908 13.659C23.2295 13.6299 23.0821 13.6349 22.9483 13.674C22.8692 13.697 22.87 13.7163 22.9506 13.7318C23.1016 13.7611 23.4531 13.8047 23.5365 13.9452C23.5571 13.9802 23.5533 14.0128 23.5253 14.0428C23.2909 14.2945 23.043 14.5446 22.7748 14.7557C22.4603 15.0031 22.1486 15.2723 21.8396 15.5633C21.817 15.5848 21.7902 15.5938 21.7592 15.5903C21.6926 15.5818 21.627 15.5738 21.5624 15.5663C20.9637 15.4949 20.3657 15.718 19.7933 15.993C18.8893 16.4282 18.0077 16.9936 17.1483 17.6892C17.0592 17.7613 16.9655 17.8271 16.8674 17.8867C16.1998 17.3143 15.6802 16.6485 15.3086 15.8893C15.2921 15.8552 15.2778 15.8562 15.2658 15.8923C15.2192 16.038 15.1456 16.2033 15.0449 16.3881C14.3103 17.7388 13.4073 19 12.0769 19.7309C11.9507 19.8006 11.8153 19.8561 11.6705 19.8977C11.5869 19.9223 11.5842 19.9536 11.6623 19.9916C12.1776 20.2455 12.874 20.3176 13.4314 20.3372C13.6192 20.3437 13.8152 20.3547 14.0196 20.3702C14.0505 20.3726 14.0816 20.3689 14.1111 20.3592C14.1406 20.3495 14.168 20.3341 14.1916 20.3139C14.607 19.9593 14.9661 19.5619 15.3927 19.2134C15.8931 18.8052 16.4081 18.4061 16.938 18.016C17.3121 17.8221 17.6912 17.6163 18.0753 17.3985C18.6778 17.0564 19.3178 16.8053 19.9954 16.645C20.0204 16.639 20.0304 16.6488 20.0254 16.6743C20.0099 16.7484 19.9713 16.8175 19.9097 16.8816C17.9281 17.5247 16.2101 18.9091 15.0194 20.6053C14.4673 21.3934 13.9414 22.2257 13.3239 22.9889C12.8061 23.6304 12.1899 24.1362 11.4752 24.5063C11.4561 24.5164 11.4401 24.5317 11.4294 24.5505C11.4186 24.5693 11.4135 24.5908 11.4146 24.6123C11.4157 24.6339 11.423 24.6546 11.4357 24.6721C11.4483 24.6895 11.4657 24.7029 11.4857 24.7107C11.7066 24.7971 11.9943 24.7993 12.2249 24.7362C12.7603 24.5895 13.218 24.4107 13.5981 24.1998C14.3233 23.7967 15.0532 23.2731 15.7879 22.6291C16.7314 21.8013 17.6163 20.9319 18.4426 20.0209C18.4712 19.9894 18.5042 19.9633 18.5418 19.9428C18.6164 19.9012 18.6294 19.9155 18.5809 19.9856C18.1745 20.5738 17.7921 21.1748 17.3857 21.7735C16.4189 23.1962 15.1396 24.3283 13.5959 25.1058C13.3575 25.226 13.1209 25.3251 12.886 25.4033C12.8593 25.4122 12.8353 25.4281 12.8166 25.4493C12.7979 25.4706 12.785 25.4964 12.7793 25.5242C12.4833 26.973 12.424 28.4319 12.6013 29.9007C12.8176 31.6968 13.1955 33.4223 13.9181 35.0479C14.1225 35.5082 14.3974 35.9311 14.743 36.3167C14.7785 36.3743 14.8419 36.4349 14.933 36.4985C14.9392 36.5028 14.9465 36.5051 14.954 36.5053C14.9615 36.5055 14.9689 36.5036 14.9753 36.4997C14.9817 36.4958 14.9869 36.4902 14.9902 36.4834C14.9935 36.4767 14.9947 36.4692 14.9939 36.4617C14.9483 36.0871 14.934 35.7105 14.951 35.3319C14.9766 34.7565 15.102 33.076 15.2155 32.4548C15.3121 32.9781 15.4321 34.4978 15.5227 35.0126C15.8277 36.7562 16.3633 38.4201 17.7418 39.6415C17.7863 39.6806 17.7993 39.6721 17.7808 39.616C17.7357 39.4815 17.7065 39.3538 17.6884 39.2096C17.5612 38.192 17.5472 37.3068 17.6464 36.5541C17.8221 35.2237 18.3878 34.0045 19.4372 33.1083C19.9235 32.6932 20.4143 32.3396 20.9096 32.0476C21.7394 31.5589 22.5888 31.1682 23.4577 30.8758C23.5208 30.8547 23.5899 30.8527 23.665 30.8698C23.69 30.8753 23.6918 30.885 23.6702 30.8991L23.2849 31.1477C22.0199 31.7802 20.9396 32.708 19.9871 33.7514C19.2524 34.5567 18.7604 35.5851 18.7717 36.6841C18.7807 37.588 18.967 38.4622 19.3306 39.3065C19.7597 40.3031 20.2891 41.1177 20.9186 41.7502C21.16 41.9921 21.3984 42.2059 21.6337 42.3917C21.7409 42.4763 21.8716 42.5349 22.0259 42.5675C22.0376 42.5699 22.0497 42.5691 22.061 42.5652C22.0722 42.5612 22.0822 42.5543 22.0898 42.5452C22.0974 42.536 22.1023 42.525 22.104 42.5133C22.1057 42.5016 22.1042 42.4897 22.0995 42.4788C21.7725 41.7046 21.5636 40.8923 21.473 40.0419C21.3748 39.1215 21.3693 38.2934 21.4565 37.5577C21.4504 39.5118 22.0862 41.2048 23.3638 42.6366C24.2366 43.6154 25.111 44.423 26.2799 45.0021C26.497 45.1095 26.7291 45.1787 26.9575 45.2575C26.9645 45.2599 26.972 45.2601 26.9792 45.2582C26.9863 45.2563 26.9927 45.2523 26.9976 45.2468C27.0025 45.2413 27.0056 45.2344 27.0067 45.2271C27.0077 45.2198 27.0065 45.2124 27.0033 45.2057C26.8005 44.7855 26.5999 44.3583 26.4016 43.9241C25.6241 42.2212 25.3852 40.3559 25.7714 38.5268C25.842 38.1927 25.9066 37.8885 25.9652 37.6141C25.9727 37.5795 25.9872 37.5485 26.0087 37.5209C26.0263 37.4989 26.0383 37.5014 26.0448 37.5284C26.0533 37.564 26.0546 37.602 26.0485 37.6426L26.0102 38.8393C26.1101 41.5128 27.2084 44.2306 28.837 46.337L28.9775 46.5413C28.9808 46.5461 28.9852 46.55 28.9902 46.5527C28.9953 46.5555 29.001 46.557 29.0068 46.5571C29.0126 46.5573 29.0183 46.5561 29.0235 46.5536C29.0287 46.5511 29.0333 46.5474 29.0368 46.5428C30.8307 44.16 32.0642 41.2469 31.8794 38.2766C31.8629 38.0107 31.8441 37.7458 31.823 37.4818C31.8225 37.4753 31.8238 37.4751 31.8268 37.4811C31.8588 37.5467 31.8824 37.6126 31.8974 37.6787C31.9926 38.0883 32.0892 38.5378 32.1874 39.0271C32.5329 40.7421 32.2122 42.4248 31.5068 44.0045C31.331 44.3977 31.1542 44.7938 30.9764 45.1929C30.9732 45.2 30.9721 45.2079 30.9732 45.2157C30.9744 45.2234 30.9777 45.2306 30.9829 45.2365C30.988 45.2424 30.9948 45.2466 31.0023 45.2488C31.0098 45.2509 31.0178 45.2508 31.0253 45.2485C32.5464 44.7865 33.8738 43.5335 34.8489 42.3128C35.7511 41.1823 36.2882 39.7302 36.4377 38.3149C36.4672 38.0335 36.4895 37.6874 36.5045 37.2768C36.5045 37.2738 36.5063 37.2723 36.5098 37.2723H36.5293C36.5423 37.2723 36.5491 37.2785 36.5496 37.291C36.6002 38.3062 36.5516 39.3393 36.4039 40.3905C36.2977 41.1467 36.1252 41.8023 35.8863 42.3571C35.7992 42.5585 35.85 42.603 36.0388 42.4909C36.1905 42.4007 36.3385 42.2948 36.4827 42.1731C37.6651 41.177 38.4614 39.8151 38.9302 38.354C39.4485 36.7382 39.2412 35.072 38.07 33.7784C37.4015 33.0392 36.6535 32.3794 35.8262 31.799C35.5983 31.6392 35.3392 31.4815 35.0487 31.3257C34.7908 31.187 34.5171 31.035 34.2276 30.8698C34.2246 30.8683 34.2239 30.866 34.2254 30.863L34.2479 30.8119C34.2489 30.8089 34.2512 30.8079 34.2547 30.8089C35.673 31.2526 36.9966 31.9297 38.2255 32.8402C38.8145 33.2764 39.2745 33.7641 39.6055 34.3035C40.1163 35.1358 40.3146 36.1537 40.3469 37.1385C40.375 38.0124 40.3109 38.8353 40.1546 39.607C40.1456 39.6541 40.1594 39.6621 40.1959 39.631C40.7148 39.1973 41.1184 38.7243 41.4069 38.212C41.7244 37.6491 41.967 37.0947 42.1348 36.5489C42.4558 35.5047 42.6574 34.454 42.7395 33.3968C42.745 33.3202 42.7543 33.3197 42.7673 33.3953C42.8559 33.9086 42.9486 34.4527 43.0452 35.0277C43.0603 35.1193 43.0668 35.2513 43.0648 35.4236L42.9964 36.464C42.996 36.4689 42.9971 36.4739 42.9995 36.4782C43.0019 36.4825 43.0055 36.486 43.01 36.4883C43.0144 36.4906 43.0195 36.4916 43.0246 36.4912C43.0296 36.4907 43.0345 36.4888 43.0385 36.4857C43.1722 36.3821 43.2909 36.2491 43.3946 36.0869C43.8658 35.3487 44.2427 34.5274 44.5251 33.6229C44.9237 32.3444 45.1922 31.0235 45.3304 29.6603C45.4766 28.2245 45.3955 26.8418 45.087 25.5122C45.0725 25.4491 45.0354 25.405 44.9758 25.38C43.1043 24.5872 41.5924 23.3447 40.4401 21.6525C40.0414 21.0676 39.6656 20.5052 39.3125 19.9653C39.2069 19.8041 39.2269 19.7868 39.3726 19.9135C39.5552 20.072 39.7031 20.2575 39.8714 20.4288C40.8735 21.4524 41.9377 22.4077 43.064 23.2946C43.7521 23.8365 44.5043 24.2642 45.3206 24.5777C45.7466 24.7422 46.1177 24.8436 46.5368 24.64C46.5479 24.6346 46.5573 24.6263 46.5639 24.6158C46.5705 24.6054 46.5741 24.5934 46.5743 24.5811C46.5744 24.5689 46.5712 24.5568 46.5648 24.5464C46.5584 24.536 46.5493 24.5275 46.5383 24.5221C46.2251 24.3651 45.9036 24.1871 45.6369 23.9715C45.1206 23.5533 44.6879 23.0938 44.3388 22.593C44.0248 22.1428 43.7191 21.6866 43.4216 21.2243C42.7673 20.2065 41.9094 19.1811 40.9171 18.4471C40.0359 17.7966 39.2051 17.3564 38.1737 16.8568C38.0836 16.7998 38.0187 16.7372 37.9791 16.669C37.9656 16.6455 37.9719 16.6375 37.9979 16.645C38.7181 16.8568 39.4062 17.1438 40.0622 17.5059C40.3988 17.6922 40.7358 17.8762 41.0733 18.058C41.9598 18.5899 42.7342 19.2847 43.5178 20.0029C43.6414 20.1166 43.7659 20.221 43.8911 20.3161C43.9131 20.3332 43.9379 20.3422 43.9655 20.3432C44.627 20.3652 45.2808 20.3029 45.9269 20.1561C46.1061 20.1156 46.2694 20.0419 46.4166 19.9353C46.4209 19.9322 46.4243 19.928 46.4264 19.9232C46.4284 19.9183 46.4291 19.913 46.4283 19.9078C46.4275 19.9026 46.4253 19.8977 46.4219 19.8937C46.4186 19.8896 46.4141 19.8866 46.4091 19.8849C44.897 19.3388 43.9429 18.215 43.1805 16.8456C42.9776 16.481 42.8186 16.1542 42.7034 15.8653C42.6864 15.8227 42.6686 15.8222 42.6501 15.8638C42.3166 16.6059 41.817 17.1468 41.2604 17.747C41.1883 17.8246 41.1162 17.8387 41.044 17.7891C40.6519 17.4966 40.2568 17.2069 39.8586 16.9199C39.0433 16.333 38.1797 15.9046 37.2678 15.6346C36.9407 15.538 36.5907 15.5152 36.2176 15.5663C36.1019 15.5821 36.0193 15.54 35.9411 15.4604C35.6236 15.1358 35.2991 14.8394 34.9676 14.5709C34.7685 14.4094 34.5935 14.2254 34.4477 14.0098C34.4402 13.9987 34.4353 13.986 34.4335 13.9727C34.4317 13.9593 34.433 13.9458 34.4373 13.9331C34.4416 13.9203 34.4488 13.9088 34.4583 13.8993C34.4678 13.8898 34.4793 13.8826 34.4921 13.8783C34.6864 13.8127 34.8757 13.7752 35.06 13.7657C35.073 13.7646 35.0838 13.7591 35.0923 13.7491C35.1003 13.7406 35.0953 13.7276 35.0772 13.7101C35.0617 13.6955 35.0437 13.6858 35.0232 13.6808C34.8584 13.6427 34.6849 13.6547 34.5026 13.7168C34.4963 13.7189 34.4897 13.7192 34.4833 13.7178C34.4769 13.7165 34.4709 13.7134 34.4661 13.7089C34.4613 13.7045 34.4577 13.6989 34.4558 13.6926C34.4539 13.6863 34.4537 13.6796 34.4552 13.6733C34.6355 12.9513 35.0757 12.3894 35.5693 11.8546C36.0325 11.3528 36.5604 10.9304 37.1528 10.5873C37.4909 10.4115 37.7593 10.2969 37.9581 10.2433C38.6587 10.0555 39.3859 9.99787 40.1396 10.0705C40.2748 10.0835 40.2838 10.0555 40.1666 9.98635C38.7609 9.16303 37.28 8.99076 35.724 9.46953C35.5024 9.53789 35.2921 9.65808 35.0697 9.72794C35.0242 9.74246 35.0159 9.73044 35.0449 9.69188C35.2212 9.46151 35.3983 9.23866 35.576 9.02331C35.8908 8.6417 36.2987 8.41484 36.7036 8.14065C36.7372 8.11811 36.7344 8.10209 36.6953 8.09257C35.5064 7.80611 34.3789 7.90928 33.3127 8.40207C33.1629 8.47168 32.9043 8.62417 32.5367 8.85955C32.2873 9.0188 32.0269 9.1708 31.7554 9.31553C31.801 8.70706 31.8997 8.12512 32.0514 7.56974C32.0549 7.55681 32.0553 7.54323 32.0525 7.53013C32.0497 7.51703 32.0437 7.5048 32.0352 7.49448C32.0266 7.48416 32.0157 7.47606 32.0034 7.47085C31.991 7.46564 31.9776 7.46349 31.9643 7.46457C31.8726 7.47208 31.7727 7.53518 31.7156 7.61105C31.5083 7.88749 31.333 8.16569 31.1898 8.44564C31.1778 8.46867 31.1642 8.46968 31.1492 8.44864C30.3925 7.39095 29.6806 6.30947 29.0135 5.2042C28.998 5.17866 28.9827 5.17866 28.9677 5.2042L28.8265 5.44759ZM39.7918 14.6461C39.0827 14.5093 38.3748 14.4778 37.6681 14.5514C37.6148 14.5574 37.5464 14.5349 37.4924 14.5356C37.4368 14.5366 37.4353 14.5456 37.4879 14.5627C37.717 14.6363 37.9416 14.6934 38.1549 14.8106C39.0443 15.2981 39.948 15.8818 40.7398 16.4384C40.7944 16.477 40.8547 16.5045 40.9208 16.5211C40.9489 16.5281 40.9739 16.5218 40.996 16.5023C41.0771 16.4292 41.152 16.3495 41.2206 16.2634C41.8253 15.5092 42.2001 14.755 42.1483 13.7611C42.0882 12.6035 41.2927 11.7524 40.2004 11.3956C39.7097 11.2354 39.2812 11.183 38.9151 11.2386C37.6912 11.4239 36.8245 12.0807 36.3152 13.209C36.3042 13.234 36.3092 13.2381 36.3302 13.221C36.8666 12.7823 37.705 12.6035 38.3893 12.6103C38.9943 12.6163 39.5744 12.6897 40.1298 12.8304C40.2435 12.8589 40.2418 12.8752 40.1246 12.8792C39.6072 12.8978 39.123 13.0024 38.6717 13.1932C38.1256 13.4239 37.593 13.7048 37.125 14.0999C37.0905 14.129 37.0957 14.1433 37.1408 14.1428C38.0588 14.133 38.9519 14.2329 39.7985 14.6235C39.8571 14.6506 39.8549 14.6581 39.7918 14.6461ZM18.0558 14.6686C18.0528 14.6616 18.0523 14.6551 18.0543 14.6491C18.0573 14.6405 18.063 14.6345 18.0715 14.631C18.4106 14.4998 18.7228 14.3929 19.0083 14.3103C19.5577 14.151 20.1514 14.0944 20.7894 14.1405C20.8229 14.143 20.8267 14.1337 20.8007 14.1127C20.5688 13.9239 20.3279 13.7614 20.078 13.6252C19.4628 13.2916 18.8025 12.9521 18.1189 12.877C17.7993 12.8414 17.7978 12.7956 18.1144 12.7395C18.4514 12.6794 18.8025 12.6378 19.1675 12.6148C19.6608 12.5833 20.1724 12.6434 20.7022 12.7951C21.0288 12.8887 21.3272 13.066 21.5977 13.3269C21.5989 13.3281 21.6004 13.3287 21.602 13.3288C21.6036 13.3289 21.6052 13.3284 21.6065 13.3274C21.6078 13.3263 21.6086 13.3249 21.609 13.3233C21.6093 13.3217 21.609 13.3201 21.6082 13.3187C21.4705 13.0773 21.3333 12.8419 21.1965 12.6126C20.9171 12.1431 20.4701 11.7983 19.9916 11.5458C19.1615 11.1079 18.1452 11.153 17.3316 11.5571C16.4211 12.0093 15.9314 12.7538 15.8623 13.7904C15.8087 14.5882 16.0398 15.3379 16.5556 16.0395C16.6886 16.2198 16.805 16.4009 16.9785 16.5466C16.9913 16.5574 17.0072 16.5641 17.024 16.5657C17.0407 16.5673 17.0576 16.5638 17.0724 16.5556C17.1731 16.499 17.2582 16.4432 17.3278 16.3881C18.0663 15.8022 18.8791 15.3357 19.6731 14.8263C19.8293 14.7262 20.0717 14.6566 20.4003 14.6175C20.4038 14.617 20.4055 14.6153 20.4055 14.6123L20.404 14.592C20.4037 14.5862 20.4012 14.5808 20.3972 14.5767C20.3932 14.5727 20.3878 14.5704 20.3822 14.5702C19.7748 14.5497 19.2329 14.5487 18.7566 14.5672C18.5628 14.5752 18.3335 14.611 18.0685 14.6746C18.0625 14.6756 18.0583 14.6736 18.0558 14.6686Z" fill="#FEFEFE"/>
<path d="M31.7556 9.31554C31.7205 9.33257 31.6847 9.39642 31.6482 9.5071C31.3777 10.3314 31.1609 11.0278 30.9976 11.5962C30.9966 11.5992 30.9065 11.8806 30.7272 12.4405C30.5689 12.9373 30.4755 13.4524 30.447 13.9858L29.1662 14.8624C29.1121 14.8759 29.069 14.8774 29.037 14.8669C29.009 14.8579 28.9894 14.8266 28.9784 14.773C28.9614 14.6934 28.9529 14.625 28.9529 14.5679C28.9431 11.7179 28.9701 8.6928 28.8958 5.7586C28.8943 5.71002 28.8712 5.60636 28.8267 5.4476L28.9679 5.20421C28.9829 5.17867 28.9982 5.17867 29.0137 5.20421C29.6808 6.30948 30.3927 7.39096 31.1494 8.44865C31.1644 8.46969 31.1779 8.46869 31.1899 8.44565C31.3332 8.1657 31.5085 7.88751 31.7158 7.61107C31.7729 7.53519 31.8728 7.47209 31.9644 7.46458C31.9778 7.4635 31.9912 7.46565 32.0036 7.47086C32.0159 7.47607 32.0268 7.48417 32.0354 7.49449C32.0439 7.50481 32.0499 7.51704 32.0527 7.53014C32.0555 7.54324 32.0551 7.55683 32.0516 7.56975C31.8998 8.12514 31.8012 8.70707 31.7556 9.31554Z" fill="#11151D"/>
<path d="M28.8266 5.44775C28.8712 5.60651 28.8942 5.71017 28.8957 5.75875C28.9701 8.69295 28.9431 11.718 28.9528 14.5681C28.9528 14.6252 28.9613 14.6935 28.9784 14.7732C28.9894 14.8268 29.0089 14.8581 29.037 14.8671C29.069 14.8776 29.1121 14.8761 29.1662 14.8626L29.3465 14.8596C29.374 14.8596 29.3858 14.8731 29.3818 14.9001C29.1669 16.4281 29.1023 17.8779 28.9964 19.3044C28.9966 19.3051 28.9965 19.3058 28.9962 19.3064C28.9958 19.3069 28.9952 19.3072 28.9945 19.3072C28.9938 19.3072 28.9931 19.3069 28.9924 19.3064C28.9918 19.3058 28.9913 19.3051 28.9911 19.3044C28.8687 17.8486 28.8229 16.4469 28.6103 14.9084C28.6069 14.8847 28.6125 14.8606 28.6261 14.8408C28.6301 14.8353 28.6338 14.83 28.6373 14.825C28.6538 14.8 28.6503 14.7782 28.6268 14.7597L27.633 13.9972C27.5348 13.3837 27.4184 12.8661 27.2837 12.4444C26.9336 11.3507 26.6043 10.316 26.2958 9.34048C26.2147 8.68593 26.1038 8.08472 25.963 7.53685C25.9597 7.52425 25.9596 7.51105 25.9626 7.49838C25.9657 7.48572 25.9718 7.47398 25.9805 7.46419C25.9891 7.45441 26.0001 7.44687 26.0124 7.44225C26.0247 7.43763 26.0379 7.43607 26.0509 7.43769C26.2327 7.46072 26.3692 7.56965 26.4603 7.76446C26.5625 7.98281 26.6629 8.21193 26.7616 8.45181C26.7647 8.45912 26.7697 8.46545 26.7761 8.47014C26.7826 8.47483 26.7901 8.47771 26.798 8.47848C26.8059 8.47925 26.8139 8.47788 26.8211 8.47451C26.8283 8.47113 26.8345 8.46589 26.8389 8.45932L28.8266 5.44775Z" fill="#333841"/>
<path d="M37.1528 10.5875C37.0626 10.5319 36.9549 10.5111 36.8297 10.5252C36.68 10.5417 36.5345 10.575 36.3933 10.6251C36.2385 10.6792 36.1341 10.8482 35.9771 10.9256C35.3206 11.2501 34.7023 11.6117 34.1224 12.0103C34.0212 12.0799 33.8607 12.2224 33.6409 12.4377C33.5277 12.5489 33.4203 12.6879 33.3186 12.8546C33.228 13.0044 33.1368 13.1549 33.0452 13.3061C32.1362 13.2185 31.2701 13.4451 30.4468 13.986C30.4753 13.4526 30.5687 12.9375 30.727 12.4407C30.9063 11.8808 30.9964 11.5994 30.9974 11.5964C31.1607 11.028 31.3775 10.3316 31.6479 9.50728C31.6845 9.39661 31.7203 9.33276 31.7554 9.31573C32.0268 9.171 32.2872 9.019 32.5366 8.85975C32.9042 8.62437 33.1629 8.47188 33.3126 8.40227C34.3788 7.90948 35.5064 7.80631 36.6953 8.09277C36.7343 8.10229 36.7371 8.11831 36.7035 8.14085C36.2986 8.41504 35.8907 8.6419 35.576 9.02351C35.3982 9.23886 35.2212 9.46171 35.0449 9.69208C35.0158 9.73064 35.0241 9.74266 35.0697 9.72814C35.292 9.65828 35.5024 9.53808 35.724 9.46972C37.28 8.99096 38.7608 9.16323 40.1666 9.98655C40.2838 10.0557 40.2747 10.0837 40.1395 10.0707C39.3858 9.99807 38.6587 10.0557 37.958 10.2435C37.7592 10.297 37.4908 10.4117 37.1528 10.5875Z" fill="#1F232B"/>
<path d="M26.2959 9.34044C26.6044 10.316 26.9337 11.3507 27.2837 12.4444C27.4185 12.8661 27.5349 13.3837 27.633 13.9971C26.7166 13.5532 25.9271 13.2542 24.8964 13.2835C24.628 12.675 24.2198 12.1765 23.672 11.7879C23.0718 11.3619 22.4535 11.0945 21.7767 10.803C21.3004 10.598 20.8121 10.4883 20.3479 10.2982C20.3401 10.2948 20.3311 10.2943 20.3224 10.2967C20.2843 10.3067 20.274 10.3233 20.2916 10.3463C19.3771 10.0148 18.4649 9.9399 17.5549 10.1217C17.4783 10.1367 17.4735 10.1242 17.5407 10.0841C19.2439 9.0665 20.9619 8.93229 22.6946 9.68148C22.7552 9.70753 22.7675 9.69325 22.7315 9.63867C22.5046 9.29386 21.5183 8.05288 21.03 8.31129C21.02 8.3168 21.0125 8.3143 21.0074 8.30378V8.30303C21.0044 8.29702 21.0059 8.29251 21.012 8.28951C21.5042 8.04211 22.0261 7.92668 22.5775 7.9432C23.3572 7.96574 24.0583 8.12299 24.6808 8.41496C25.104 8.61378 25.6424 8.92227 26.2959 9.34044Z" fill="#E38929"/>
<path d="M24.8963 13.2834C24.5688 13.5354 24.2377 13.7752 23.9032 14.0031C23.5374 14.2525 23.2196 14.5395 22.8673 14.7971C22.518 15.054 22.1717 15.3417 21.8599 15.6437C21.6136 15.8821 21.3664 16.2001 21.1185 16.5978C20.8526 17.0224 20.5634 17.5753 20.2509 18.2564C19.9369 18.9395 19.729 19.7405 19.6274 20.6595C19.5004 21.8126 19.5665 23.0716 19.9098 24.1721C20.2666 25.3147 20.9855 26.2935 21.8374 27.1424C22.181 27.4844 22.5648 27.7816 22.989 28.034C22.9932 28.0364 22.998 28.0376 23.0028 28.0374C23.0076 28.0373 23.0123 28.0358 23.0163 28.0331C23.0203 28.0305 23.0236 28.0268 23.0256 28.0225C23.0277 28.0181 23.0285 28.0133 23.0281 28.0085C22.99 27.6845 22.9532 27.3497 22.9176 27.0042C22.8901 26.7412 22.842 26.5487 22.7734 26.4265C22.6923 26.2832 22.5936 26.1418 22.4774 26.002C22.1765 25.642 21.8905 25.2857 21.6196 24.9331C20.8992 23.9933 20.5829 22.7261 20.5363 21.5707C20.5348 21.5362 20.5373 21.5359 20.5438 21.57C20.5769 21.7387 20.6104 21.9045 20.6445 22.0673C20.8135 22.8673 21.2793 23.5914 21.8907 24.1293C22.2373 24.4343 22.5846 24.7308 22.9327 25.0187C23.0779 25.1389 23.1773 25.2857 23.2309 25.4589C23.2389 25.484 23.2524 25.4875 23.2715 25.4694C23.9821 24.8154 24.5783 24.0692 25.0601 23.2309C25.2043 22.9792 25.3493 22.7944 25.302 22.5014C25.2426 22.1394 25.1126 21.7645 24.9579 21.4325C24.9166 21.3446 24.861 21.2792 24.7596 21.2657C24.4696 21.2292 24.1797 21.1808 23.8897 21.1207C23.1813 20.9743 22.826 20.4101 22.5233 19.8031C22.4917 19.7395 22.4386 19.6967 22.364 19.6747C22.1036 19.5976 21.8637 19.4951 21.6443 19.3674C21.5817 19.3309 21.586 19.3068 21.6571 19.2953C22.2288 19.2044 22.7389 18.9047 23.303 18.8115C24.0807 18.6833 24.7238 18.92 25.2321 19.5214C25.3418 19.6521 25.4537 19.8482 25.4627 20.0127C25.4938 20.5821 25.5621 21.1708 25.6678 21.7788C25.7023 21.9794 25.6806 22.2205 25.5619 22.3985C25.4229 22.6089 25.3515 22.847 25.2231 23.0701C24.5538 24.2322 23.8236 25.3297 23.306 26.5805C23.1918 26.8564 23.15 27.1729 23.1806 27.53C23.1826 27.5545 23.1961 27.5668 23.2211 27.5668C24.0154 27.5538 24.7789 27.6554 25.5115 27.8718C25.5982 27.8973 25.5962 27.9094 25.5055 27.9078C24.9131 27.8953 24.3136 27.846 23.7072 27.7599C23.5314 27.7351 23.3488 27.7441 23.1738 27.7223C23.1549 27.7202 23.1359 27.7256 23.121 27.7374C23.1061 27.7493 23.0964 27.7665 23.0942 27.7854C23.0661 28.0303 23.0746 28.2634 23.1197 28.4848C23.125 28.5114 23.1393 28.5354 23.1601 28.5528C23.1808 28.5701 23.2069 28.5798 23.2339 28.5802C24.0592 28.5907 24.9088 28.6846 25.7827 28.8619C25.8613 28.8779 25.8608 28.8917 25.7812 28.9032C25.7021 28.9147 25.6222 28.9197 25.5416 28.9182C24.7754 28.9007 24.0186 28.8383 23.2715 28.7312C23.2309 28.7252 23.2121 28.7427 23.2151 28.7838C23.2351 29.0657 23.2815 29.2843 23.3541 29.4395C23.3701 29.4736 23.3959 29.4964 23.4315 29.5079C23.7374 29.6061 24.0537 29.6652 24.3802 29.6852C25.0824 29.7278 25.7311 29.7493 26.3266 29.7498C26.612 29.7503 26.6153 29.7813 26.3364 29.8429C25.485 30.0312 24.5315 29.9744 23.4758 29.6724C23.4482 29.6649 23.4355 29.6754 23.4375 29.704C23.4585 30.0202 23.6388 30.3327 23.744 30.6234C24.0249 31.4032 24.7258 32.0372 25.6024 31.938C26.0281 31.89 26.4733 31.7528 26.9381 31.5264C27.4048 31.299 27.8916 31.0446 28.3984 30.7632C28.5091 30.7016 28.5835 30.6217 28.6215 30.5235C28.7026 30.3124 28.8566 29.5027 28.6125 29.3239C28.281 29.081 27.9692 28.7625 27.6773 28.3683C27.4008 27.9957 27.1454 27.9402 26.721 27.8282C26.3173 27.7221 26.0036 27.4954 25.7797 27.1484C25.64 26.9313 25.4071 26.5159 25.4131 26.2469C25.4156 26.1157 25.4675 26.0919 25.5686 26.1756C25.7419 26.3188 25.929 26.4846 26.1298 26.6729C26.1368 26.6793 26.145 26.6843 26.1539 26.6876C26.1628 26.6908 26.1723 26.6923 26.1818 26.6919C26.1913 26.6914 26.2006 26.6891 26.2092 26.6851C26.2178 26.6811 26.2255 26.6754 26.2319 26.6684C26.5377 26.3326 26.9366 26.3025 27.3723 26.4115C27.7501 26.5061 28.137 26.6075 28.5381 26.6346C29.1872 26.6771 29.8227 26.6065 30.4447 26.4227C30.8623 26.2995 31.3544 26.3123 31.6661 26.6473C31.6854 26.6682 31.7121 26.6807 31.7406 26.6821C31.7691 26.6835 31.7971 26.6737 31.8186 26.6548C32.0074 26.4881 32.196 26.3318 32.3843 26.1861C32.4163 26.1611 32.4541 26.1543 32.4977 26.1658C32.5096 26.169 32.5199 26.1762 32.5268 26.1862C32.5337 26.1961 32.5367 26.2081 32.5353 26.2199C32.4356 26.9971 32.0435 27.5192 31.3589 27.7862C31.093 27.8898 30.7684 27.9011 30.5326 28.0611C30.2907 28.2256 30.0811 28.5486 29.9038 28.7792C29.7588 28.967 29.5725 29.0955 29.4043 29.2593C29.1226 29.535 29.2157 30.1111 29.2833 30.486C29.3034 30.5956 29.3642 30.682 29.4659 30.7451C29.9797 31.0621 30.5115 31.3213 31.0629 31.5655C31.9861 31.9741 33.0626 32.228 33.798 31.2935C33.9518 31.0977 34.0515 30.9384 34.097 30.8158C34.1902 30.5638 34.2896 30.3225 34.3953 30.0916C34.4173 30.043 34.4448 30.0052 34.4779 29.9782C34.4984 29.9611 34.5062 29.9398 34.5012 29.9143L34.4809 29.8151C34.4664 29.741 34.4223 29.712 34.3487 29.728C33.2985 29.9579 32.3973 30.0057 31.6451 29.8715C31.3817 29.8249 31.3837 29.7946 31.6511 29.7806C32.2531 29.75 32.8455 29.7197 33.4285 29.6897C33.7224 29.6747 34.0399 29.6253 34.381 29.5417C34.5227 29.5067 34.6149 29.4195 34.6574 29.2803C34.6985 29.1461 34.7258 28.9963 34.7393 28.8311C34.7448 28.759 34.712 28.7287 34.6409 28.7402C33.9167 28.8609 33.1057 28.9137 32.2078 28.8987C32.2037 28.8987 32.2012 28.8969 32.2002 28.8934C32.1977 28.8859 32.1987 28.8797 32.2032 28.8746C32.2083 28.8691 32.2145 28.8656 32.222 28.8641C32.4061 28.8243 32.5849 28.777 32.7689 28.7537C33.4575 28.6676 34.1408 28.5822 34.8189 28.4975C34.85 28.4935 34.8675 28.476 34.8715 28.445C34.9001 28.2066 34.9018 27.9524 34.8768 27.6825C34.8738 27.6509 34.8575 27.6412 34.8279 27.6532C34.7678 27.6787 34.7057 27.6973 34.6416 27.7088C33.9786 27.83 33.289 27.9056 32.5728 27.9356C32.5203 27.9376 32.5137 27.9214 32.5533 27.8868C32.5603 27.8803 32.5834 27.8723 32.6224 27.8628C33.3326 27.688 34.0507 27.5698 34.7769 27.5082C34.8024 27.5062 34.8157 27.4922 34.8167 27.4661C34.8242 27.2478 34.7929 27.046 34.7228 26.8607C34.3374 25.8428 33.7883 24.861 33.1821 23.9227C32.8701 23.4395 32.5949 22.9306 32.3565 22.3963C32.2543 22.1674 32.2305 21.9431 32.2851 21.7232C32.4083 21.2234 32.4704 20.7048 32.4714 20.1675C32.4722 19.6011 32.7727 19.4035 33.1881 19.1263C33.4009 18.9841 33.5812 18.8884 33.7289 18.8393C34.2082 18.6801 34.858 18.8138 35.3613 19.0211C35.6543 19.1421 35.9623 19.2412 36.2642 19.3336C36.3123 19.3482 36.3141 19.3669 36.2695 19.39C36.0111 19.5237 35.631 19.6371 35.4522 19.8617C35.199 20.1802 34.9879 20.5866 34.6604 20.8248C34.224 21.141 33.7214 21.2252 33.1836 21.2409C33.152 21.2419 33.1257 21.2542 33.1047 21.2777C32.8478 21.5662 32.7231 22.0425 32.6382 22.4263C32.5881 22.6527 32.6289 22.8796 32.7606 23.1069C33.0646 23.6323 33.3997 24.1238 33.7657 24.5815C34.0279 24.9091 34.387 25.1742 34.6514 25.5078C34.6855 25.5508 34.698 25.5453 34.689 25.4912C34.6604 25.3139 34.9481 25.0398 35.0578 24.9474C35.4094 24.6534 35.7457 24.3644 36.0667 24.0805C36.7032 23.5181 37.1274 22.837 37.3392 22.0372C37.3527 21.9851 37.3575 21.9859 37.3535 22.0395C37.2714 23.1262 36.91 24.111 36.2695 24.9939C36.0171 25.342 35.7467 25.6888 35.4582 26.0344C35.2569 26.2757 35.1344 26.5442 35.0909 26.8396C35.0373 27.2022 35.0055 27.564 34.9955 27.9251C34.9954 27.9272 34.9959 27.9292 34.9969 27.9311C34.9979 27.9329 34.9992 27.9345 35.0009 27.9357C35.0026 27.9369 35.0046 27.9376 35.0067 27.9379C35.0087 27.9381 35.0108 27.9379 35.0127 27.9371C35.2261 27.85 35.4161 27.7391 35.5829 27.6044C36.1809 27.1221 36.7047 26.57 37.1544 25.948C37.8162 25.0322 38.2001 23.9903 38.3143 22.9056C38.4951 21.1843 38.2429 19.5745 37.5578 18.0761C37.2468 17.397 36.9065 16.7412 36.4596 16.1523C36.1926 15.8007 35.8548 15.4502 35.4462 15.1006C34.8943 14.6284 34.4651 14.2926 34.1586 14.0932C33.6493 13.7627 33.2782 13.5003 33.0453 13.306C33.137 13.1547 33.2281 13.0043 33.3188 12.8545C33.4204 12.6877 33.5279 12.5488 33.641 12.4376C33.8609 12.2223 34.0214 12.0798 34.1226 12.0102C34.7025 11.6115 35.3207 11.2499 35.9773 10.9254C36.1343 10.8481 36.2387 10.679 36.3934 10.6249C36.5347 10.5749 36.6802 10.5416 36.8299 10.525C36.9551 10.511 37.0628 10.5318 37.1529 10.5874C36.5605 10.9304 36.0326 11.3529 35.5694 11.8547C35.0758 12.3895 34.6356 12.9514 34.4553 13.6733C34.4538 13.6797 34.454 13.6864 34.4559 13.6926C34.4578 13.6989 34.4614 13.7046 34.4662 13.709C34.471 13.7135 34.477 13.7165 34.4834 13.7179C34.4898 13.7193 34.4964 13.7189 34.5027 13.7169C34.685 13.6548 34.8585 13.6428 35.0233 13.6808C35.0438 13.6858 35.0618 13.6956 35.0773 13.7101C35.0954 13.7277 35.1004 13.7407 35.0924 13.7492C35.0839 13.7592 35.0731 13.7647 35.0601 13.7657C34.8758 13.7752 34.6865 13.8128 34.4922 13.8784C34.4794 13.8827 34.4679 13.8899 34.4584 13.8994C34.4489 13.9089 34.4417 13.9204 34.4374 13.9331C34.4331 13.9459 34.4318 13.9594 34.4336 13.9727C34.4354 13.986 34.4403 13.9987 34.4478 14.0099C34.5936 14.2255 34.7686 14.4095 34.9677 14.571C35.2992 14.8394 35.6237 15.1359 35.9412 15.4604C36.0193 15.5401 36.102 15.5821 36.2177 15.5664C36.5908 15.5153 36.9408 15.5381 37.2678 15.6347C38.1798 15.9046 39.0434 16.3331 39.8587 16.92C40.2569 17.207 40.652 17.4967 41.0441 17.7892L41.0779 17.8906C41.0782 17.8918 41.0789 17.893 41.0799 17.8938C41.0809 17.8946 41.0821 17.8952 41.0834 17.8953C41.0848 17.8955 41.0862 17.8953 41.0875 17.8947C41.0887 17.8941 41.0899 17.8932 41.0907 17.8921C41.0942 17.8861 41.0952 17.8796 41.0937 17.8725C41.0857 17.8385 41.0937 17.8342 41.1178 17.8598C41.1253 17.8678 41.1313 17.8768 41.1358 17.8868C41.1463 17.9114 41.1385 17.9261 41.1125 17.9311C41.098 17.9336 41.087 17.9414 41.0794 17.9544C41.0694 17.9709 41.0739 17.9805 41.093 17.983C41.1005 17.984 41.1045 17.9885 41.105 17.9965C41.1055 18.007 41.105 18.0175 41.1035 18.028C41.101 18.0446 41.091 18.0546 41.0734 18.0581C40.7359 17.8763 40.3989 17.6923 40.0623 17.506C39.4063 17.1439 38.7182 16.8569 37.998 16.6451C37.972 16.6376 37.9657 16.6456 37.9792 16.6691C38.0188 16.7372 38.0837 16.7998 38.1738 16.8569C38.1112 17.0372 38.123 17.241 38.2091 17.4684C38.4244 18.0358 38.6551 18.7054 38.901 19.4771C38.958 19.6569 38.9916 19.8342 39.0016 20.009C39.0121 20.1948 39.0462 20.375 39.1038 20.5498C39.1724 20.7572 39.2295 20.979 39.2751 21.2154C39.3241 21.4678 39.3802 21.7207 39.4433 21.9741C39.5583 22.4338 39.6431 22.9116 39.722 23.3834C39.7791 23.7224 39.7954 24.1175 39.7709 24.5688C39.7483 24.9767 39.6108 25.362 39.5019 25.7466C39.4889 25.7935 39.4893 25.8431 39.5031 25.8897C39.5169 25.9363 39.5436 25.9781 39.58 26.0103C39.7148 26.129 39.8467 26.2382 39.9759 26.3378C41.3228 27.3745 42.4729 28.768 42.9845 30.3778C43.1958 31.0444 43.3416 31.621 43.4217 32.1078C43.5369 32.8059 43.5549 33.6601 43.4758 34.6702C43.4658 34.7969 43.4375 34.9208 43.3909 35.042C43.3483 35.1522 43.312 35.2649 43.282 35.3801C43.2768 35.4005 43.2663 35.4192 43.2517 35.4344C43.2371 35.4496 43.2188 35.4608 43.1986 35.4668C43.1783 35.4727 43.1569 35.4734 43.1364 35.4686C43.1158 35.4638 43.0969 35.4537 43.0814 35.4394L43.0649 35.4236C43.0669 35.2514 43.0604 35.1194 43.0453 35.0277C42.9487 34.4528 42.856 33.9087 42.7674 33.3954C42.7544 33.3198 42.7451 33.3203 42.7396 33.3969C42.6575 34.4541 42.4559 35.5048 42.1349 36.5489C41.9671 37.0948 41.7245 37.6492 41.407 38.2121C41.1185 38.7244 40.7149 39.1974 40.196 39.6311C40.1595 39.6622 40.1457 39.6541 40.1547 39.6071C40.311 38.8353 40.3751 38.0125 40.347 37.1386C40.3147 36.1538 40.1164 35.1359 39.6056 34.3036C39.2746 33.7642 38.8146 33.2764 38.2256 32.8402C36.9967 31.9298 35.673 31.2527 34.2548 30.809C34.2513 30.808 34.249 30.809 34.248 30.812L34.2255 30.8631C34.224 30.8661 34.2247 30.8683 34.2277 30.8698C34.5172 31.0351 34.7909 31.1871 35.0488 31.3258C35.3393 31.4816 35.5984 31.6393 35.8263 31.7991C36.6536 32.3795 37.4016 33.0393 38.0701 33.7785C39.2413 35.0721 39.4486 36.7382 38.9303 38.3541C38.4615 39.8152 37.6652 41.1771 36.4828 42.1732C36.3386 42.2949 36.1906 42.4008 36.0389 42.4909C35.8501 42.6031 35.7992 42.5585 35.8864 42.3572C36.1253 41.8023 36.2978 41.1468 36.404 40.3906C36.5517 39.3394 36.6003 38.3062 36.5497 37.2911C36.5492 37.2786 36.5424 37.2723 36.5294 37.2723H36.5099C36.5064 37.2723 36.5046 37.2738 36.5046 37.2768C36.4896 37.6875 36.4673 38.0336 36.4378 38.315C36.2883 39.7303 35.7512 41.1823 34.849 42.3129C33.8739 43.5336 32.5465 44.7866 31.0254 45.2486C31.0179 45.2509 31.0099 45.251 31.0024 45.2488C30.9949 45.2467 30.9881 45.2425 30.983 45.2366C30.9778 45.2307 30.9745 45.2235 30.9733 45.2157C30.9722 45.208 30.9733 45.2001 30.9765 45.193C31.1543 44.7939 31.3311 44.3977 31.5069 44.0046C32.2123 42.4248 32.533 40.7421 32.1875 39.0271C32.0893 38.5379 31.9927 38.0884 31.8975 37.6787C31.8825 37.6126 31.8589 37.5468 31.8269 37.4812C31.8239 37.4752 31.8226 37.4754 31.8231 37.4819C31.8442 37.7458 31.8629 38.0108 31.8795 38.2767C32.0643 41.2469 30.8308 44.1601 29.0369 46.5429C29.0334 46.5475 29.0288 46.5512 29.0236 46.5536C29.0184 46.5561 29.0127 46.5573 29.0069 46.5572C29.0011 46.5571 28.9954 46.5555 28.9903 46.5528C28.9853 46.5501 28.9809 46.5462 28.9776 46.5414L28.8371 46.3371C28.8516 46.2995 28.8657 46.2592 28.8792 46.2161C28.8897 46.1841 28.8932 46.1425 28.8897 46.0914C28.8872 46.0549 28.8899 46.0191 28.898 45.984C28.9045 45.9535 28.9065 45.9204 28.904 45.8849C28.8965 45.7842 28.8792 45.6895 28.8799 45.5896C28.9135 43.0671 28.928 40.6259 28.9235 38.2662C28.9235 37.9742 28.7372 37.4504 28.3774 37.56C28.3098 37.5936 28.2361 37.6046 28.1565 37.5931C28.1325 37.5891 28.1102 37.5941 28.0897 37.6081L27.4632 38.0393C27.4568 38.0437 27.4518 38.0497 27.4489 38.0566C27.4369 38.0841 27.4151 38.0987 27.3835 38.1002C27.2926 38.1032 27.2002 38.161 27.1431 38.2256C27.1351 38.2348 27.1253 38.2422 27.1143 38.2472C27.1033 38.2523 27.0913 38.2549 27.0793 38.2549C26.8835 38.2549 26.7508 38.3468 26.6812 38.5306C26.6767 38.5431 26.6676 38.5494 26.6541 38.5494H26.6158C26.6058 38.5494 26.598 38.5539 26.5925 38.5629C26.5885 38.5704 26.587 38.5779 26.588 38.5854C26.5925 38.6105 26.5828 38.6268 26.5587 38.6343C26.4891 38.6558 26.433 38.7016 26.3904 38.7717C26.3694 38.8063 26.3551 38.8446 26.3476 38.8867C26.3401 38.9317 26.3301 38.9766 26.3176 39.0211C26.3091 39.0507 26.2895 39.0677 26.259 39.0722C26.2099 39.0787 26.1711 39.1055 26.1425 39.1526C26.117 39.1932 26.1037 39.1894 26.1027 39.1413C26.0975 38.9041 26.0704 38.6898 26.0426 39.0099C26.0426 39.0174 26.0391 39.0196 26.0321 39.0166C26.0296 39.0151 26.0291 39.0131 26.0306 39.0106C26.0321 39.0086 26.0334 39.0059 26.0344 39.0023C26.0534 38.9197 26.0454 38.8654 26.0103 38.8393C25.9802 38.4521 26.0331 37.9385 25.9953 37.5255C25.9672 37.2182 25.9037 36.9567 25.64 36.8967C25.4845 36.8524 25.4049 36.7255 25.2621 36.6601C25.2076 36.6351 25.161 36.5975 25.1224 36.5474C25.1029 36.5219 25.0778 36.5041 25.0473 36.4941C24.9441 36.4615 24.8545 36.4009 24.7784 36.3123C24.7623 36.2933 24.7438 36.2767 24.7228 36.2627L24.4411 36.0712C24.419 36.0561 24.3948 36.0486 24.3682 36.0486C24.2706 36.0471 24.1877 36.0156 24.1196 35.954C24.066 35.9054 24.0046 35.8708 23.9355 35.8503C23.8334 35.8193 23.7299 35.7947 23.6253 35.7767C23.6153 35.7752 23.6052 35.7767 23.5952 35.7812C23.5877 35.7847 23.5799 35.7882 23.5719 35.7917C23.5574 35.7977 23.5424 35.8002 23.5269 35.7992C23.3806 35.7872 23.2439 35.7935 23.1167 35.818C23.0211 35.836 22.9151 35.8631 22.7989 35.8991C22.7919 35.9011 22.7914 35.8999 22.7974 35.8954C22.7994 35.8939 22.8012 35.8921 22.8027 35.8901C22.8077 35.8836 22.8142 35.8794 22.8222 35.8773C22.8613 35.8683 22.8981 35.8531 22.9327 35.8315C22.9667 35.8105 22.964 35.8017 22.9244 35.8052C22.8012 35.8158 22.662 35.8155 22.5067 35.8045C22.3815 35.7955 22.2854 35.8205 22.2183 35.8796C22.1446 35.9442 22.0693 36.0061 21.9922 36.0652C21.9726 36.0804 21.9579 36.1007 21.9501 36.1237C21.9245 36.1929 21.8509 36.2169 21.8051 36.2777C21.7075 36.4069 21.6291 36.5469 21.57 36.6977C21.561 36.7202 21.6193 36.7588 21.6008 36.7743C21.5522 36.8144 21.556 36.8539 21.57 36.9245C21.596 37.0542 21.5114 37.1827 21.5024 37.3174C21.4975 37.395 21.5215 37.4141 21.4565 37.5578C21.3694 38.2935 21.3749 39.1215 21.4731 40.042C21.5637 40.8924 21.7726 41.7047 22.0996 42.4789C22.1042 42.4898 22.1058 42.5017 22.1041 42.5134C22.1024 42.5251 22.0975 42.5361 22.0899 42.5452C22.0823 42.5544 22.0723 42.5613 22.0611 42.5652C22.0498 42.5692 22.0377 42.57 22.026 42.5676C21.8717 42.535 21.741 42.4764 21.6338 42.3918C21.3985 42.206 21.1601 41.9921 20.9187 41.7502L21.1996 41.8133C21.2268 41.8194 21.2553 41.8146 21.279 41.7998C21.3027 41.7851 21.3198 41.7617 21.3266 41.7345C21.3742 41.5457 21.3662 41.3614 21.3026 41.1816C21.2715 41.0919 21.2552 40.995 21.2537 40.8909C21.2507 40.667 21.1974 40.4417 21.1703 40.2178C21.1388 39.9584 21.114 39.6905 21.096 39.414C21.0669 38.9748 21.0644 38.471 21.0885 37.9026C21.0982 37.6622 21.1914 37.4504 21.2267 37.2152C21.4791 35.5521 21.9403 34.0364 22.6104 32.6682C22.7 32.4849 22.9309 32.068 23.303 31.4175C23.316 31.3949 23.3205 31.3711 23.3165 31.3461L23.285 31.1478L23.6703 30.8991C23.6919 30.8851 23.6901 30.8753 23.6651 30.8698C23.59 30.8528 23.5209 30.8548 23.4578 30.8758C22.5889 31.1683 21.7395 31.5589 20.9097 32.0477C20.8896 32.0277 20.8676 32.0272 20.8436 32.0462C20.8255 32.0607 20.8128 32.0572 20.8053 32.0357L20.474 31.1185C21.3739 30.6204 22.3107 30.2974 23.2947 30.0127C23.3033 30.0102 23.31 30.0055 23.315 29.9984C23.32 29.9914 23.3175 29.9837 23.3075 29.9752C23.2965 29.9656 23.2835 29.9614 23.2684 29.9624C23.1688 29.9694 23.0634 29.9837 22.9522 30.0052C22.237 30.1457 21.606 30.4289 20.9405 30.7421C20.8734 30.7126 20.8305 30.6562 20.812 30.5731C20.8061 30.547 20.7937 30.5225 20.776 30.5017C20.6863 30.3971 20.6247 30.2821 20.5912 30.1569C20.5843 30.1319 20.5708 30.1093 20.5521 30.0916C20.501 30.043 20.4732 29.9974 20.4687 29.9549L23.1806 29.2525C23.2106 29.2445 23.2146 29.2295 23.1926 29.2074C23.17 29.1849 23.1335 29.1771 23.0829 29.1841C22.0813 29.3284 21.1315 29.5525 20.2336 29.8565C20.0413 29.8179 19.9491 29.6401 19.9571 29.3231C20.9678 28.9841 21.9932 28.7189 23.0333 28.5276C23.0589 28.5226 23.0699 28.5073 23.0664 28.4818L23.0641 28.4615C23.0626 28.448 23.0551 28.4417 23.0416 28.4427C22.7141 28.4677 22.4404 28.5026 22.2205 28.5471C21.5575 28.6823 20.8548 28.8756 20.1126 29.1271C19.9223 28.6888 19.6972 28.3748 19.4373 28.185C19.3096 28.0924 19.2072 28.0118 19.1301 27.9432C19.0264 27.85 18.9358 27.7897 18.8581 27.7621C18.6994 27.7065 18.5246 27.6662 18.3338 27.6412C18.3105 27.6381 18.2868 27.642 18.2657 27.6525C18.2447 27.6629 18.2274 27.6794 18.2159 27.6998C18.0626 27.9717 17.8898 28.2239 17.6975 28.4562C17.3435 28.8829 17.0122 29.2718 16.7037 29.6228C15.345 31.1697 15.0399 33.3326 14.9511 35.332C14.9341 35.7106 14.9484 36.0872 14.994 36.4618C14.9948 36.4692 14.9936 36.4768 14.9903 36.4835C14.987 36.4902 14.9818 36.4959 14.9754 36.4998C14.969 36.5037 14.9616 36.5056 14.9541 36.5054C14.9466 36.5052 14.9393 36.5028 14.9331 36.4986C14.842 36.435 14.7786 36.3744 14.7431 36.3168C14.713 36.0784 14.6782 35.8508 14.6386 35.634C14.5846 35.338 14.5497 35.1106 14.5342 34.9519C14.4058 33.6132 14.4426 32.3865 14.7558 31.0614C15.0691 29.7333 15.773 28.5036 16.7277 27.5488C17.2228 27.053 17.7449 26.5895 18.3105 26.141C18.3781 26.0874 18.4347 26.0261 18.4803 25.957C18.4948 25.9339 18.4978 25.9097 18.4893 25.8841C18.1748 24.9626 18.1129 24.0211 18.3038 23.0596C18.475 22.1967 18.6536 21.3481 18.8394 20.5138C19.0622 19.5132 19.3587 18.4607 19.7288 17.3565C19.7598 17.2638 19.8202 17.1056 19.9098 16.8817C19.9714 16.8176 20.01 16.7485 20.0255 16.6744C20.0305 16.6488 20.0205 16.6391 19.9955 16.6451C19.3179 16.8053 18.6779 17.0565 18.0754 17.3985C17.6913 17.6164 17.3122 17.8222 16.9381 18.016C16.889 18.009 16.8622 18.001 16.8577 17.992C16.8281 17.9344 16.8314 17.8993 16.8675 17.8868C16.9656 17.8272 17.0593 17.7614 17.1484 17.6892C18.0078 16.9936 18.8894 16.4282 19.7934 15.993C20.3658 15.7181 20.9638 15.495 21.5625 15.5664C21.6271 15.5739 21.6927 15.5819 21.7593 15.5904C21.7903 15.5939 21.8171 15.5849 21.8397 15.5633C22.1487 15.2724 22.4604 15.0032 22.7749 14.7558C23.0431 14.5447 23.291 14.2946 23.5254 14.0429C23.5534 14.0129 23.5572 13.9803 23.5366 13.9453C23.4532 13.8048 23.1017 13.7612 22.9507 13.7319C22.8701 13.7164 22.8693 13.6971 22.9484 13.6741C23.0821 13.635 23.2296 13.63 23.3909 13.659C23.4036 13.6614 23.4168 13.6606 23.4291 13.6566C23.4414 13.6526 23.4525 13.6456 23.4614 13.6361C23.4703 13.6267 23.4767 13.6152 23.48 13.6027C23.4833 13.5901 23.4834 13.577 23.4803 13.5644C23.4492 13.4407 23.4044 13.3163 23.3458 13.1911C22.7546 11.9283 21.5324 10.9269 20.2914 10.3462C20.2739 10.3232 20.2842 10.3067 20.3222 10.2967C20.331 10.2942 20.34 10.2948 20.3478 10.2982C20.812 10.4882 21.3003 10.5979 21.7766 10.803C22.4534 11.0944 23.0716 11.3619 23.6718 11.7878C24.2197 12.1764 24.6279 12.675 24.8963 13.2834ZM33.7597 19.9977C33.5309 20.0202 33.3914 19.9106 33.3413 19.6687C33.3338 19.6316 33.3153 19.6251 33.2857 19.6491C33.1272 19.7768 33.0837 19.9631 33.1167 20.1652C33.1422 20.3215 33.1738 20.516 33.324 20.6002C33.5469 20.7254 33.791 20.7369 34.0565 20.6347C34.5573 20.4414 34.7646 20.0731 34.6785 19.5297C34.6739 19.5016 34.6584 19.4824 34.6319 19.4719C34.5327 19.4323 34.4336 19.42 34.3344 19.435C34.3044 19.4395 34.2856 19.4566 34.2781 19.4861C34.241 19.6309 34.1797 19.7498 34.094 19.8429C34.0114 19.9326 33.9 19.9842 33.7597 19.9977ZM23.2467 19.7753C23.2376 19.7798 23.2334 19.7871 23.2339 19.7971C23.2497 20.1585 23.463 20.5318 23.8251 20.6295C24.1008 20.7038 24.5853 20.7008 24.7025 20.3658C24.7666 20.182 24.7794 19.9829 24.7408 19.7686C24.7233 19.6699 24.6922 19.6657 24.6477 19.7558C24.4884 20.0796 24.064 20.051 23.8319 19.8362C23.7662 19.7756 23.7046 19.7107 23.6471 19.6416C23.6278 19.6188 23.6043 19.6001 23.5778 19.5867C23.5514 19.5733 23.5225 19.5654 23.4931 19.5635C23.3438 19.554 23.2672 19.6158 23.2632 19.749C23.2627 19.7611 23.2572 19.7698 23.2467 19.7753ZM34.9564 28.4607C34.9554 28.4667 34.9577 28.4702 34.9632 28.4713C36.094 28.6971 37.1564 28.9756 38.1505 29.3066C38.5161 29.4283 38.8729 29.5795 39.221 29.7603C39.2305 29.7653 39.2377 29.7631 39.2428 29.7536L39.2435 29.7528C39.2465 29.7468 39.245 29.742 39.239 29.7385C38.7823 29.4764 38.321 29.2465 37.8147 29.0775C36.8417 28.753 35.9004 28.5326 34.991 28.4164C34.9839 28.4156 34.9768 28.4175 34.9711 28.4218C34.9654 28.4262 34.9615 28.4325 34.9602 28.4397L34.9564 28.4607ZM40.0375 30.7406C39.3129 30.3786 38.5727 30.0843 37.817 29.858C36.7961 29.5522 35.8616 29.2825 34.8392 29.1714C34.8222 29.1694 34.8119 29.1769 34.8084 29.1939L34.8054 29.2149C34.8039 29.223 34.8072 29.2277 34.8152 29.2292C35.2013 29.3123 35.5844 29.4085 35.9645 29.5177C36.8382 29.7686 37.7336 29.9887 38.5877 30.2636C39.0715 30.4199 39.5515 30.5881 40.0278 30.7684C40.0358 30.7714 40.0415 30.7689 40.045 30.7609C40.049 30.7519 40.0465 30.7451 40.0375 30.7406ZM39.2668 32.213C39.2307 32.1734 39.1929 32.1369 39.1534 32.1033C38.5637 31.6015 37.8936 31.1598 37.2363 30.8082C36.396 30.3575 35.4955 30.0713 34.535 29.9496C34.534 29.9496 34.5332 29.9501 34.5327 29.9511L34.529 29.9729C34.5275 29.9809 34.5307 29.9859 34.5387 29.9879C35.5964 30.2373 36.564 30.5769 37.5315 31.1185C38.2264 31.5069 38.8679 31.8892 39.4463 32.4151C39.4543 32.4226 39.4621 32.4223 39.4696 32.4143L39.4831 32.3985C39.4836 32.3981 39.4839 32.3975 39.4841 32.3969C39.4843 32.3963 39.4844 32.3956 39.4843 32.395C39.4842 32.3943 39.484 32.3937 39.4837 32.3932C39.4834 32.3926 39.4829 32.3921 39.4824 32.3918C39.4018 32.3427 39.3299 32.2831 39.2668 32.213ZM32.2521 34.2901C32.53 34.589 32.7323 34.9664 32.859 35.4221C32.8746 35.4777 32.8961 35.4802 32.9236 35.4296C33.1896 34.9496 33.4608 34.236 33.291 33.7049C33.1748 33.3398 33.0536 32.9452 32.9274 32.521C32.9244 32.5107 32.919 32.5012 32.9115 32.4935C32.9041 32.4857 32.8949 32.4798 32.8848 32.4764C32.8746 32.4729 32.8637 32.4719 32.8531 32.4735C32.8425 32.4752 32.8324 32.4793 32.8237 32.4857C32.7621 32.53 32.7058 32.5638 32.6277 32.5683C31.9426 32.6066 31.3454 32.364 30.7301 32.0755C29.9824 31.7265 29.1576 31.618 28.2557 31.7502C27.2731 31.8945 26.0779 32.856 25.1179 32.4819C25.1096 32.4786 25.1007 32.4771 25.0918 32.4775C25.0829 32.4779 25.0741 32.4801 25.0661 32.4841C25.0581 32.4881 25.051 32.4937 25.0453 32.5005C25.0396 32.5074 25.0354 32.5154 25.033 32.524C24.9511 32.8042 24.8858 33.0724 24.7799 33.3796C24.6807 33.6661 24.6324 33.911 24.6349 34.1143C24.6409 34.542 24.8082 35.0162 25.1367 35.5371C25.1582 35.5711 25.173 35.5684 25.181 35.5288C25.2561 35.1527 25.345 34.8855 25.4477 34.7273C25.5363 34.591 25.631 34.4536 25.7316 34.3149C25.7757 34.2538 25.7867 34.2595 25.7647 34.3321C25.7266 34.4578 25.7174 34.59 25.7369 34.7288C25.8195 35.3094 26.0779 35.6512 26.4273 36.0832C26.4748 36.1418 26.4896 36.1345 26.4716 36.0614C26.4015 35.7704 26.3586 35.484 26.3431 35.202C26.3341 35.0378 26.3639 35.0302 26.4325 35.1795C26.6977 35.7579 26.9508 36.2913 27.4218 36.6849C27.4744 36.729 27.4877 36.7192 27.4617 36.6556C27.3249 36.3281 27.2979 35.9943 27.3805 35.6542C27.4361 35.4251 27.5969 35.2088 27.7298 35.0067C27.7709 34.9441 27.7927 34.9501 27.7952 35.0247C27.8185 35.6993 28.0859 36.2477 28.4487 36.8487C28.5995 37.0981 28.7642 37.3419 28.943 37.5803C28.9458 37.5839 28.9493 37.5868 28.9533 37.5888C28.9574 37.5908 28.9618 37.5918 28.9663 37.5918C28.9708 37.5918 28.9753 37.5908 28.9793 37.5888C28.9833 37.5868 28.9869 37.5839 28.9896 37.5803C29.3261 37.1371 29.6386 36.6496 29.879 36.1711C30.0558 35.8185 30.1505 35.4404 30.163 35.0368C30.166 34.9371 30.1983 34.9266 30.2599 35.0052C30.3726 35.1489 30.4702 35.2997 30.5529 35.4574C30.6956 35.7286 30.7061 36.3288 30.5927 36.5917C30.5306 36.7365 30.5564 36.7543 30.67 36.6451C30.9074 36.4197 31.0885 36.1876 31.2402 35.8773C31.3879 35.5769 31.5319 35.2731 31.6721 34.9661C31.6977 34.9101 31.7205 34.9111 31.7405 34.9691C31.8502 35.2907 31.8454 35.6232 31.7262 35.9667C31.7137 36.0028 31.7215 36.0078 31.7495 35.9818C32.0695 35.6833 32.2503 35.365 32.2919 35.027C32.3164 34.8257 32.2939 34.5853 32.2243 34.3058C32.2138 34.2643 32.223 34.259 32.2521 34.2901Z" fill="#11151D"/>
<path d="M39.7986 14.6237C38.952 14.2331 38.0588 14.1331 37.1408 14.1429C37.0957 14.1434 37.0905 14.1291 37.125 14.1001C37.593 13.705 38.1256 13.424 38.6718 13.1934C39.123 13.0026 39.6073 12.8979 40.1246 12.8794C40.2418 12.8754 40.2435 12.8591 40.1299 12.8306C39.5745 12.6898 38.9943 12.6165 38.3893 12.6105C37.705 12.6037 36.8666 12.7825 36.3303 13.2212C36.3092 13.2382 36.3042 13.2342 36.3153 13.2092C36.8246 12.0809 37.6912 11.4241 38.9152 11.2388C39.2812 11.1832 39.7097 11.2355 40.2005 11.3958C41.2927 11.7526 42.0882 12.6037 42.1483 13.7613C42.2002 14.7551 41.8253 15.5093 41.2206 16.2635C41.152 16.3497 41.0771 16.4293 40.996 16.5024C40.974 16.522 40.9489 16.5282 40.9209 16.5212C40.8548 16.5047 40.7944 16.4771 40.7398 16.4386C39.9481 15.8819 39.0444 15.2983 38.1549 14.8107C37.9416 14.6935 37.717 14.6364 37.4879 14.5628C37.4353 14.5458 37.4368 14.5368 37.4924 14.5358C37.5465 14.535 37.6148 14.5576 37.6682 14.5516C38.3748 14.4779 39.0827 14.5095 39.7918 14.6462C39.8549 14.6582 39.8572 14.6507 39.7986 14.6237Z" fill="#11151D"/>
<path d="M18.0683 14.6746C18.3333 14.611 18.5626 14.5752 18.7564 14.5672C19.2327 14.5487 19.7746 14.5497 20.382 14.5702C20.3876 14.5704 20.393 14.5727 20.397 14.5767C20.401 14.5808 20.4035 14.5862 20.4038 14.592L20.4053 14.6123C20.4053 14.6153 20.4036 14.617 20.4001 14.6175C20.0715 14.6566 19.8292 14.7262 19.6729 14.8264C18.8789 15.3357 18.0661 15.8022 17.3277 16.3881C17.258 16.4432 17.1729 16.499 17.0722 16.5556C17.0574 16.5638 17.0405 16.5673 17.0238 16.5657C17.007 16.5641 16.9911 16.5575 16.9783 16.5466C16.8048 16.4009 16.6884 16.2198 16.5554 16.0395C16.0396 15.3379 15.8085 14.5882 15.8621 13.7904C15.9312 12.7538 16.421 12.0093 17.3314 11.5571C18.145 11.153 19.1613 11.1079 19.9914 11.5459C20.4699 11.7983 20.9169 12.1431 21.1963 12.6126C21.3331 12.8419 21.4703 13.0773 21.608 13.3187C21.6088 13.3201 21.6091 13.3218 21.6088 13.3233C21.6085 13.3249 21.6076 13.3264 21.6063 13.3274C21.605 13.3284 21.6034 13.3289 21.6018 13.3288C21.6002 13.3287 21.5987 13.3281 21.5975 13.327C21.327 13.066 21.0286 12.8888 20.7021 12.7951C20.1722 12.6434 19.6606 12.5833 19.1673 12.6148C18.8023 12.6379 18.4512 12.6794 18.1142 12.7395C17.7977 12.7956 17.7992 12.8414 18.1187 12.877C18.8023 12.9521 19.4626 13.2917 20.0778 13.6252C20.3277 13.7614 20.5686 13.9239 20.8005 14.1127C20.8265 14.1337 20.8227 14.143 20.7892 14.1405C20.1512 14.0944 19.5575 14.151 19.0081 14.3103C18.7226 14.3929 18.4104 14.4998 18.0713 14.631C18.0628 14.6345 18.0571 14.6406 18.0541 14.6491C18.0521 14.6551 18.0526 14.6616 18.0556 14.6686C18.0581 14.6736 18.0623 14.6756 18.0683 14.6746Z" fill="#11151D"/>
<path d="M33.0453 13.306C33.2781 13.5003 33.6492 13.7627 34.1585 14.0933C34.465 14.2926 34.8942 14.6284 35.4461 15.1006C35.8547 15.4502 36.1925 15.8007 36.4595 16.1523C36.9064 16.7413 37.2467 17.3971 37.5577 18.0761C38.2428 19.5745 38.495 21.1844 38.3142 22.9056C38.2 23.9904 37.8161 25.0323 37.1543 25.948C36.7046 26.57 36.1808 27.1221 35.5828 27.6044C35.416 27.7391 35.226 27.85 35.0127 27.9372C35.0107 27.9379 35.0086 27.9381 35.0066 27.9379C35.0045 27.9376 35.0026 27.9369 35.0009 27.9357C34.9992 27.9345 34.9978 27.9329 34.9968 27.9311C34.9959 27.9293 34.9954 27.9272 34.9954 27.9251C35.0054 27.5641 35.0372 27.2022 35.0908 26.8397C35.1343 26.5442 35.2568 26.2758 35.4581 26.0344C35.7466 25.6888 36.017 25.342 36.2694 24.994C36.9099 24.111 37.2713 23.1262 37.3534 22.0395C37.3574 21.9859 37.3526 21.9851 37.3391 22.0372C37.1273 22.837 36.7031 23.5181 36.0666 24.0805C35.7456 24.3645 35.4093 24.6534 35.0577 24.9474C34.9481 25.0398 34.6603 25.314 34.6889 25.4913C34.6979 25.5453 34.6854 25.5508 34.6513 25.5078C34.3869 25.1742 34.0278 24.9091 33.7657 24.5815C33.3996 24.1238 33.0645 23.6323 32.7605 23.1069C32.6288 22.8796 32.588 22.6527 32.6381 22.4264C32.723 22.0425 32.8477 21.5662 33.1046 21.2778C33.1256 21.2542 33.1519 21.242 33.1835 21.241C33.7213 21.2252 34.2239 21.141 34.6603 20.8248C34.9879 20.5867 35.199 20.1803 35.4521 19.8617C35.6309 19.6371 36.011 19.5237 36.2694 19.39C36.314 19.367 36.3122 19.3482 36.2642 19.3337C35.9622 19.2413 35.6542 19.1421 35.3612 19.0212C34.8579 18.8138 34.2081 18.6801 33.7288 18.8394C33.5811 18.8884 33.4008 18.9841 33.188 19.1263C32.7726 19.4035 32.4721 19.6011 32.4713 20.1675C32.4703 20.7048 32.4082 21.2234 32.285 21.7232C32.2305 21.9431 32.2542 22.1674 32.3564 22.3963C32.5948 22.9307 32.87 23.4395 33.182 23.9227C33.7882 24.861 34.3373 25.8428 34.7227 26.8607C34.7928 27.046 34.8241 27.2478 34.8166 27.4662C34.8156 27.4922 34.8023 27.5062 34.7768 27.5082C34.0506 27.5698 33.3325 27.688 32.6223 27.8628C32.5833 27.8723 32.5602 27.8803 32.5532 27.8868C32.5137 27.9214 32.5202 27.9377 32.5727 27.9357C33.2889 27.9056 33.9785 27.83 34.6416 27.7088C34.7057 27.6973 34.7678 27.6788 34.8279 27.6532C34.8574 27.6412 34.8737 27.651 34.8767 27.6825C34.9017 27.9524 34.9 28.2066 34.8714 28.445C34.8674 28.476 34.8499 28.4936 34.8188 28.4976C34.1408 28.5822 33.4574 28.6676 32.7688 28.7537C32.5848 28.777 32.406 28.8243 32.2219 28.8642C32.2144 28.8657 32.2082 28.8692 32.2032 28.8747C32.1987 28.8797 32.1976 28.8859 32.2002 28.8934C32.2012 28.897 32.2037 28.8987 32.2077 28.8987C33.1056 28.9137 33.9166 28.8609 34.6408 28.7402C34.7119 28.7287 34.7447 28.759 34.7392 28.8311C34.7257 28.9964 34.6984 29.1461 34.6573 29.2803C34.6148 29.4195 34.5226 29.5067 34.3809 29.5417C34.0398 29.6254 33.7223 29.6747 33.4284 29.6897C32.8454 29.7198 32.253 29.7501 31.651 29.7806C31.3836 29.7946 31.3816 29.8249 31.645 29.8715C32.3972 30.0057 33.2984 29.9579 34.3486 29.728C34.4222 29.712 34.4663 29.7411 34.4808 29.8152L34.5011 29.9143C34.5061 29.9399 34.4983 29.9612 34.4778 29.9782C34.4447 30.0052 34.4172 30.043 34.3952 30.0916C34.2895 30.3225 34.1901 30.5639 34.0969 30.8158C34.0514 30.9385 33.9517 31.0977 33.798 31.2935C33.0625 32.228 31.9861 31.9741 31.0628 31.5655C30.5115 31.3213 29.9796 31.0622 29.4658 30.7452C29.3641 30.6821 29.3033 30.5957 29.2832 30.486C29.2156 30.1111 29.1225 29.535 29.4042 29.2593C29.5724 29.0955 29.7587 28.9671 29.9037 28.7793C30.081 28.5486 30.2906 28.2256 30.5325 28.0611C30.7684 27.9011 31.0929 27.8898 31.3588 27.7862C32.0434 27.5192 32.4355 26.9972 32.5352 26.2199C32.5366 26.2081 32.5336 26.1961 32.5267 26.1862C32.5198 26.1763 32.5095 26.169 32.4976 26.1658C32.4541 26.1543 32.4162 26.1611 32.3842 26.1861C32.1959 26.3318 32.0073 26.4881 31.8185 26.6549C31.797 26.6738 31.769 26.6835 31.7406 26.6821C31.7121 26.6807 31.6853 26.6683 31.666 26.6474C31.3543 26.3123 30.8623 26.2995 30.4446 26.4227C29.8226 26.6065 29.1871 26.6772 28.538 26.6346C28.1369 26.6075 27.75 26.5061 27.3722 26.4115C26.9365 26.3026 26.5376 26.3326 26.2319 26.6684C26.2255 26.6754 26.2177 26.6811 26.2091 26.6851C26.2005 26.6892 26.1912 26.6915 26.1817 26.6919C26.1722 26.6923 26.1627 26.6908 26.1538 26.6876C26.1449 26.6843 26.1367 26.6793 26.1297 26.6729C25.9289 26.4846 25.7418 26.3188 25.5685 26.1756C25.4674 26.092 25.4155 26.1158 25.413 26.247C25.407 26.5159 25.6399 26.9313 25.7796 27.1484C26.0035 27.4955 26.3172 27.7221 26.7209 27.8282C27.1453 27.9402 27.4007 27.9958 27.6772 28.3684C27.9691 28.7625 28.2809 29.081 28.6124 29.3239C28.8566 29.5027 28.7026 30.3125 28.6214 30.5236C28.5834 30.6217 28.509 30.7016 28.3983 30.7632C27.8915 31.0446 27.4047 31.299 26.938 31.5264C26.4732 31.7528 26.028 31.89 25.6023 31.9381C24.7257 32.0372 24.0248 31.4032 23.7439 30.6235C23.6387 30.3328 23.4584 30.0203 23.4374 29.704C23.4354 29.6754 23.4481 29.6649 23.4757 29.6724C24.5314 29.9744 25.4849 30.0313 26.3363 29.843C26.6152 29.7814 26.612 29.7503 26.3265 29.7498C25.7311 29.7493 25.0823 29.7278 24.3801 29.6852C24.0536 29.6652 23.7374 29.6061 23.4314 29.5079C23.3958 29.4964 23.37 29.4736 23.354 29.4396C23.2814 29.2843 23.2351 29.0657 23.215 28.7838C23.212 28.7427 23.2308 28.7252 23.2714 28.7312C24.0186 28.8384 24.7753 28.9007 25.5415 28.9182C25.6221 28.9197 25.702 28.9147 25.7811 28.9032C25.8608 28.8917 25.8613 28.8779 25.7826 28.8619C24.9087 28.6846 24.0591 28.5907 23.2338 28.5802C23.2068 28.5798 23.1808 28.5702 23.16 28.5528C23.1392 28.5354 23.1249 28.5114 23.1196 28.4848C23.0746 28.2634 23.066 28.0303 23.0941 27.7854C23.0963 27.7665 23.106 27.7493 23.1209 27.7375C23.1358 27.7257 23.1548 27.7202 23.1737 27.7223C23.3487 27.7441 23.5313 27.7351 23.7071 27.7599C24.3135 27.846 24.913 27.8954 25.5054 27.9079C25.5961 27.9094 25.5981 27.8974 25.5115 27.8718C24.7788 27.6555 24.0153 27.5538 23.221 27.5668C23.196 27.5668 23.1825 27.5546 23.1805 27.53C23.1499 27.1729 23.1917 26.8564 23.3059 26.5805C23.8235 25.3297 24.5537 24.2322 25.223 23.0701C25.3514 22.847 25.4228 22.6089 25.5618 22.3986C25.6805 22.2205 25.7023 21.9794 25.6677 21.7788C25.562 21.1708 25.4937 20.5821 25.4626 20.0127C25.4536 19.8482 25.3417 19.6522 25.232 19.5215C24.7237 18.92 24.0807 18.6834 23.3029 18.8116C22.7388 18.9047 22.2287 19.2044 21.657 19.2953C21.5859 19.3069 21.5817 19.3309 21.6443 19.3675C21.8636 19.4952 22.1035 19.5976 22.3639 19.6747C22.4385 19.6967 22.4916 19.7396 22.5232 19.8032C22.8259 20.4101 23.1812 20.9743 23.8896 21.1208C24.1796 21.1809 24.4695 21.2292 24.7595 21.2657C24.8609 21.2793 24.9165 21.3446 24.9578 21.4325C25.1126 21.7645 25.2425 22.1394 25.3019 22.5015C25.3492 22.7944 25.2042 22.9792 25.06 23.2309C24.5782 24.0692 23.982 24.8154 23.2714 25.4695C23.2523 25.4875 23.2388 25.484 23.2308 25.459C23.1772 25.2857 23.0778 25.1389 22.9326 25.0187C22.5845 24.7308 22.2372 24.4343 21.8907 24.1293C21.2792 23.5915 20.8134 22.8673 20.6444 22.0673C20.6104 21.9045 20.5768 21.7388 20.5438 21.57C20.5372 21.5359 20.5347 21.5362 20.5362 21.5707C20.5828 22.7261 20.8991 23.9934 21.6195 24.9331C21.8904 25.2857 22.1764 25.642 22.4773 26.0021C22.5935 26.1418 22.6922 26.2833 22.7733 26.4265C22.8419 26.5487 22.89 26.7413 22.9176 27.0042C22.9531 27.3497 22.9899 27.6845 23.028 28.0085C23.0285 28.0133 23.0276 28.0182 23.0255 28.0225C23.0235 28.0268 23.0202 28.0305 23.0162 28.0332C23.0122 28.0358 23.0075 28.0373 23.0027 28.0374C22.9979 28.0376 22.9931 28.0364 22.9889 28.0341C22.5647 27.7817 22.1809 27.4844 21.8373 27.1424C20.9855 26.2935 20.2666 25.3147 19.9097 24.1721C19.5664 23.0716 19.5003 21.8126 19.6273 20.6595C19.7289 19.7406 19.9368 18.9395 20.2508 18.2564C20.5633 17.5753 20.8525 17.0225 21.1184 16.5978C21.3663 16.2001 21.6135 15.8821 21.8599 15.6437C22.1716 15.3418 22.5179 15.0541 22.8672 14.7971C23.2195 14.5395 23.5373 14.2525 23.9031 14.0031C24.2377 13.7753 24.5687 13.5354 24.8962 13.2835C25.9269 13.2542 26.7164 13.5532 27.6328 13.9971L28.6267 14.7596C28.6502 14.7781 28.6537 14.7999 28.6372 14.8249C28.6337 14.8299 28.6299 14.8352 28.6259 14.8407C28.6124 14.8606 28.6068 14.8847 28.6102 14.9083C28.8227 16.4468 28.8686 17.8485 28.991 19.3044C28.9912 19.3051 28.9917 19.3058 28.9923 19.3063C28.993 19.3068 28.9937 19.3071 28.9944 19.3071C28.9951 19.3071 28.9957 19.3068 28.996 19.3063C28.9964 19.3058 28.9965 19.3051 28.9963 19.3044C29.1022 17.8778 29.1668 16.428 29.3816 14.9001C29.3856 14.873 29.3739 14.8595 29.3463 14.8595L29.166 14.8625L30.4468 13.9858C31.2702 13.445 32.1363 13.2184 33.0453 13.306ZM32.3985 19.6484C32.4743 19.2135 32.8297 18.8071 33.0468 18.445C33.3412 17.9544 33.4794 17.5195 33.0791 16.9982C32.8312 16.6767 32.5505 16.4127 32.237 16.2064C32.2299 16.2019 32.2219 16.199 32.2135 16.198C32.2052 16.1971 32.1967 16.198 32.1888 16.2009C32.1809 16.2037 32.1737 16.2083 32.1679 16.2144C32.162 16.2204 32.1577 16.2277 32.1551 16.2357C31.9943 16.7465 31.7487 17.8936 32.249 18.2429C32.3331 18.3015 32.3727 18.4177 32.3677 18.5915C32.3587 18.924 32.3567 19.2753 32.3617 19.6454C32.3637 19.7761 32.3759 19.7771 32.3985 19.6484ZM25.6399 18.5547C25.6564 18.3466 25.8119 18.1445 25.9111 17.9687C26.1455 17.5526 25.9494 16.6954 25.7962 16.2748C25.7923 16.2641 25.786 16.2546 25.7778 16.2469C25.7696 16.2391 25.7597 16.2335 25.7489 16.2303C25.7381 16.2272 25.7268 16.2266 25.7158 16.2287C25.7048 16.2308 25.6945 16.2355 25.6857 16.2425C24.9751 16.7901 24.2599 17.4496 24.8714 18.4382C25.0908 18.7928 25.4018 19.1 25.5137 19.5485C25.5508 19.6982 25.5728 19.696 25.5798 19.5417C25.5948 19.2102 25.6149 18.8812 25.6399 18.5547ZM22.5404 18.0514C23.0007 17.9111 23.4401 17.8242 23.8588 17.7907C23.8618 17.7907 23.8633 17.7922 23.8633 17.7952C23.8633 17.7957 23.8633 17.7962 23.8633 17.7967C23.8633 17.7987 23.8623 17.7997 23.8603 17.7997C23.376 17.7196 22.9333 17.7969 22.5322 18.0318C22.4801 18.0624 22.4829 18.0689 22.5404 18.0514ZM26.5752 21.3048C26.5416 21.5487 26.4973 21.7756 26.4422 21.9854C26.3816 22.2163 26.2847 22.4521 26.1515 22.693C25.8765 23.1908 25.6096 23.7495 25.3507 24.369C25.2841 24.5277 25.2328 24.73 25.1967 24.9759C25.1945 24.9905 25.1976 25.0053 25.2055 25.0177C25.2134 25.03 25.2255 25.0389 25.2395 25.0428L25.2651 25.0495C25.2681 25.0505 25.2712 25.0507 25.2744 25.0504C25.2775 25.0501 25.2805 25.0491 25.2832 25.0475C25.286 25.046 25.2884 25.0439 25.2903 25.0414C25.2922 25.0389 25.2936 25.0361 25.2944 25.033C25.3384 24.8487 25.392 24.7015 25.4551 24.5913C25.8092 23.9723 26.0621 23.4898 26.2138 23.1437C26.4933 22.5067 26.5691 21.7991 26.5887 21.1035C26.5887 21.103 26.5884 21.1025 26.5879 21.102C26.5844 21.0995 26.5834 21.1002 26.5849 21.1042C26.5859 21.1067 26.5864 21.1092 26.5864 21.1117C26.5874 21.1769 26.5837 21.2412 26.5752 21.3048ZM31.3843 21.5302C31.3753 21.4926 31.3721 21.4581 31.3746 21.4265C31.3747 21.4259 31.375 21.4254 31.3755 21.425C31.376 21.4247 31.3766 21.4245 31.3772 21.4246C31.3778 21.4247 31.3783 21.4251 31.3787 21.4255C31.379 21.426 31.3792 21.4267 31.3791 21.4273C31.3831 21.9471 31.4545 22.4191 31.5932 22.8433C31.6743 23.0912 31.7993 23.3669 31.968 23.6703C32.1213 23.9473 32.2755 24.2375 32.4308 24.541C32.5159 24.7078 32.572 24.8587 32.599 24.994C32.6001 24.9988 32.6022 25.0033 32.6052 25.0072C32.6082 25.0111 32.612 25.0143 32.6164 25.0165C32.6208 25.0188 32.6256 25.02 32.6305 25.0201C32.6355 25.0202 32.6404 25.0193 32.6449 25.0172L32.6636 25.009C32.7012 24.9915 32.717 24.9622 32.711 24.9211C32.6804 24.7078 32.6281 24.5157 32.554 24.3449C32.3441 23.8611 32.1058 23.3726 31.8388 22.8793C31.5992 22.4361 31.5038 22.0327 31.3843 21.5302Z" fill="#FEFEFE"/>
<path d="M41.0732 18.0581C41.0908 18.0546 41.1008 18.0446 41.1033 18.028C41.1048 18.0175 41.1053 18.007 41.1048 17.9965C41.1043 17.9885 41.1003 17.984 41.0928 17.983C41.0737 17.9804 41.0692 17.9709 41.0792 17.9544C41.0868 17.9414 41.0978 17.9336 41.1123 17.9311C41.1383 17.9261 41.1461 17.9113 41.1356 17.8868C41.1311 17.8768 41.1251 17.8678 41.1176 17.8598C41.0935 17.8342 41.0855 17.8385 41.0935 17.8725C41.095 17.8795 41.094 17.886 41.0905 17.8921C41.0897 17.8932 41.0885 17.8941 41.0873 17.8947C41.086 17.8952 41.0846 17.8955 41.0832 17.8953C41.0819 17.8952 41.0807 17.8946 41.0797 17.8938C41.0787 17.8929 41.0781 17.8918 41.0778 17.8906L41.0439 17.7891C41.1161 17.8387 41.1882 17.8247 41.2603 17.7471C41.8169 17.1469 42.3165 16.606 42.65 15.8638C42.6685 15.8222 42.6863 15.8227 42.7033 15.8653C42.8185 16.1543 42.9775 16.481 43.1804 16.8456C43.9428 18.2151 44.8969 19.3389 46.409 19.885C46.414 19.8867 46.4185 19.8897 46.4218 19.8937C46.4252 19.8978 46.4274 19.9026 46.4282 19.9079C46.429 19.9131 46.4283 19.9184 46.4263 19.9232C46.4242 19.9281 46.4208 19.9323 46.4165 19.9353C46.2693 20.042 46.106 20.1156 45.9268 20.1562C45.2807 20.3029 44.6269 20.3653 43.9654 20.3432C43.9378 20.3422 43.913 20.3332 43.891 20.3162C43.7658 20.221 43.6414 20.1166 43.5177 20.0029C42.7341 19.2848 41.9597 18.5899 41.0732 18.0581Z" fill="#1F232B"/>
<path d="M16.8676 17.887C16.8316 17.8995 16.8283 17.9346 16.8579 17.9922C16.8624 18.0012 16.8892 18.0092 16.9382 18.0162C16.4084 18.4063 15.8933 18.8055 15.393 19.2136C14.9663 19.5622 14.6073 19.9596 14.1919 20.3141C14.1683 20.3344 14.1409 20.3498 14.1114 20.3595C14.0819 20.3691 14.0508 20.3729 14.0198 20.3705C13.8155 20.355 13.6194 20.3439 13.4316 20.3374C12.8742 20.3179 12.1779 20.2458 11.6626 19.9919C11.5844 19.9538 11.5872 19.9225 11.6708 19.898C11.8156 19.8564 11.951 19.8008 12.0772 19.7312C13.4076 19.0003 14.3105 17.739 15.0452 16.3884C15.1459 16.2036 15.2195 16.0383 15.2661 15.8926C15.2781 15.8565 15.2924 15.8555 15.3089 15.8896C15.6805 16.6488 16.2001 17.3146 16.8676 17.887Z" fill="#E38929"/>
<path d="M32.3613 19.6455C32.3563 19.2754 32.3583 18.9241 32.3673 18.5915C32.3724 18.4178 32.3328 18.3016 32.2487 18.243C31.7484 17.8937 31.994 16.7466 32.1548 16.2358C32.1573 16.2278 32.1617 16.2205 32.1676 16.2144C32.1734 16.2084 32.1806 16.2038 32.1885 16.201C32.1964 16.1981 32.2048 16.1972 32.2132 16.1981C32.2215 16.1991 32.2296 16.2019 32.2366 16.2065C32.5501 16.4128 32.8308 16.6767 33.0787 16.9982C33.4791 17.5196 33.3409 17.9545 33.0464 18.4451C32.8293 18.8071 32.474 19.2135 32.3981 19.6485C32.3756 19.7772 32.3633 19.7762 32.3613 19.6455Z" fill="#E38929"/>
<path d="M25.9112 17.9688C25.8121 18.1446 25.6566 18.3467 25.64 18.5547C25.615 18.8813 25.595 19.2103 25.5799 19.5418C25.5729 19.6961 25.5509 19.6983 25.5138 19.5486C25.4019 19.1001 25.0909 18.7929 24.8716 18.4383C24.2601 17.4497 24.9752 16.7902 25.6859 16.2425C25.6946 16.2356 25.7049 16.2309 25.7159 16.2288C25.7269 16.2267 25.7382 16.2272 25.749 16.2304C25.7598 16.2335 25.7697 16.2392 25.7779 16.2469C25.7861 16.2547 25.7924 16.2642 25.7963 16.2748C25.9495 16.6955 26.1456 17.5526 25.9112 17.9688Z" fill="#E38929"/>
<path d="M38.1738 16.8569C39.2052 17.3565 40.036 17.7967 40.9172 18.4472C41.9095 19.1812 42.7674 20.2065 43.4217 21.2244C43.7192 21.6867 44.0249 22.1429 44.3389 22.5931C44.688 23.0939 45.1207 23.5534 45.637 23.9716C45.9037 24.1872 46.2252 24.3652 46.5384 24.5222C46.5494 24.5276 46.5585 24.536 46.5649 24.5465C46.5713 24.5569 46.5745 24.5689 46.5744 24.5812C46.5742 24.5935 46.5706 24.6055 46.564 24.6159C46.5574 24.6263 46.548 24.6347 46.5369 24.6401C46.1178 24.8437 45.7467 24.7423 45.3207 24.5778C44.5044 24.2643 43.7522 23.8366 43.0641 23.2947C41.9378 22.4078 40.8736 21.4525 39.8715 20.4289C39.7032 20.2576 39.5553 20.0721 39.3727 19.9136C39.227 19.7869 39.207 19.8041 39.3126 19.9654C39.6657 20.5053 40.0415 21.0677 40.4402 21.6526C41.5925 23.3448 43.1044 24.5873 44.9759 25.3801C45.0355 25.4051 45.0726 25.4492 45.0871 25.5123C45.3956 26.8419 45.4767 28.2246 45.3305 29.6604C45.1923 31.0236 44.9238 32.3445 44.5252 33.623C44.2428 34.5275 43.8659 35.3488 43.3946 36.087C43.291 36.2492 43.1723 36.3822 43.0386 36.4858C43.0345 36.4889 43.0297 36.4908 43.0246 36.4913C43.0196 36.4917 43.0145 36.4907 43.0101 36.4884C43.0056 36.4861 43.002 36.4826 42.9996 36.4783C42.9971 36.4739 42.9961 36.469 42.9965 36.4641L43.0649 35.4236L43.0814 35.4394C43.0969 35.4537 43.1158 35.4638 43.1364 35.4686C43.1569 35.4734 43.1783 35.4728 43.1986 35.4668C43.2188 35.4608 43.2371 35.4496 43.2517 35.4344C43.2664 35.4193 43.2768 35.4005 43.282 35.3801C43.312 35.2649 43.3483 35.1522 43.3909 35.042C43.4375 34.9208 43.4658 34.7969 43.4758 34.6702C43.5549 33.6601 43.5369 32.806 43.4217 32.1078C43.3416 31.6211 43.1958 31.0444 42.9845 30.3778C42.4729 28.768 41.3228 27.3745 39.9759 26.3379C39.8467 26.2382 39.7148 26.129 39.58 26.0103C39.5436 25.9781 39.5169 25.9363 39.5031 25.8897C39.4893 25.8431 39.4889 25.7935 39.5019 25.7467C39.6108 25.362 39.7483 24.9767 39.7709 24.5688C39.7954 24.1176 39.7791 23.7224 39.722 23.3834C39.6431 22.9116 39.5583 22.4339 39.4433 21.9741C39.3802 21.7207 39.3241 21.4678 39.2751 21.2154C39.2295 20.979 39.1724 20.7572 39.1038 20.5498C39.0462 20.3751 39.0121 20.1948 39.0016 20.009C38.9916 19.8342 38.9581 19.6569 38.901 19.4771C38.6551 18.7054 38.4244 18.0358 38.2091 17.4684C38.123 17.241 38.1112 17.0372 38.1738 16.8569Z" fill="#1F232B"/>
<path d="M19.9098 16.8818C19.8201 17.1057 19.7598 17.2639 19.7288 17.3566C19.3587 18.4609 19.0622 19.5133 18.8393 20.5139C18.6535 21.3482 18.475 22.1968 18.3037 23.0597C18.1129 24.0213 18.1748 24.9628 18.4893 25.8842C18.4978 25.9098 18.4948 25.9341 18.4803 25.9571C18.4347 26.0262 18.3781 26.0876 18.3105 26.1412C17.7448 26.5896 17.2227 27.0531 16.7277 27.5489C15.7729 28.5037 15.069 29.7334 14.7558 31.0615C14.4425 32.3866 14.4057 33.6134 14.5342 34.952C14.5497 35.1108 14.5845 35.3381 14.6386 35.6341C14.6782 35.8509 14.713 36.0785 14.743 36.3169C14.3975 35.9313 14.1225 35.5084 13.9182 35.0482C13.1956 33.4225 12.8177 31.697 12.6013 29.9009C12.4241 28.4321 12.4834 26.9732 12.7794 25.5244C12.7851 25.4966 12.798 25.4708 12.8167 25.4495C12.8354 25.4283 12.8593 25.4124 12.8861 25.4035C13.1209 25.3253 13.3576 25.2262 13.5959 25.106C15.1397 24.3285 16.419 23.1964 17.3858 21.7737C17.7922 21.175 18.1745 20.574 18.5809 19.9858C18.6295 19.9157 18.6165 19.9014 18.5419 19.943C18.5043 19.9635 18.4712 19.9896 18.4427 20.0211C17.6164 20.9321 16.7315 21.8015 15.7879 22.6293C15.0533 23.2733 14.3234 23.7969 13.5982 24.2C13.2181 24.4109 12.7604 24.5897 12.225 24.7364C11.9944 24.7995 11.7067 24.7973 11.4858 24.7109C11.4657 24.7031 11.4483 24.6897 11.4357 24.6723C11.4231 24.6548 11.4158 24.6341 11.4147 24.6125C11.4136 24.591 11.4187 24.5695 11.4295 24.5507C11.4402 24.5319 11.4561 24.5166 11.4753 24.5065C12.1899 24.1364 12.8062 23.6306 13.324 22.9891C13.9415 22.2259 14.4673 21.3936 15.0195 20.6055C16.2101 18.9093 17.9281 17.5249 19.9098 16.8818Z" fill="#E38929"/>
<path d="M22.5405 18.0513C22.4829 18.0688 22.4801 18.0623 22.5322 18.0317C22.9334 17.7969 23.3761 17.7195 23.8603 17.7996C23.8623 17.7996 23.8633 17.7986 23.8633 17.7966C23.8633 17.7961 23.8633 17.7956 23.8633 17.7951C23.8633 17.7921 23.8618 17.7906 23.8588 17.7906C23.4402 17.8242 23.0007 17.911 22.5405 18.0513Z" fill="#90969F"/>
<path d="M35.4312 18.1638C35.4888 18.1813 35.4915 18.1748 35.4395 18.1443C35.0383 17.9094 34.5956 17.832 34.1113 17.9122C34.1093 17.9122 34.1083 17.9112 34.1083 17.9092C34.1083 17.9087 34.1083 17.9082 34.1083 17.9077C34.1083 17.9047 34.1098 17.9032 34.1128 17.9032C34.5315 17.9367 34.971 18.0236 35.4312 18.1638Z" fill="#90969F"/>
<path d="M34.0941 19.8431C34.1797 19.7499 34.2411 19.631 34.2781 19.4862C34.2857 19.4567 34.3044 19.4397 34.3345 19.4352C34.4336 19.4201 34.5328 19.4324 34.632 19.472C34.6585 19.4825 34.674 19.5018 34.6785 19.5298C34.7647 20.0732 34.5573 20.4415 34.0565 20.6348C33.7911 20.737 33.547 20.7255 33.3241 20.6003C33.1739 20.5161 33.1423 20.3216 33.1168 20.1653C33.0837 19.9633 33.1273 19.777 33.2858 19.6493C33.3154 19.6252 33.3339 19.6317 33.3414 19.6688C33.3915 19.9107 33.5309 20.0203 33.7598 19.9978C33.9 19.9843 34.0115 19.9327 34.0941 19.8431Z" fill="#E38929"/>
<path d="M23.2632 19.749C23.2672 19.6158 23.3439 19.5539 23.4931 19.5635C23.5226 19.5653 23.5514 19.5732 23.5779 19.5867C23.6043 19.6001 23.6279 19.6188 23.6471 19.6416C23.7047 19.7107 23.7663 19.7755 23.8319 19.8361C24.064 20.051 24.4884 20.0795 24.6477 19.7558C24.6923 19.6656 24.7233 19.6699 24.7408 19.7685C24.7794 19.9829 24.7666 20.1819 24.7025 20.3657C24.5853 20.7008 24.1008 20.7038 23.8251 20.6294C23.463 20.5317 23.2497 20.1584 23.2339 19.7971C23.2334 19.7871 23.2377 19.7798 23.2467 19.7753C23.2572 19.7698 23.2627 19.761 23.2632 19.749Z" fill="#E38929"/>
<path d="M26.575 21.3049C26.5835 21.2413 26.5872 21.1769 26.5862 21.1118C26.5862 21.1093 26.5857 21.1068 26.5847 21.1043C26.5832 21.1003 26.5842 21.0995 26.5877 21.102C26.5882 21.1025 26.5885 21.103 26.5885 21.1035C26.5689 21.7991 26.4931 22.5068 26.2136 23.1438C26.0619 23.4899 25.809 23.9724 25.4549 24.5914C25.3918 24.7015 25.3382 24.8488 25.2942 25.0331C25.2934 25.0361 25.292 25.039 25.2901 25.0415C25.2882 25.044 25.2858 25.046 25.283 25.0476C25.2803 25.0491 25.2773 25.0501 25.2742 25.0505C25.271 25.0508 25.2679 25.0505 25.2649 25.0496L25.2393 25.0428C25.2253 25.039 25.2132 25.03 25.2053 25.0177C25.1974 25.0054 25.1943 24.9905 25.1965 24.976C25.2326 24.7301 25.2839 24.5278 25.3505 24.369C25.6094 23.7495 25.8763 23.1909 26.1513 22.6931C26.2845 22.4522 26.3814 22.2163 26.442 21.9854C26.4971 21.7756 26.5414 21.5487 26.575 21.3049Z" fill="#1F232B"/>
<path d="M31.3846 21.5301C31.504 22.0327 31.5995 22.4361 31.8391 22.8793C32.106 23.3726 32.3444 23.8611 32.5542 24.3449C32.6283 24.5157 32.6807 24.7077 32.7112 24.9211C32.7172 24.9621 32.7015 24.9914 32.6639 25.009L32.6451 25.0172C32.6406 25.0192 32.6357 25.0202 32.6308 25.0201C32.6259 25.02 32.621 25.0187 32.6167 25.0165C32.6123 25.0143 32.6084 25.0111 32.6054 25.0072C32.6024 25.0033 32.6003 24.9987 32.5993 24.9939C32.5723 24.8587 32.5162 24.7077 32.431 24.541C32.2758 24.2375 32.1215 23.9473 31.9683 23.6703C31.7995 23.3668 31.6746 23.0911 31.5934 22.8432C31.4547 22.4191 31.3834 21.9471 31.3793 21.4272C31.3794 21.4266 31.3793 21.426 31.379 21.4255C31.3786 21.425 31.3781 21.4247 31.3775 21.4246C31.3769 21.4245 31.3763 21.4246 31.3758 21.425C31.3753 21.4253 31.3749 21.4259 31.3748 21.4265C31.3723 21.458 31.3756 21.4926 31.3846 21.5301Z" fill="#1F232B"/>
<path d="M20.9094 32.0477C20.4142 32.3397 19.9234 32.6932 19.4371 33.1084C18.3877 34.0046 17.822 35.2238 17.6462 36.5542C17.5471 37.3069 17.5611 38.192 17.6883 39.2097C17.7063 39.3539 17.7356 39.4816 17.7807 39.6161C17.7992 39.6722 17.7862 39.6807 17.7416 39.6416C16.3632 38.4202 15.8276 36.7562 15.5226 35.0127C15.4153 34.4034 15.219 33.4539 15.2529 32.8305C15.3243 31.5129 15.8411 30.6046 16.7035 29.6228C17.012 29.2718 17.3432 28.8829 17.6973 28.4562C17.8896 28.2238 18.0624 27.9717 18.2156 27.6998C18.2271 27.6794 18.2445 27.6629 18.2655 27.6524C18.2865 27.642 18.3102 27.6381 18.3336 27.6412C20.2108 27.7974 21.5207 30.5934 20.9094 32.0477Z" fill="#333841"/>
<path d="M34.9908 28.4165C35.9003 28.5326 36.8416 28.753 37.8146 29.0775C38.3209 29.2465 38.7822 29.4764 39.2389 29.7386C39.2449 29.7421 39.2464 29.7468 39.2434 29.7528L39.2426 29.7536C39.2376 29.7631 39.2304 29.7654 39.2209 29.7604C38.8728 29.5796 38.516 29.4283 38.1504 29.3066C37.1563 28.9756 36.0939 28.6972 34.963 28.4713C34.9575 28.4703 34.9553 28.4668 34.9563 28.4608L34.96 28.4397C34.9613 28.4326 34.9653 28.4262 34.971 28.4219C34.9767 28.4175 34.9838 28.4156 34.9908 28.4165Z" fill="#ADB1BA"/>
<path d="M19.9572 29.3231L18.5464 29.8768C18.54 29.8794 18.5329 29.8794 18.5265 29.8769C18.5202 29.8743 18.5152 29.8694 18.5126 29.8633L18.5043 29.846C18.5023 29.842 18.5036 29.839 18.5081 29.837L20.1127 29.1271C20.8549 28.8757 21.5575 28.6824 22.2205 28.5471C22.4404 28.5026 22.7141 28.4678 23.0416 28.4427C23.0551 28.4417 23.0626 28.448 23.0641 28.4615L23.0664 28.4818C23.0699 28.5073 23.0589 28.5226 23.0333 28.5276C21.9932 28.7189 20.9678 28.9841 19.9572 29.3231Z" fill="#ADB1BA"/>
<path d="M40.0372 30.7407C40.0462 30.7452 40.0487 30.752 40.0447 30.761C40.0412 30.769 40.0354 30.7715 40.0274 30.7685C39.5511 30.5882 39.0711 30.42 38.5873 30.2637C37.7332 29.9888 36.8378 29.7687 35.9641 29.5178C35.584 29.4086 35.2009 29.3124 34.8148 29.2293C34.8068 29.2278 34.8035 29.223 34.805 29.215L34.808 29.194C34.8116 29.177 34.8218 29.1695 34.8388 29.1715C35.8612 29.2826 36.7957 29.5523 37.8166 29.8581C38.5723 30.0844 39.3125 30.3786 40.0372 30.7407Z" fill="#FEFEFE"/>
<path d="M20.4684 29.9549C19.6601 30.1772 18.8661 30.4409 18.0864 30.7459C18.0768 30.7494 18.0701 30.7466 18.0661 30.7376L18.0653 30.7369C18.0613 30.7279 18.0638 30.7211 18.0728 30.7166C18.7664 30.3645 19.4866 30.0778 20.2333 29.8565C21.1312 29.5525 22.081 29.3284 23.0826 29.1841C23.1332 29.1771 23.1697 29.1849 23.1923 29.2074C23.2143 29.2295 23.2103 29.2445 23.1803 29.2525L20.4684 29.9549Z" fill="#ADB1BA"/>
<path d="M39.2665 32.2131C39.3296 32.2832 39.4015 32.3428 39.4821 32.3919C39.4826 32.3922 39.4831 32.3927 39.4834 32.3933C39.4837 32.3938 39.4839 32.3944 39.484 32.3951C39.4841 32.3957 39.484 32.3964 39.4838 32.397C39.4836 32.3976 39.4833 32.3982 39.4829 32.3986L39.4693 32.4144C39.4618 32.4224 39.4541 32.4227 39.446 32.4152C38.8676 31.8893 38.2261 31.5069 37.5312 31.1186C36.5637 30.577 35.5961 30.2374 34.5384 29.988C34.5304 29.986 34.5272 29.981 34.5287 29.973L34.5324 29.9512C34.5329 29.9502 34.5337 29.9497 34.5347 29.9497C35.4952 30.0714 36.3957 30.3576 37.236 30.8083C37.8933 31.1599 38.5634 31.6016 39.1531 32.1034C39.1926 32.137 39.2304 32.1735 39.2665 32.2131Z" fill="#FEFEFE"/>
<path d="M20.474 31.1184C19.7544 31.49 19.0888 31.9094 18.4773 32.3767C18.4077 32.4302 18.402 32.424 18.4601 32.3579C18.5342 32.2742 18.6253 32.1896 18.7335 32.104C19.4176 31.5616 20.1533 31.1076 20.9405 30.742C21.6061 30.4288 22.2371 30.1456 22.9522 30.0051C23.0634 29.9836 23.1688 29.9693 23.2685 29.9623C23.2835 29.9613 23.2965 29.9656 23.3076 29.9751C23.3176 29.9836 23.3201 29.9913 23.3151 29.9984C23.3101 30.0054 23.3033 30.0101 23.2948 30.0126C22.3107 30.2973 21.374 30.6204 20.474 31.1184Z" fill="#ADB1BA"/>
<path d="M23.2849 31.1479L23.3164 31.3463C23.3205 31.3713 23.3159 31.3951 23.3029 31.4176C22.9308 32.0682 22.7 32.4851 22.6103 32.6684C21.9402 34.0366 21.479 35.5522 21.2266 37.2154C21.1913 37.4505 21.0981 37.6624 21.0884 37.9028C21.0643 38.4712 21.0668 38.975 21.0959 39.4142C21.1139 39.6906 21.1387 39.9585 21.1703 40.218C21.1973 40.4418 21.2506 40.6672 21.2536 40.891C21.2551 40.9952 21.2714 41.0921 21.3025 41.1818C21.3661 41.3615 21.3741 41.5458 21.3265 41.7346C21.3197 41.7618 21.3026 41.7853 21.2789 41.8C21.2552 41.8147 21.2267 41.8196 21.1996 41.8135L20.9186 41.7504C20.2891 41.1179 19.7598 40.3033 19.3306 39.3068C18.967 38.4624 18.7807 37.5883 18.7717 36.6843C18.7604 35.5853 19.2524 34.5569 19.9871 33.7516C20.9396 32.7082 22.0199 31.7805 23.2849 31.1479Z" fill="#333841"/>
<path d="M32.2243 34.3059C32.2939 34.5853 32.3164 34.8257 32.2919 35.027C32.2503 35.3651 32.0695 35.6833 31.7495 35.9818C31.7214 36.0078 31.7137 36.0028 31.7262 35.9668C31.8454 35.6232 31.8502 35.2907 31.7405 34.9692C31.7204 34.9111 31.6977 34.9101 31.6721 34.9662C31.5319 35.2732 31.3879 35.5769 31.2402 35.8774C31.0884 36.1876 30.9074 36.4198 30.67 36.6451C30.5563 36.7543 30.5305 36.7365 30.5926 36.5918C30.7061 36.3289 30.6956 35.7286 30.5528 35.4575C30.4702 35.2997 30.3725 35.149 30.2599 35.0052C30.1983 34.9266 30.166 34.9371 30.163 35.0368C30.1504 35.4404 30.0558 35.8185 29.879 36.1711C29.6386 36.6496 29.3261 37.1371 28.9896 37.5804C28.9868 37.5839 28.9833 37.5868 28.9793 37.5888C28.9752 37.5908 28.9708 37.5919 28.9663 37.5919C28.9618 37.5919 28.9573 37.5908 28.9533 37.5888C28.9493 37.5868 28.9457 37.5839 28.943 37.5804C28.7642 37.342 28.5995 37.0981 28.4487 36.8487C28.0859 36.2477 27.8185 35.6993 27.7952 35.0248C27.7927 34.9502 27.7709 34.9441 27.7298 35.0067C27.5968 35.2088 27.4361 35.4252 27.3805 35.6543C27.2979 35.9943 27.3249 36.3281 27.4616 36.6556C27.4877 36.7192 27.4744 36.729 27.4218 36.6849C26.9508 36.2913 26.6977 35.7579 26.4325 35.1795C26.3639 35.0303 26.3341 35.0378 26.3431 35.2021C26.3586 35.484 26.4014 35.7705 26.4715 36.0614C26.4896 36.1345 26.4748 36.1418 26.4272 36.0832C26.0779 35.6513 25.8195 35.3095 25.7369 34.7288C25.7173 34.5901 25.7266 34.4579 25.7647 34.3322C25.7867 34.2595 25.7757 34.2538 25.7316 34.3149C25.631 34.4536 25.5363 34.5911 25.4477 34.7273C25.345 34.8855 25.2561 35.1527 25.181 35.5288C25.173 35.5684 25.1582 35.5711 25.1367 35.5371C24.8081 35.0163 24.6409 34.542 24.6349 34.1143C24.6324 33.911 24.6807 33.6661 24.7798 33.3796C24.8858 33.0724 24.9511 32.8042 25.033 32.524C25.0354 32.5154 25.0396 32.5074 25.0453 32.5006C25.051 32.4937 25.0581 32.4881 25.0661 32.4841C25.0741 32.4802 25.0828 32.4779 25.0918 32.4776C25.1007 32.4772 25.1096 32.4787 25.1179 32.482C26.0779 32.856 27.2731 31.8945 28.2557 31.7503C29.1576 31.6181 29.9824 31.7265 30.7301 32.0756C31.3453 32.364 31.9426 32.6067 32.6276 32.5683C32.7058 32.5638 32.7621 32.53 32.8237 32.4857C32.8324 32.4794 32.8425 32.4752 32.8531 32.4736C32.8637 32.472 32.8746 32.4729 32.8847 32.4764C32.8949 32.4799 32.9041 32.4857 32.9115 32.4935C32.9189 32.5013 32.9244 32.5107 32.9274 32.521C33.0536 32.9452 33.1748 33.3398 33.291 33.7049C33.4607 34.236 33.1895 34.9496 32.9236 35.4297C32.8961 35.4802 32.8745 35.4777 32.859 35.4222C32.7323 34.9664 32.53 34.5891 32.252 34.2901C32.223 34.259 32.2137 34.2643 32.2243 34.3059Z" fill="#FEFEFE"/>
<path d="M25.9954 37.6382C25.9368 37.9126 25.8421 38.1928 25.7715 38.5269C25.3854 40.356 25.6243 42.2213 26.4017 43.9242C26.6001 44.3584 26.8006 44.7856 27.0035 45.2058C27.0066 45.2124 27.0078 45.2199 27.0068 45.2272C27.0058 45.2345 27.0026 45.2414 26.9977 45.2469C26.9928 45.2524 26.9864 45.2564 26.9793 45.2583C26.9722 45.2602 26.9646 45.26 26.9576 45.2576C26.7293 45.1788 26.4972 45.1096 26.2801 45.0022C25.1112 44.423 24.2368 43.6155 23.3639 42.6367C22.0863 41.2049 21.4506 39.5119 21.4566 37.5578C21.4674 34.0419 25.1261 35.8314 25.9683 37.0267C26.108 37.225 26.0407 37.4296 25.9954 37.6382Z" fill="#1F232B"/>
<path d="M28.837 46.337C27.2084 44.2307 26.1102 41.5128 26.0103 38.8393C26.0776 38.8893 28.9234 36.1357 28.9234 38.2661C28.9279 40.6259 28.9134 43.0671 28.8798 45.5896C28.8791 45.6895 28.8964 45.7842 28.9039 45.8848C28.9064 45.9204 28.9044 45.9534 28.8979 45.984C28.8899 46.019 28.8871 46.0548 28.8896 46.0914C28.8931 46.1425 28.8896 46.1841 28.8791 46.2161C28.8656 46.2592 28.8515 46.2995 28.837 46.337Z" fill="#1F232B"/>
</g>
<defs>
<clipPath id="clip0_97_1053">
<rect width="57.6923" height="57.6923" fill="white" transform="translate(0.153809 -3.0769)"/>
</clipPath>
</defs>
</svg>
