<svg width="60" height="60" viewBox="0 0 60 60" fill="none" xmlns="http://www.w3.org/2000/svg">
<g clip-path="url(#clip0_1_9508)">
<path fill-rule="evenodd" clip-rule="evenodd" d="M35.7888 5.97699C35.8226 5.9724 35.8347 5.92927 35.808 5.90799C34.2817 4.69115 32.817 3.34895 31.5041 1.88138C30.9876 1.30408 30.4946 0.707386 30.0306 0.0912892C30.0152 0.0708072 29.9844 0.0708073 29.969 0.0912893C29.505 0.707386 29.012 1.30408 28.4955 1.88138C27.1826 3.3489 25.718 4.69107 24.1917 5.90787C24.165 5.92916 24.1771 5.97229 24.211 5.97688C24.5292 6.02009 24.8671 6.08923 25.2289 6.18703C25.2422 6.19063 25.2565 6.1868 25.2664 6.17713C25.9863 5.47022 27.0542 5.29416 27.5516 5.47285C27.6476 5.5073 27.7415 5.60753 27.833 5.76329C27.8457 5.78482 27.875 5.78967 27.8934 5.77272C28.6112 5.10955 29.3072 4.41525 29.9714 3.68957C29.9866 3.67289 30.013 3.67289 30.0282 3.68957C30.6925 4.4154 31.3887 5.10984 32.1067 5.77314C32.125 5.79009 32.1544 5.78524 32.167 5.7637C32.2586 5.60773 32.3527 5.50737 32.4487 5.47289C32.9461 5.2942 34.014 5.47026 34.7339 6.17716C34.7438 6.18683 34.7581 6.19067 34.7714 6.18707C35.133 6.08932 35.4707 6.0202 35.7888 5.97699ZM44.8076 11.6152C44.7743 11.5981 44.7373 11.6339 44.7537 11.6676C45.087 12.3531 45.2884 13.2204 45.3206 14.4193C45.321 14.4337 45.3295 14.447 45.3426 14.4532C46.6582 15.082 47.8324 15.5913 48.7836 15.9816C49.112 16.1163 49.4143 16.237 49.6872 16.3438C49.7029 16.3499 49.7127 16.3654 49.7116 16.3822C49.6614 17.1273 49.5774 17.8654 49.4623 18.5958C49.4622 18.5964 49.4624 18.5971 49.4628 18.5975C49.4635 18.5981 49.4636 18.5992 49.4631 18.5999L49.4618 18.6017C49.4614 18.6022 49.4612 18.6028 49.4611 18.6035C49.2428 19.9856 48.9134 21.3402 48.492 22.6626C48.4876 22.6763 48.4912 22.6914 48.5015 22.7015C48.9854 23.1779 49.6141 23.6989 50.3562 24.2122C50.377 24.2266 50.4059 24.2172 50.4143 24.1933C51.448 21.2288 52.0704 18.0803 52.0738 14.7941C52.0739 14.7775 52.0654 14.7635 52.0497 14.7582C51.7512 14.6569 48.7137 13.6092 44.8076 11.6152ZM49.584 26.3372C49.5956 26.3098 49.573 26.28 49.5433 26.2836C49.1648 26.3294 48.7425 26.3304 48.2924 26.2707C48.2659 26.2672 48.2436 26.2909 48.249 26.3171C48.3849 26.9808 48.4368 27.7954 48.4406 28.6124C48.4408 28.6528 48.4953 28.666 48.5136 28.6299C48.8942 27.8807 49.2523 27.1161 49.584 26.3372ZM45.3203 33.9259C45.3445 33.8913 45.3037 33.8484 45.2684 33.8715L44.7409 34.2155C44.7244 34.2262 44.7026 34.2229 44.6901 34.2077C44.3039 33.7361 43.8831 33.2228 43.4365 32.6785C43.4203 32.6589 43.3898 32.66 43.3752 32.6809C42.1011 34.4971 40.7219 36.1933 39.3215 37.7493C36.6609 40.7056 33.9938 43.077 31.9912 44.7087C31.2212 45.3362 30.552 45.8521 30.0227 46.2477C30.0091 46.2579 29.9906 46.2579 29.9769 46.2477C29.4476 45.8521 28.7784 45.3362 28.0084 44.7087C26.0058 43.077 23.3388 40.7056 20.6781 37.7493C19.2778 36.1935 17.8988 34.4973 16.6247 32.6813C16.6101 32.6604 16.5796 32.6593 16.5634 32.679C16.117 33.2231 15.6963 33.7362 15.3102 34.2077C15.2977 34.2229 15.2759 34.2262 15.2594 34.2155L14.7306 33.8706C14.6953 33.8476 14.6545 33.8905 14.6787 33.9251C21.0013 42.9761 29.544 48.7965 29.9822 49.0919C29.9951 49.1006 30.0045 49.1006 30.0174 49.0919C30.4556 48.7965 38.9978 42.9765 45.3203 33.9259ZM7.92578 14.7941C7.92576 14.7775 7.93419 14.7635 7.94987 14.7582C8.2484 14.6569 11.2864 13.6091 15.1928 11.6147C15.2262 11.5977 15.2632 11.6334 15.2468 11.6671C14.9134 12.3527 14.7119 13.22 14.6797 14.4189C14.6793 14.4334 14.6708 14.4466 14.6577 14.4529C13.3418 15.0819 12.1674 15.5913 11.216 15.9816C10.8876 16.1163 10.5853 16.2371 10.3124 16.3438C10.2968 16.3499 10.2869 16.3654 10.288 16.3822C10.3382 17.1275 10.4223 17.8659 10.5375 18.5966C10.5376 18.5971 10.5374 18.5975 10.5371 18.5978C10.5366 18.5982 10.5365 18.5989 10.5369 18.5995L10.5378 18.6007C10.5381 18.6011 10.5383 18.6015 10.5383 18.602C10.7566 19.9847 11.0862 21.34 11.5078 22.663C11.5122 22.6768 11.5086 22.6918 11.4983 22.702C11.0144 23.1783 10.3856 23.6993 9.64354 24.2125C9.6227 24.2269 9.59383 24.2176 9.58549 24.1936C8.5517 21.229 7.92927 18.0804 7.92578 14.7941ZM11.5597 28.6137C11.5595 28.6541 11.505 28.6673 11.4867 28.6312C11.1059 27.8815 10.7475 27.1165 10.4156 26.3371C10.4039 26.3097 10.4266 26.2799 10.4562 26.2835C10.835 26.3294 11.2575 26.3304 11.7079 26.2707C11.7344 26.2672 11.7566 26.2908 11.7513 26.3171C11.6154 26.9811 11.5634 27.7962 11.5597 28.6137Z" fill="#11151D"/>
<g clip-path="url(#clip1_1_9508)">
<path d="M38.5187 8.47944C39.7421 8.34823 40.8469 8.68803 41.833 9.49882C42.1282 9.74146 42.4279 10.1749 42.1252 10.5452C42.1204 10.5511 42.1169 10.5579 42.1149 10.5652C42.1129 10.5724 42.1124 10.58 42.1134 10.5875C42.1145 10.595 42.1171 10.6022 42.121 10.6086C42.125 10.615 42.1302 10.6206 42.1364 10.6249C42.3308 10.7606 42.5263 10.9006 42.7231 11.0448C43.6584 11.7299 44.1962 12.9574 44.1775 14.1089C44.1729 14.4252 44.1046 14.7535 44.2503 15.0577C45.0346 16.6908 45.8767 18.3254 47.5496 19.0781C47.7404 19.1643 47.9295 19.2409 48.1168 19.308C48.1478 19.3193 48.1754 19.3383 48.1971 19.3633C48.2188 19.3883 48.2338 19.4183 48.2407 19.4507C48.3068 19.7587 48.3008 20.3206 48.0386 20.5445C47.4196 21.0718 46.2267 21.1702 45.4064 21.1778C45.3819 21.1783 45.3766 21.1888 45.3906 21.2093C45.6961 21.651 45.9736 22.0319 46.223 22.3519C46.5175 22.73 46.873 23.0733 47.2897 23.3818C47.5323 23.5613 47.7952 23.677 48.0634 23.81C48.2833 23.9196 48.4012 24.1022 48.4172 24.3576C48.442 24.752 48.3474 25.2087 47.9815 25.4123C47.7001 25.5695 47.3893 25.6321 47.0493 25.6001C47.0443 25.5996 47.0392 25.6004 47.0347 25.6025C47.0301 25.6046 47.0262 25.608 47.0233 25.6122C47.0204 25.6163 47.0186 25.6213 47.0182 25.6264C47.0177 25.6315 47.0186 25.6367 47.0208 25.6414C47.0543 25.7125 47.0761 25.7866 47.0861 25.8638C47.3661 27.9686 47.2729 30.0342 46.8067 32.0604C46.7173 32.4503 46.6279 32.8582 46.5107 33.2526C46.3259 33.8726 46.0953 34.4873 45.8188 35.0968C45.4688 35.8653 45.1172 36.5361 44.5275 37.1325C44.3237 37.3384 44.063 37.4047 43.7455 37.3316C43.7212 37.326 43.6958 37.3301 43.6744 37.3428C43.653 37.3555 43.6373 37.376 43.6306 37.4C43.2855 38.6485 42.5817 39.6491 41.519 40.4018C41.2463 40.5956 40.8241 40.7834 40.5041 40.6474C40.475 40.6354 40.4527 40.6156 40.4372 40.5881C40.3426 40.4198 40.2895 40.2433 40.278 40.0585C40.272 39.9678 40.2487 39.9631 40.2081 40.0442C39.6094 41.2349 38.7771 42.3256 37.6705 43.0918C37.2454 43.3863 36.8082 43.4584 36.3574 43.188C36.3429 43.1793 36.3258 43.176 36.3091 43.1786C36.2923 43.1812 36.277 43.1896 36.2658 43.2022C35.6476 43.8911 35.0173 44.598 34.2556 45.0848C33.8059 45.3722 33.3331 45.6271 32.8373 45.8495C32.497 46.002 32.0035 46.1349 31.6767 45.9208C31.6221 45.8848 31.5755 45.8931 31.537 45.9456C31.096 46.5368 30.6648 47.1618 30.1135 47.6291C30.0855 47.6526 30.0506 47.6663 30.0143 47.6678C29.9779 47.6693 29.9422 47.6585 29.9129 47.6373C29.8403 47.5848 29.7702 47.5254 29.7025 47.4593C29.2228 46.987 28.8124 46.475 28.4713 45.9231C28.4641 45.9114 28.4545 45.9013 28.4432 45.8934C28.4319 45.8855 28.4192 45.88 28.4057 45.8773C28.3923 45.8745 28.3784 45.8746 28.365 45.8774C28.3516 45.8803 28.339 45.8858 28.3278 45.8938C28.2026 45.9819 28.0737 46.023 27.941 46.017C27.633 46.0027 27.2724 45.8885 26.9817 45.7616C26.1328 45.389 25.3844 44.8739 24.7363 44.2164C24.4344 43.9099 24.1249 43.5904 23.8079 43.2578C23.7856 43.2348 23.7563 43.2198 23.7245 43.2155C23.6928 43.2111 23.6605 43.2176 23.6328 43.2338C23.0341 43.5876 22.4437 43.2766 21.9381 42.8927C21.0272 42.2001 20.327 41.327 19.8378 40.2733C19.7887 40.1676 19.7421 40.1686 19.698 40.2763C19.4186 40.9569 18.7756 40.6444 18.3459 40.3259C17.5231 39.7169 16.9436 38.9685 16.6076 38.0806C16.5114 37.8266 16.4253 37.5772 16.3492 37.3324C16.3407 37.3043 16.3216 37.2895 16.2921 37.288C16.232 37.285 16.1701 37.289 16.1065 37.3001C15.74 37.3627 15.427 37.2422 15.1675 36.9387C14.9016 36.6287 14.6968 36.333 14.5531 36.0516C14.0866 35.1366 13.6839 34.2306 13.3985 33.224C12.7499 30.9384 12.5569 28.6089 12.8193 26.2356C12.8383 26.0648 12.8716 25.8763 12.9192 25.6699C12.9262 25.6384 12.9134 25.6221 12.8809 25.6211C12.3821 25.6091 11.836 25.4513 11.685 24.9202C11.573 24.5274 11.5137 23.9782 11.9952 23.81C12.3913 23.6718 12.7922 23.3923 13.1979 22.9716C13.7047 22.4458 14.1424 21.8816 14.511 21.2792C14.5155 21.2718 14.5181 21.2634 14.5184 21.2548C14.5188 21.2462 14.5169 21.2376 14.513 21.2299C14.5091 21.2222 14.5032 21.2156 14.496 21.2108C14.4888 21.206 14.4805 21.2032 14.4719 21.2025C13.8327 21.159 13.2189 21.1117 12.6097 20.8908C12.0042 20.6714 11.7441 20.2292 11.8292 19.5642C11.8472 19.426 11.9176 19.3366 12.0403 19.296C12.9966 18.9797 13.6892 18.3127 14.2961 17.5367C14.7013 17.0184 15.0248 16.5181 15.2667 16.0358C15.458 15.6537 15.6398 15.2891 15.8121 14.942C15.8436 14.8784 15.8539 14.8103 15.8429 14.7377C15.6423 13.4306 16.0036 12.0852 17.0208 11.2394C17.2426 11.0551 17.4857 10.8843 17.7502 10.727C17.7842 10.7068 17.8092 10.6742 17.82 10.636C17.8308 10.5979 17.8265 10.557 17.808 10.522C17.5165 9.96682 18.0446 9.50633 18.4751 9.24417C19.3615 8.7038 20.2877 8.44038 21.2538 8.4539C21.2603 8.45386 21.2667 8.45203 21.2723 8.44862C21.2779 8.4452 21.2825 8.44033 21.2854 8.43456C21.2884 8.42879 21.2897 8.42234 21.2891 8.41594C21.2886 8.40954 21.2862 8.40343 21.2823 8.39831C21.1839 8.26535 21.069 8.14441 20.9931 7.99492C20.8016 7.62007 21.4273 7.46382 21.6624 7.38269C23.0784 6.89966 24.7409 6.96201 26.1156 7.62082C26.1232 7.62448 26.1315 7.62626 26.14 7.626C26.1484 7.62573 26.1567 7.62344 26.1641 7.61932C26.1714 7.61519 26.1777 7.60935 26.1823 7.60229C26.187 7.59523 26.1898 7.58715 26.1907 7.57875C26.2365 7.14381 26.2951 6.79825 26.7939 6.70435C27.1775 6.63174 27.502 6.73941 27.7674 7.02737C27.7726 7.03312 27.779 7.03761 27.7862 7.0405C27.7933 7.04338 27.801 7.04458 27.8087 7.044C27.8164 7.04341 27.8239 7.04107 27.8305 7.03715C27.8372 7.03322 27.8428 7.02782 27.8471 7.02136C28.1145 6.61871 28.3799 6.19404 28.6434 5.74732C29.0866 4.99462 29.5132 4.31278 29.9234 3.7018C29.9287 3.69404 29.9358 3.68762 29.9441 3.68307C29.9523 3.67851 29.9615 3.67595 29.9708 3.67558C29.9802 3.67522 29.9895 3.67706 29.9979 3.68096C30.0064 3.68486 30.0138 3.69071 30.0196 3.69804C30.0651 3.75664 30.1069 3.81448 30.145 3.87157C30.5446 4.46752 30.9713 5.13785 31.4251 5.88254C31.6624 6.27316 31.8963 6.642 32.1267 6.98906C32.1306 6.995 32.1358 6.99999 32.1419 7.00371C32.148 7.00742 32.1548 7.00975 32.1619 7.01053C32.169 7.01132 32.1762 7.01055 32.183 7.00827C32.1897 7.00598 32.1959 7.00225 32.201 6.99732C32.5263 6.68332 33.0439 6.56613 33.4368 6.81328C33.717 6.98906 33.759 7.26099 33.8064 7.58777C33.8119 7.62633 33.8324 7.63759 33.868 7.62157C34.0267 7.54895 34.1947 7.47984 34.372 7.41424C35.6436 6.94248 36.9449 6.91844 38.276 7.34212C38.5284 7.4225 38.7973 7.57124 38.9994 7.75528C39.0282 7.78137 39.0467 7.81677 39.0518 7.85515C39.0569 7.89354 39.0482 7.93242 39.0272 7.96487C38.916 8.13714 38.7413 8.29239 38.5029 8.43061C38.4323 8.47168 38.4375 8.48796 38.5187 8.47944ZM29.8265 5.44759L27.8388 8.45916C27.8343 8.46573 27.8282 8.47097 27.821 8.47434C27.8138 8.47771 27.8058 8.47909 27.7979 8.47832C27.79 8.47755 27.7824 8.47467 27.776 8.46998C27.7696 8.46529 27.7646 8.45895 27.7614 8.45165C27.6628 8.21176 27.5624 7.98265 27.4602 7.7643C27.3691 7.56949 27.2326 7.46056 27.0508 7.43753C27.0378 7.4359 27.0245 7.43747 27.0122 7.44209C27 7.44671 26.989 7.45424 26.9803 7.46403C26.9717 7.47381 26.9655 7.48555 26.9625 7.49822C26.9595 7.51089 26.9596 7.52409 26.9629 7.53668C27.1036 8.08456 27.2146 8.68577 27.2957 9.34032C26.6421 8.92215 26.1038 8.61366 25.6806 8.41484C25.0581 8.12287 24.357 7.96562 23.5772 7.94308C23.0259 7.92656 22.504 8.04199 22.0117 8.28939C22.0057 8.29239 22.0042 8.2969 22.0072 8.30291V8.30366C22.0122 8.31418 22.0198 8.31668 22.0298 8.31117C22.518 8.05276 23.5044 9.29375 23.7312 9.63855C23.7673 9.69313 23.755 9.70741 23.6944 9.68136C21.9617 8.93217 20.2437 9.06638 18.5404 10.084C18.4733 10.1241 18.4781 10.1366 18.5547 10.1216C19.4647 9.93978 20.3769 10.0146 21.2913 10.3462C22.5323 10.9269 23.7545 11.9282 24.3457 13.191C24.4043 13.3162 24.4491 13.4406 24.4802 13.5643C24.4833 13.5769 24.4832 13.5901 24.4799 13.6026C24.4766 13.6151 24.4702 13.6266 24.4613 13.6361C24.4524 13.6455 24.4413 13.6525 24.429 13.6565C24.4167 13.6605 24.4035 13.6614 24.3908 13.659C24.2295 13.6299 24.0821 13.6349 23.9483 13.674C23.8692 13.697 23.87 13.7163 23.9506 13.7318C24.1016 13.7611 24.4531 13.8047 24.5365 13.9452C24.5571 13.9802 24.5533 14.0128 24.5253 14.0428C24.2909 14.2945 24.043 14.5446 23.7748 14.7557C23.4603 15.0031 23.1486 15.2723 22.8396 15.5633C22.817 15.5848 22.7902 15.5938 22.7592 15.5903C22.6926 15.5818 22.627 15.5738 22.5624 15.5663C21.9637 15.4949 21.3657 15.718 20.7933 15.993C19.8893 16.4282 19.0077 16.9936 18.1483 17.6892C18.0592 17.7613 17.9655 17.8271 17.8674 17.8867C17.1998 17.3143 16.6802 16.6485 16.3086 15.8893C16.2921 15.8552 16.2778 15.8562 16.2658 15.8923C16.2192 16.038 16.1456 16.2033 16.0449 16.3881C15.3103 17.7388 14.4073 19 13.0769 19.7309C12.9507 19.8006 12.8153 19.8561 12.6705 19.8977C12.5869 19.9223 12.5842 19.9536 12.6623 19.9916C13.1776 20.2455 13.874 20.3176 14.4314 20.3372C14.6192 20.3437 14.8152 20.3547 15.0196 20.3702C15.0505 20.3726 15.0816 20.3689 15.1111 20.3592C15.1406 20.3495 15.168 20.3341 15.1916 20.3139C15.607 19.9593 15.9661 19.5619 16.3927 19.2134C16.8931 18.8052 17.4081 18.4061 17.938 18.016C18.3121 17.8221 18.6912 17.6163 19.0753 17.3985C19.6778 17.0564 20.3178 16.8053 20.9954 16.645C21.0204 16.639 21.0304 16.6488 21.0254 16.6743C21.0099 16.7484 20.9713 16.8175 20.9097 16.8816C18.9281 17.5247 17.2101 18.9091 16.0194 20.6053C15.4673 21.3934 14.9414 22.2257 14.3239 22.9889C13.8061 23.6304 13.1899 24.1362 12.4752 24.5063C12.4561 24.5164 12.4401 24.5317 12.4294 24.5505C12.4186 24.5693 12.4135 24.5908 12.4146 24.6123C12.4157 24.6339 12.423 24.6546 12.4357 24.6721C12.4483 24.6895 12.4657 24.7029 12.4857 24.7107C12.7066 24.7971 12.9943 24.7993 13.2249 24.7362C13.7603 24.5895 14.218 24.4107 14.5981 24.1998C15.3233 23.7967 16.0532 23.2731 16.7879 22.6291C17.7314 21.8013 18.6163 20.9319 19.4426 20.0209C19.4712 19.9894 19.5042 19.9633 19.5418 19.9428C19.6164 19.9012 19.6294 19.9155 19.5809 19.9856C19.1745 20.5738 18.7921 21.1748 18.3857 21.7735C17.4189 23.1962 16.1396 24.3283 14.5959 25.1058C14.3575 25.226 14.1209 25.3251 13.886 25.4033C13.8593 25.4122 13.8353 25.4281 13.8166 25.4493C13.7979 25.4706 13.785 25.4964 13.7793 25.5242C13.4833 26.973 13.424 28.4319 13.6013 29.9007C13.8176 31.6968 14.1955 33.4223 14.9181 35.0479C15.1225 35.5082 15.3974 35.9311 15.743 36.3167C15.7785 36.3743 15.8419 36.4349 15.933 36.4985C15.9392 36.5028 15.9465 36.5051 15.954 36.5053C15.9615 36.5055 15.9689 36.5036 15.9753 36.4997C15.9817 36.4958 15.9869 36.4902 15.9902 36.4834C15.9935 36.4767 15.9947 36.4692 15.9939 36.4617C15.9483 36.0871 15.934 35.7105 15.951 35.3319C15.9766 34.7565 16.102 33.076 16.2155 32.4548C16.3121 32.9781 16.4321 34.4978 16.5227 35.0126C16.8277 36.7562 17.3633 38.4201 18.7418 39.6415C18.7863 39.6806 18.7993 39.6721 18.7808 39.616C18.7357 39.4815 18.7065 39.3538 18.6884 39.2096C18.5612 38.192 18.5472 37.3068 18.6464 36.5541C18.8221 35.2237 19.3878 34.0045 20.4372 33.1083C20.9235 32.6932 21.4143 32.3396 21.9096 32.0476C22.7394 31.5589 23.5888 31.1682 24.4577 30.8758C24.5208 30.8547 24.5899 30.8527 24.665 30.8698C24.69 30.8753 24.6918 30.885 24.6702 30.8991L24.2849 31.1477C23.0199 31.7802 21.9396 32.708 20.9871 33.7514C20.2524 34.5567 19.7604 35.5851 19.7717 36.6841C19.7807 37.588 19.967 38.4622 20.3306 39.3065C20.7597 40.3031 21.2891 41.1177 21.9186 41.7502C22.16 41.9921 22.3984 42.2059 22.6337 42.3917C22.7409 42.4763 22.8716 42.5349 23.0259 42.5675C23.0376 42.5699 23.0497 42.5691 23.061 42.5652C23.0722 42.5612 23.0822 42.5543 23.0898 42.5452C23.0974 42.536 23.1023 42.525 23.104 42.5133C23.1057 42.5016 23.1042 42.4897 23.0995 42.4788C22.7725 41.7046 22.5636 40.8923 22.473 40.0419C22.3748 39.1215 22.3693 38.2934 22.4565 37.5577C22.4504 39.5118 23.0862 41.2048 24.3638 42.6366C25.2366 43.6154 26.111 44.423 27.2799 45.0021C27.497 45.1095 27.7291 45.1787 27.9575 45.2575C27.9645 45.2599 27.972 45.2601 27.9792 45.2582C27.9863 45.2563 27.9927 45.2523 27.9976 45.2468C28.0025 45.2413 28.0056 45.2344 28.0067 45.2271C28.0077 45.2198 28.0065 45.2124 28.0033 45.2057C27.8005 44.7855 27.5999 44.3583 27.4016 43.9241C26.6241 42.2212 26.3852 40.3559 26.7714 38.5268C26.842 38.1927 26.9066 37.8885 26.9652 37.6141C26.9727 37.5795 26.9872 37.5485 27.0087 37.5209C27.0263 37.4989 27.0383 37.5014 27.0448 37.5284C27.0533 37.564 27.0546 37.602 27.0485 37.6426L27.0102 38.8393C27.1101 41.5128 28.2084 44.2306 29.837 46.337L29.9775 46.5413C29.9808 46.5461 29.9852 46.55 29.9902 46.5527C29.9953 46.5555 30.001 46.557 30.0068 46.5571C30.0126 46.5573 30.0183 46.5561 30.0235 46.5536C30.0287 46.5511 30.0333 46.5474 30.0368 46.5428C31.8307 44.16 33.0642 41.2469 32.8794 38.2766C32.8629 38.0107 32.8441 37.7458 32.823 37.4818C32.8225 37.4753 32.8238 37.4751 32.8268 37.4811C32.8588 37.5467 32.8824 37.6126 32.8974 37.6787C32.9926 38.0883 33.0892 38.5378 33.1874 39.0271C33.5329 40.7421 33.2122 42.4248 32.5068 44.0045C32.331 44.3977 32.1542 44.7938 31.9764 45.1929C31.9732 45.2 31.9721 45.2079 31.9732 45.2157C31.9744 45.2234 31.9777 45.2306 31.9829 45.2365C31.988 45.2424 31.9948 45.2466 32.0023 45.2488C32.0098 45.2509 32.0178 45.2508 32.0253 45.2485C33.5464 44.7865 34.8738 43.5335 35.8489 42.3128C36.7511 41.1823 37.2882 39.7302 37.4377 38.3149C37.4672 38.0335 37.4895 37.6874 37.5045 37.2768C37.5045 37.2738 37.5063 37.2723 37.5098 37.2723H37.5293C37.5423 37.2723 37.5491 37.2785 37.5496 37.291C37.6002 38.3062 37.5516 39.3393 37.4039 40.3905C37.2977 41.1467 37.1252 41.8023 36.8863 42.3571C36.7992 42.5585 36.85 42.603 37.0388 42.4909C37.1905 42.4007 37.3385 42.2948 37.4827 42.1731C38.6651 41.177 39.4614 39.8151 39.9302 38.354C40.4485 36.7382 40.2412 35.072 39.07 33.7784C38.4015 33.0392 37.6535 32.3794 36.8262 31.799C36.5983 31.6392 36.3392 31.4815 36.0487 31.3257C35.7908 31.187 35.5171 31.035 35.2276 30.8698C35.2246 30.8683 35.2239 30.866 35.2254 30.863L35.2479 30.8119C35.2489 30.8089 35.2512 30.8079 35.2547 30.8089C36.673 31.2526 37.9966 31.9297 39.2255 32.8402C39.8145 33.2764 40.2745 33.7641 40.6055 34.3035C41.1163 35.1358 41.3146 36.1537 41.3469 37.1385C41.375 38.0124 41.3109 38.8353 41.1546 39.607C41.1456 39.6541 41.1594 39.6621 41.1959 39.631C41.7148 39.1973 42.1184 38.7243 42.4069 38.212C42.7244 37.6491 42.967 37.0947 43.1348 36.5489C43.4558 35.5047 43.6574 34.454 43.7395 33.3968C43.745 33.3202 43.7543 33.3197 43.7673 33.3953C43.8559 33.9086 43.9486 34.4527 44.0452 35.0277C44.0603 35.1193 44.0668 35.2513 44.0648 35.4236L43.9964 36.464C43.996 36.4689 43.9971 36.4739 43.9995 36.4782C44.0019 36.4825 44.0055 36.486 44.01 36.4883C44.0144 36.4906 44.0195 36.4916 44.0246 36.4912C44.0296 36.4907 44.0345 36.4888 44.0385 36.4857C44.1722 36.3821 44.2909 36.2491 44.3946 36.0869C44.8658 35.3487 45.2427 34.5274 45.5251 33.6229C45.9237 32.3444 46.1922 31.0235 46.3304 29.6603C46.4766 28.2245 46.3955 26.8418 46.087 25.5122C46.0725 25.4491 46.0354 25.405 45.9758 25.38C44.1043 24.5872 42.5924 23.3447 41.4401 21.6525C41.0414 21.0676 40.6656 20.5052 40.3125 19.9653C40.2069 19.8041 40.2269 19.7868 40.3726 19.9135C40.5552 20.072 40.7031 20.2575 40.8714 20.4288C41.8735 21.4524 42.9377 22.4077 44.064 23.2946C44.7521 23.8365 45.5043 24.2642 46.3206 24.5777C46.7466 24.7422 47.1177 24.8436 47.5368 24.64C47.5479 24.6346 47.5573 24.6263 47.5639 24.6158C47.5705 24.6054 47.5741 24.5934 47.5743 24.5811C47.5744 24.5689 47.5712 24.5568 47.5648 24.5464C47.5584 24.536 47.5493 24.5275 47.5383 24.5221C47.2251 24.3651 46.9036 24.1871 46.6369 23.9715C46.1206 23.5533 45.6879 23.0938 45.3388 22.593C45.0248 22.1428 44.7191 21.6866 44.4216 21.2243C43.7673 20.2065 42.9094 19.1811 41.9171 18.4471C41.0359 17.7966 40.2051 17.3564 39.1737 16.8568C39.0836 16.7998 39.0187 16.7372 38.9791 16.669C38.9656 16.6455 38.9719 16.6375 38.9979 16.645C39.7181 16.8568 40.4062 17.1438 41.0622 17.5059C41.3988 17.6922 41.7358 17.8762 42.0733 18.058C42.9598 18.5899 43.7342 19.2847 44.5178 20.0029C44.6414 20.1166 44.7659 20.221 44.8911 20.3161C44.9131 20.3332 44.9379 20.3422 44.9655 20.3432C45.627 20.3652 46.2808 20.3029 46.9269 20.1561C47.1061 20.1156 47.2694 20.0419 47.4166 19.9353C47.4209 19.9322 47.4243 19.928 47.4264 19.9232C47.4284 19.9183 47.4291 19.913 47.4283 19.9078C47.4275 19.9026 47.4253 19.8977 47.4219 19.8937C47.4186 19.8896 47.4141 19.8866 47.4091 19.8849C45.897 19.3388 44.9429 18.215 44.1805 16.8456C43.9776 16.481 43.8186 16.1542 43.7034 15.8653C43.6864 15.8227 43.6686 15.8222 43.6501 15.8638C43.3166 16.6059 42.817 17.1468 42.2604 17.747C42.1883 17.8246 42.1162 17.8387 42.044 17.7891C41.6519 17.4966 41.2568 17.2069 40.8586 16.9199C40.0433 16.333 39.1797 15.9046 38.2678 15.6346C37.9407 15.538 37.5907 15.5152 37.2176 15.5663C37.1019 15.5821 37.0193 15.54 36.9411 15.4604C36.6236 15.1358 36.2991 14.8394 35.9676 14.5709C35.7685 14.4094 35.5935 14.2254 35.4477 14.0098C35.4402 13.9987 35.4353 13.986 35.4335 13.9727C35.4317 13.9593 35.433 13.9458 35.4373 13.9331C35.4416 13.9203 35.4488 13.9088 35.4583 13.8993C35.4678 13.8898 35.4793 13.8826 35.4921 13.8783C35.6864 13.8127 35.8757 13.7752 36.06 13.7657C36.073 13.7646 36.0838 13.7591 36.0923 13.7491C36.1003 13.7406 36.0953 13.7276 36.0772 13.7101C36.0617 13.6955 36.0437 13.6858 36.0232 13.6808C35.8584 13.6427 35.6849 13.6547 35.5026 13.7168C35.4963 13.7189 35.4897 13.7192 35.4833 13.7178C35.4769 13.7165 35.4709 13.7134 35.4661 13.7089C35.4613 13.7045 35.4577 13.6989 35.4558 13.6926C35.4539 13.6863 35.4537 13.6796 35.4552 13.6733C35.6355 12.9513 36.0757 12.3894 36.5693 11.8546C37.0325 11.3528 37.5604 10.9304 38.1528 10.5873C38.4909 10.4115 38.7593 10.2969 38.9581 10.2433C39.6587 10.0555 40.3859 9.99787 41.1396 10.0705C41.2748 10.0835 41.2838 10.0555 41.1666 9.98635C39.7609 9.16303 38.28 8.99076 36.724 9.46953C36.5024 9.53789 36.2921 9.65808 36.0697 9.72794C36.0242 9.74246 36.0159 9.73044 36.0449 9.69188C36.2212 9.46151 36.3983 9.23866 36.576 9.02331C36.8908 8.6417 37.2987 8.41484 37.7036 8.14065C37.7372 8.11811 37.7344 8.10209 37.6953 8.09257C36.5064 7.80611 35.3789 7.90928 34.3127 8.40207C34.1629 8.47168 33.9043 8.62417 33.5367 8.85955C33.2873 9.0188 33.0269 9.1708 32.7554 9.31553C32.801 8.70706 32.8997 8.12512 33.0514 7.56974C33.0549 7.55681 33.0553 7.54323 33.0525 7.53013C33.0497 7.51703 33.0437 7.5048 33.0352 7.49448C33.0266 7.48416 33.0157 7.47606 33.0034 7.47085C32.991 7.46564 32.9776 7.46349 32.9643 7.46457C32.8726 7.47208 32.7727 7.53518 32.7156 7.61105C32.5083 7.88749 32.333 8.16569 32.1898 8.44564C32.1778 8.46867 32.1642 8.46968 32.1492 8.44864C31.3925 7.39095 30.6806 6.30947 30.0135 5.2042C29.998 5.17866 29.9827 5.17866 29.9677 5.2042L29.8265 5.44759ZM40.7918 14.6461C40.0827 14.5093 39.3748 14.4778 38.6681 14.5514C38.6148 14.5574 38.5464 14.5349 38.4924 14.5356C38.4368 14.5366 38.4353 14.5456 38.4879 14.5627C38.717 14.6363 38.9416 14.6934 39.1549 14.8106C40.0443 15.2981 40.948 15.8818 41.7398 16.4384C41.7944 16.477 41.8547 16.5045 41.9208 16.5211C41.9489 16.5281 41.9739 16.5218 41.996 16.5023C42.0771 16.4292 42.152 16.3495 42.2206 16.2634C42.8253 15.5092 43.2001 14.755 43.1483 13.7611C43.0882 12.6035 42.2927 11.7524 41.2004 11.3956C40.7097 11.2354 40.2812 11.183 39.9151 11.2386C38.6912 11.4239 37.8245 12.0807 37.3152 13.209C37.3042 13.234 37.3092 13.2381 37.3302 13.221C37.8666 12.7823 38.705 12.6035 39.3893 12.6103C39.9943 12.6163 40.5744 12.6897 41.1298 12.8304C41.2435 12.8589 41.2418 12.8752 41.1246 12.8792C40.6072 12.8978 40.123 13.0024 39.6717 13.1932C39.1256 13.4239 38.593 13.7048 38.125 14.0999C38.0905 14.129 38.0957 14.1433 38.1408 14.1428C39.0588 14.133 39.9519 14.2329 40.7985 14.6235C40.8571 14.6506 40.8549 14.6581 40.7918 14.6461ZM19.0558 14.6686C19.0528 14.6616 19.0523 14.6551 19.0543 14.6491C19.0573 14.6405 19.063 14.6345 19.0715 14.631C19.4106 14.4998 19.7228 14.3929 20.0083 14.3103C20.5577 14.151 21.1514 14.0944 21.7894 14.1405C21.8229 14.143 21.8267 14.1337 21.8007 14.1127C21.5688 13.9239 21.3279 13.7614 21.078 13.6252C20.4628 13.2916 19.8025 12.9521 19.1189 12.877C18.7993 12.8414 18.7978 12.7956 19.1144 12.7395C19.4514 12.6794 19.8025 12.6378 20.1675 12.6148C20.6608 12.5833 21.1724 12.6434 21.7022 12.7951C22.0288 12.8887 22.3272 13.066 22.5977 13.3269C22.5989 13.3281 22.6004 13.3287 22.602 13.3288C22.6036 13.3289 22.6052 13.3284 22.6065 13.3274C22.6078 13.3263 22.6086 13.3249 22.609 13.3233C22.6093 13.3217 22.609 13.3201 22.6082 13.3187C22.4705 13.0773 22.3333 12.8419 22.1965 12.6126C21.9171 12.1431 21.4701 11.7983 20.9916 11.5458C20.1615 11.1079 19.1452 11.153 18.3316 11.5571C17.4211 12.0093 16.9314 12.7538 16.8623 13.7904C16.8087 14.5882 17.0398 15.3379 17.5556 16.0395C17.6886 16.2198 17.805 16.4009 17.9785 16.5466C17.9913 16.5574 18.0072 16.5641 18.024 16.5657C18.0407 16.5673 18.0576 16.5638 18.0724 16.5556C18.1731 16.499 18.2582 16.4432 18.3278 16.3881C19.0663 15.8022 19.8791 15.3357 20.6731 14.8263C20.8293 14.7262 21.0717 14.6566 21.4003 14.6175C21.4038 14.617 21.4055 14.6153 21.4055 14.6123L21.404 14.592C21.4037 14.5862 21.4012 14.5808 21.3972 14.5767C21.3932 14.5727 21.3878 14.5704 21.3822 14.5702C20.7748 14.5497 20.2329 14.5487 19.7566 14.5672C19.5628 14.5752 19.3335 14.611 19.0685 14.6746C19.0625 14.6756 19.0583 14.6736 19.0558 14.6686Z" fill="#FEFEFE"/>
<path d="M32.7556 9.31554C32.7205 9.33257 32.6847 9.39642 32.6482 9.5071C32.3777 10.3314 32.1609 11.0278 31.9976 11.5962C31.9966 11.5992 31.9065 11.8806 31.7272 12.4405C31.5689 12.9373 31.4755 13.4524 31.447 13.9858L30.1662 14.8624C30.1121 14.8759 30.069 14.8774 30.037 14.8669C30.009 14.8579 29.9894 14.8266 29.9784 14.773C29.9614 14.6934 29.9529 14.625 29.9529 14.5679C29.9431 11.7179 29.9701 8.6928 29.8958 5.7586C29.8943 5.71002 29.8712 5.60636 29.8267 5.4476L29.9679 5.20421C29.9829 5.17867 29.9982 5.17867 30.0137 5.20421C30.6808 6.30948 31.3927 7.39096 32.1494 8.44865C32.1644 8.46969 32.1779 8.46869 32.1899 8.44565C32.3332 8.1657 32.5085 7.88751 32.7158 7.61107C32.7729 7.53519 32.8728 7.47209 32.9644 7.46458C32.9778 7.4635 32.9912 7.46565 33.0036 7.47086C33.0159 7.47607 33.0268 7.48417 33.0354 7.49449C33.0439 7.50481 33.0499 7.51704 33.0527 7.53014C33.0555 7.54324 33.0551 7.55683 33.0516 7.56975C32.8998 8.12514 32.8012 8.70707 32.7556 9.31554Z" fill="#11151D"/>
<path d="M29.8266 5.44775C29.8712 5.60651 29.8942 5.71017 29.8957 5.75875C29.9701 8.69295 29.9431 11.718 29.9528 14.5681C29.9528 14.6252 29.9613 14.6935 29.9784 14.7732C29.9894 14.8268 30.0089 14.8581 30.037 14.8671C30.069 14.8776 30.1121 14.8761 30.1662 14.8626L30.3465 14.8596C30.374 14.8596 30.3858 14.8731 30.3818 14.9001C30.1669 16.4281 30.1023 17.8779 29.9964 19.3044C29.9966 19.3051 29.9965 19.3058 29.9962 19.3064C29.9958 19.3069 29.9952 19.3072 29.9945 19.3072C29.9938 19.3072 29.9931 19.3069 29.9924 19.3064C29.9918 19.3058 29.9913 19.3051 29.9911 19.3044C29.8687 17.8486 29.8229 16.4469 29.6103 14.9084C29.6069 14.8847 29.6125 14.8606 29.6261 14.8408C29.6301 14.8353 29.6338 14.83 29.6373 14.825C29.6538 14.8 29.6503 14.7782 29.6268 14.7597L28.633 13.9972C28.5348 13.3837 28.4184 12.8661 28.2837 12.4444C27.9336 11.3507 27.6043 10.316 27.2958 9.34048C27.2147 8.68593 27.1038 8.08472 26.963 7.53685C26.9597 7.52425 26.9596 7.51105 26.9626 7.49838C26.9657 7.48572 26.9718 7.47398 26.9805 7.46419C26.9891 7.45441 27.0001 7.44687 27.0124 7.44225C27.0247 7.43763 27.0379 7.43607 27.0509 7.43769C27.2327 7.46072 27.3692 7.56965 27.4603 7.76446C27.5625 7.98281 27.6629 8.21193 27.7616 8.45181C27.7647 8.45912 27.7697 8.46545 27.7761 8.47014C27.7826 8.47483 27.7901 8.47771 27.798 8.47848C27.8059 8.47925 27.8139 8.47788 27.8211 8.47451C27.8283 8.47113 27.8345 8.46589 27.8389 8.45932L29.8266 5.44775Z" fill="#333841"/>
<path d="M38.1528 10.5875C38.0626 10.5319 37.9549 10.5111 37.8297 10.5252C37.68 10.5417 37.5345 10.575 37.3933 10.6251C37.2385 10.6792 37.1341 10.8482 36.9771 10.9256C36.3206 11.2501 35.7023 11.6117 35.1224 12.0103C35.0212 12.0799 34.8607 12.2224 34.6409 12.4377C34.5277 12.5489 34.4203 12.6879 34.3186 12.8546C34.228 13.0044 34.1368 13.1549 34.0452 13.3061C33.1362 13.2185 32.2701 13.4451 31.4468 13.986C31.4753 13.4526 31.5687 12.9375 31.727 12.4407C31.9063 11.8808 31.9964 11.5994 31.9974 11.5964C32.1607 11.028 32.3775 10.3316 32.6479 9.50728C32.6845 9.39661 32.7203 9.33276 32.7554 9.31573C33.0268 9.171 33.2872 9.019 33.5366 8.85975C33.9042 8.62437 34.1629 8.47188 34.3126 8.40227C35.3788 7.90948 36.5064 7.80631 37.6953 8.09277C37.7343 8.10229 37.7371 8.11831 37.7035 8.14085C37.2986 8.41504 36.8907 8.6419 36.576 9.02351C36.3982 9.23886 36.2212 9.46171 36.0449 9.69208C36.0158 9.73064 36.0241 9.74266 36.0697 9.72814C36.292 9.65828 36.5024 9.53808 36.724 9.46972C38.28 8.99096 39.7608 9.16323 41.1666 9.98655C41.2838 10.0557 41.2747 10.0837 41.1395 10.0707C40.3858 9.99807 39.6587 10.0557 38.958 10.2435C38.7592 10.297 38.4908 10.4117 38.1528 10.5875Z" fill="#1F232B"/>
<path d="M27.2959 9.34044C27.6044 10.316 27.9337 11.3507 28.2837 12.4444C28.4185 12.8661 28.5349 13.3837 28.633 13.9971C27.7166 13.5532 26.9271 13.2542 25.8964 13.2835C25.628 12.675 25.2198 12.1765 24.672 11.7879C24.0718 11.3619 23.4535 11.0945 22.7767 10.803C22.3004 10.598 21.8121 10.4883 21.3479 10.2982C21.3401 10.2948 21.3311 10.2943 21.3224 10.2967C21.2843 10.3067 21.274 10.3233 21.2916 10.3463C20.3771 10.0148 19.4649 9.9399 18.5549 10.1217C18.4783 10.1367 18.4735 10.1242 18.5407 10.0841C20.2439 9.0665 21.9619 8.93229 23.6946 9.68148C23.7552 9.70753 23.7675 9.69325 23.7315 9.63867C23.5046 9.29386 22.5183 8.05288 22.03 8.31129C22.02 8.3168 22.0125 8.3143 22.0074 8.30378V8.30303C22.0044 8.29702 22.0059 8.29251 22.012 8.28951C22.5042 8.04211 23.0261 7.92668 23.5775 7.9432C24.3572 7.96574 25.0583 8.12299 25.6808 8.41496C26.104 8.61378 26.6424 8.92227 27.2959 9.34044Z" fill="#E38929"/>
<path d="M25.8963 13.2834C25.5688 13.5354 25.2377 13.7752 24.9032 14.0031C24.5374 14.2525 24.2196 14.5395 23.8673 14.7971C23.518 15.054 23.1717 15.3417 22.8599 15.6437C22.6136 15.8821 22.3664 16.2001 22.1185 16.5978C21.8526 17.0224 21.5634 17.5753 21.2509 18.2564C20.9369 18.9395 20.729 19.7405 20.6274 20.6595C20.5004 21.8126 20.5665 23.0716 20.9098 24.1721C21.2666 25.3147 21.9855 26.2935 22.8374 27.1424C23.181 27.4844 23.5648 27.7816 23.989 28.034C23.9932 28.0364 23.998 28.0376 24.0028 28.0374C24.0076 28.0373 24.0123 28.0358 24.0163 28.0331C24.0203 28.0305 24.0236 28.0268 24.0256 28.0225C24.0277 28.0181 24.0285 28.0133 24.0281 28.0085C23.99 27.6845 23.9532 27.3497 23.9176 27.0042C23.8901 26.7412 23.842 26.5487 23.7734 26.4265C23.6923 26.2832 23.5936 26.1418 23.4774 26.002C23.1765 25.642 22.8905 25.2857 22.6196 24.9331C21.8992 23.9933 21.5829 22.7261 21.5363 21.5707C21.5348 21.5362 21.5373 21.5359 21.5438 21.57C21.5769 21.7387 21.6104 21.9045 21.6445 22.0673C21.8135 22.8673 22.2793 23.5914 22.8907 24.1293C23.2373 24.4343 23.5846 24.7308 23.9327 25.0187C24.0779 25.1389 24.1773 25.2857 24.2309 25.4589C24.2389 25.484 24.2524 25.4875 24.2715 25.4694C24.9821 24.8154 25.5783 24.0692 26.0601 23.2309C26.2043 22.9792 26.3493 22.7944 26.302 22.5014C26.2426 22.1394 26.1126 21.7645 25.9579 21.4325C25.9166 21.3446 25.861 21.2792 25.7596 21.2657C25.4696 21.2292 25.1797 21.1808 24.8897 21.1207C24.1813 20.9743 23.826 20.4101 23.5233 19.8031C23.4917 19.7395 23.4386 19.6967 23.364 19.6747C23.1036 19.5976 22.8637 19.4951 22.6443 19.3674C22.5817 19.3309 22.586 19.3068 22.6571 19.2953C23.2288 19.2044 23.7389 18.9047 24.303 18.8115C25.0807 18.6833 25.7238 18.92 26.2321 19.5214C26.3418 19.6521 26.4537 19.8482 26.4627 20.0127C26.4938 20.5821 26.5621 21.1708 26.6678 21.7788C26.7023 21.9794 26.6806 22.2205 26.5619 22.3985C26.4229 22.6089 26.3515 22.847 26.2231 23.0701C25.5538 24.2322 24.8236 25.3297 24.306 26.5805C24.1918 26.8564 24.15 27.1729 24.1806 27.53C24.1826 27.5545 24.1961 27.5668 24.2211 27.5668C25.0154 27.5538 25.7789 27.6554 26.5115 27.8718C26.5982 27.8973 26.5962 27.9094 26.5055 27.9078C25.9131 27.8953 25.3136 27.846 24.7072 27.7599C24.5314 27.7351 24.3488 27.7441 24.1738 27.7223C24.1549 27.7202 24.1359 27.7256 24.121 27.7374C24.1061 27.7493 24.0964 27.7665 24.0942 27.7854C24.0661 28.0303 24.0746 28.2634 24.1197 28.4848C24.125 28.5114 24.1393 28.5354 24.1601 28.5528C24.1808 28.5701 24.2069 28.5798 24.2339 28.5802C25.0592 28.5907 25.9088 28.6846 26.7827 28.8619C26.8613 28.8779 26.8608 28.8917 26.7812 28.9032C26.7021 28.9147 26.6222 28.9197 26.5416 28.9182C25.7754 28.9007 25.0186 28.8383 24.2715 28.7312C24.2309 28.7252 24.2121 28.7427 24.2151 28.7838C24.2351 29.0657 24.2815 29.2843 24.3541 29.4395C24.3701 29.4736 24.3959 29.4964 24.4315 29.5079C24.7374 29.6061 25.0537 29.6652 25.3802 29.6852C26.0824 29.7278 26.7311 29.7493 27.3266 29.7498C27.612 29.7503 27.6153 29.7813 27.3364 29.8429C26.485 30.0312 25.5315 29.9744 24.4758 29.6724C24.4482 29.6649 24.4355 29.6754 24.4375 29.704C24.4585 30.0202 24.6388 30.3327 24.744 30.6234C25.0249 31.4032 25.7258 32.0372 26.6024 31.938C27.0281 31.89 27.4733 31.7528 27.9381 31.5264C28.4048 31.299 28.8916 31.0446 29.3984 30.7632C29.5091 30.7016 29.5835 30.6217 29.6215 30.5235C29.7026 30.3124 29.8566 29.5027 29.6125 29.3239C29.281 29.081 28.9692 28.7625 28.6773 28.3683C28.4008 27.9957 28.1454 27.9402 27.721 27.8282C27.3173 27.7221 27.0036 27.4954 26.7797 27.1484C26.64 26.9313 26.4071 26.5159 26.4131 26.2469C26.4156 26.1157 26.4675 26.0919 26.5686 26.1756C26.7419 26.3188 26.929 26.4846 27.1298 26.6729C27.1368 26.6793 27.145 26.6843 27.1539 26.6876C27.1628 26.6908 27.1723 26.6923 27.1818 26.6919C27.1913 26.6914 27.2006 26.6891 27.2092 26.6851C27.2178 26.6811 27.2255 26.6754 27.2319 26.6684C27.5377 26.3326 27.9366 26.3025 28.3723 26.4115C28.7501 26.5061 29.137 26.6075 29.5381 26.6346C30.1872 26.6771 30.8227 26.6065 31.4447 26.4227C31.8623 26.2995 32.3544 26.3123 32.6661 26.6473C32.6854 26.6682 32.7121 26.6807 32.7406 26.6821C32.7691 26.6835 32.7971 26.6737 32.8186 26.6548C33.0074 26.4881 33.196 26.3318 33.3843 26.1861C33.4163 26.1611 33.4541 26.1543 33.4977 26.1658C33.5096 26.169 33.5199 26.1762 33.5268 26.1862C33.5337 26.1961 33.5367 26.2081 33.5353 26.2199C33.4356 26.9971 33.0435 27.5192 32.3589 27.7862C32.093 27.8898 31.7684 27.9011 31.5326 28.0611C31.2907 28.2256 31.0811 28.5486 30.9038 28.7792C30.7588 28.967 30.5725 29.0955 30.4043 29.2593C30.1226 29.535 30.2157 30.1111 30.2833 30.486C30.3034 30.5956 30.3642 30.682 30.4659 30.7451C30.9797 31.0621 31.5115 31.3213 32.0629 31.5655C32.9861 31.9741 34.0626 32.228 34.798 31.2935C34.9518 31.0977 35.0515 30.9384 35.097 30.8158C35.1902 30.5638 35.2896 30.3225 35.3953 30.0916C35.4173 30.043 35.4448 30.0052 35.4779 29.9782C35.4984 29.9611 35.5062 29.9398 35.5012 29.9143L35.4809 29.8151C35.4664 29.741 35.4223 29.712 35.3487 29.728C34.2985 29.9579 33.3973 30.0057 32.6451 29.8715C32.3817 29.8249 32.3837 29.7946 32.6511 29.7806C33.2531 29.75 33.8455 29.7197 34.4285 29.6897C34.7224 29.6747 35.0399 29.6253 35.381 29.5417C35.5227 29.5067 35.6149 29.4195 35.6574 29.2803C35.6985 29.1461 35.7258 28.9963 35.7393 28.8311C35.7448 28.759 35.712 28.7287 35.6409 28.7402C34.9167 28.8609 34.1057 28.9137 33.2078 28.8987C33.2037 28.8987 33.2012 28.8969 33.2002 28.8934C33.1977 28.8859 33.1987 28.8797 33.2032 28.8746C33.2083 28.8691 33.2145 28.8656 33.222 28.8641C33.4061 28.8243 33.5849 28.777 33.7689 28.7537C34.4575 28.6676 35.1408 28.5822 35.8189 28.4975C35.85 28.4935 35.8675 28.476 35.8715 28.445C35.9001 28.2066 35.9018 27.9524 35.8768 27.6825C35.8738 27.6509 35.8575 27.6412 35.8279 27.6532C35.7678 27.6787 35.7057 27.6973 35.6416 27.7088C34.9786 27.83 34.289 27.9056 33.5728 27.9356C33.5203 27.9376 33.5137 27.9214 33.5533 27.8868C33.5603 27.8803 33.5834 27.8723 33.6224 27.8628C34.3326 27.688 35.0507 27.5698 35.7769 27.5082C35.8024 27.5062 35.8157 27.4922 35.8167 27.4661C35.8242 27.2478 35.7929 27.046 35.7228 26.8607C35.3374 25.8428 34.7883 24.861 34.1821 23.9227C33.8701 23.4395 33.5949 22.9306 33.3565 22.3963C33.2543 22.1674 33.2305 21.9431 33.2851 21.7232C33.4083 21.2234 33.4704 20.7048 33.4714 20.1675C33.4722 19.6011 33.7727 19.4035 34.1881 19.1263C34.4009 18.9841 34.5812 18.8884 34.7289 18.8393C35.2082 18.6801 35.858 18.8138 36.3613 19.0211C36.6543 19.1421 36.9623 19.2412 37.2642 19.3336C37.3123 19.3482 37.3141 19.3669 37.2695 19.39C37.0111 19.5237 36.631 19.6371 36.4522 19.8617C36.199 20.1802 35.9879 20.5866 35.6604 20.8248C35.224 21.141 34.7214 21.2252 34.1836 21.2409C34.152 21.2419 34.1257 21.2542 34.1047 21.2777C33.8478 21.5662 33.7231 22.0425 33.6382 22.4263C33.5881 22.6527 33.6289 22.8796 33.7606 23.1069C34.0646 23.6323 34.3997 24.1238 34.7657 24.5815C35.0279 24.9091 35.387 25.1742 35.6514 25.5078C35.6855 25.5508 35.698 25.5453 35.689 25.4912C35.6604 25.3139 35.9481 25.0398 36.0578 24.9474C36.4094 24.6534 36.7457 24.3644 37.0667 24.0805C37.7032 23.5181 38.1274 22.837 38.3392 22.0372C38.3527 21.9851 38.3575 21.9859 38.3535 22.0395C38.2714 23.1262 37.91 24.111 37.2695 24.9939C37.0171 25.342 36.7467 25.6888 36.4582 26.0344C36.2569 26.2757 36.1344 26.5442 36.0909 26.8396C36.0373 27.2022 36.0055 27.564 35.9955 27.9251C35.9954 27.9272 35.9959 27.9292 35.9969 27.9311C35.9979 27.9329 35.9992 27.9345 36.0009 27.9357C36.0026 27.9369 36.0046 27.9376 36.0067 27.9379C36.0087 27.9381 36.0108 27.9379 36.0127 27.9371C36.2261 27.85 36.4161 27.7391 36.5829 27.6044C37.1809 27.1221 37.7047 26.57 38.1544 25.948C38.8162 25.0322 39.2001 23.9903 39.3143 22.9056C39.4951 21.1843 39.2429 19.5745 38.5578 18.0761C38.2468 17.397 37.9065 16.7412 37.4596 16.1523C37.1926 15.8007 36.8548 15.4502 36.4462 15.1006C35.8943 14.6284 35.4651 14.2926 35.1586 14.0932C34.6493 13.7627 34.2782 13.5003 34.0453 13.306C34.137 13.1547 34.2281 13.0043 34.3188 12.8545C34.4204 12.6877 34.5279 12.5488 34.641 12.4376C34.8609 12.2223 35.0214 12.0798 35.1226 12.0102C35.7025 11.6115 36.3207 11.2499 36.9773 10.9254C37.1343 10.8481 37.2387 10.679 37.3934 10.6249C37.5347 10.5749 37.6802 10.5416 37.8299 10.525C37.9551 10.511 38.0628 10.5318 38.1529 10.5874C37.5605 10.9304 37.0326 11.3529 36.5694 11.8547C36.0758 12.3895 35.6356 12.9514 35.4553 13.6733C35.4538 13.6797 35.454 13.6864 35.4559 13.6926C35.4578 13.6989 35.4614 13.7046 35.4662 13.709C35.471 13.7135 35.477 13.7165 35.4834 13.7179C35.4898 13.7193 35.4964 13.7189 35.5027 13.7169C35.685 13.6548 35.8585 13.6428 36.0233 13.6808C36.0438 13.6858 36.0618 13.6956 36.0773 13.7101C36.0954 13.7277 36.1004 13.7407 36.0924 13.7492C36.0839 13.7592 36.0731 13.7647 36.0601 13.7657C35.8758 13.7752 35.6865 13.8128 35.4922 13.8784C35.4794 13.8827 35.4679 13.8899 35.4584 13.8994C35.4489 13.9089 35.4417 13.9204 35.4374 13.9331C35.4331 13.9459 35.4318 13.9594 35.4336 13.9727C35.4354 13.986 35.4403 13.9987 35.4478 14.0099C35.5936 14.2255 35.7686 14.4095 35.9677 14.571C36.2992 14.8394 36.6237 15.1359 36.9412 15.4604C37.0193 15.5401 37.102 15.5821 37.2177 15.5664C37.5908 15.5153 37.9408 15.5381 38.2678 15.6347C39.1798 15.9046 40.0434 16.3331 40.8587 16.92C41.2569 17.207 41.652 17.4967 42.0441 17.7892L42.0779 17.8906C42.0782 17.8918 42.0789 17.893 42.0799 17.8938C42.0809 17.8946 42.0821 17.8952 42.0834 17.8953C42.0848 17.8955 42.0862 17.8953 42.0875 17.8947C42.0887 17.8941 42.0899 17.8932 42.0907 17.8921C42.0942 17.8861 42.0952 17.8796 42.0937 17.8725C42.0857 17.8385 42.0937 17.8342 42.1178 17.8598C42.1253 17.8678 42.1313 17.8768 42.1358 17.8868C42.1463 17.9114 42.1385 17.9261 42.1125 17.9311C42.098 17.9336 42.087 17.9414 42.0794 17.9544C42.0694 17.9709 42.0739 17.9805 42.093 17.983C42.1005 17.984 42.1045 17.9885 42.105 17.9965C42.1055 18.007 42.105 18.0175 42.1035 18.028C42.101 18.0446 42.091 18.0546 42.0734 18.0581C41.7359 17.8763 41.3989 17.6923 41.0623 17.506C40.4063 17.1439 39.7182 16.8569 38.998 16.6451C38.972 16.6376 38.9657 16.6456 38.9792 16.6691C39.0188 16.7372 39.0837 16.7998 39.1738 16.8569C39.1112 17.0372 39.123 17.241 39.2091 17.4684C39.4244 18.0358 39.6551 18.7054 39.901 19.4771C39.958 19.6569 39.9916 19.8342 40.0016 20.009C40.0121 20.1948 40.0462 20.375 40.1038 20.5498C40.1724 20.7572 40.2295 20.979 40.2751 21.2154C40.3241 21.4678 40.3802 21.7207 40.4433 21.9741C40.5583 22.4338 40.6431 22.9116 40.722 23.3834C40.7791 23.7224 40.7954 24.1175 40.7709 24.5688C40.7483 24.9767 40.6108 25.362 40.5019 25.7466C40.4889 25.7935 40.4893 25.8431 40.5031 25.8897C40.5169 25.9363 40.5436 25.9781 40.58 26.0103C40.7148 26.129 40.8467 26.2382 40.9759 26.3378C42.3228 27.3745 43.4729 28.768 43.9845 30.3778C44.1958 31.0444 44.3416 31.621 44.4217 32.1078C44.5369 32.8059 44.5549 33.6601 44.4758 34.6702C44.4658 34.7969 44.4375 34.9208 44.3909 35.042C44.3483 35.1522 44.312 35.2649 44.282 35.3801C44.2768 35.4005 44.2663 35.4192 44.2517 35.4344C44.2371 35.4496 44.2188 35.4608 44.1986 35.4668C44.1783 35.4727 44.1569 35.4734 44.1364 35.4686C44.1158 35.4638 44.0969 35.4537 44.0814 35.4394L44.0649 35.4236C44.0669 35.2514 44.0604 35.1194 44.0453 35.0277C43.9487 34.4528 43.856 33.9087 43.7674 33.3954C43.7544 33.3198 43.7451 33.3203 43.7396 33.3969C43.6575 34.4541 43.4559 35.5048 43.1349 36.5489C42.9671 37.0948 42.7245 37.6492 42.407 38.2121C42.1185 38.7244 41.7149 39.1974 41.196 39.6311C41.1595 39.6622 41.1457 39.6541 41.1547 39.6071C41.311 38.8353 41.3751 38.0125 41.347 37.1386C41.3147 36.1538 41.1164 35.1359 40.6056 34.3036C40.2746 33.7642 39.8146 33.2764 39.2256 32.8402C37.9967 31.9298 36.673 31.2527 35.2548 30.809C35.2513 30.808 35.249 30.809 35.248 30.812L35.2255 30.8631C35.224 30.8661 35.2247 30.8683 35.2277 30.8698C35.5172 31.0351 35.7909 31.1871 36.0488 31.3258C36.3393 31.4816 36.5984 31.6393 36.8263 31.7991C37.6536 32.3795 38.4016 33.0393 39.0701 33.7785C40.2413 35.0721 40.4486 36.7382 39.9303 38.3541C39.4615 39.8152 38.6652 41.1771 37.4828 42.1732C37.3386 42.2949 37.1906 42.4008 37.0389 42.4909C36.8501 42.6031 36.7992 42.5585 36.8864 42.3572C37.1253 41.8023 37.2978 41.1468 37.404 40.3906C37.5517 39.3394 37.6003 38.3062 37.5497 37.2911C37.5492 37.2786 37.5424 37.2723 37.5294 37.2723H37.5099C37.5064 37.2723 37.5046 37.2738 37.5046 37.2768C37.4896 37.6875 37.4673 38.0336 37.4378 38.315C37.2883 39.7303 36.7512 41.1823 35.849 42.3129C34.8739 43.5336 33.5465 44.7866 32.0254 45.2486C32.0179 45.2509 32.0099 45.251 32.0024 45.2488C31.9949 45.2467 31.9881 45.2425 31.983 45.2366C31.9778 45.2307 31.9745 45.2235 31.9733 45.2157C31.9722 45.208 31.9733 45.2001 31.9765 45.193C32.1543 44.7939 32.3311 44.3977 32.5069 44.0046C33.2123 42.4248 33.533 40.7421 33.1875 39.0271C33.0893 38.5379 32.9927 38.0884 32.8975 37.6787C32.8825 37.6126 32.8589 37.5468 32.8269 37.4812C32.8239 37.4752 32.8226 37.4754 32.8231 37.4819C32.8442 37.7458 32.8629 38.0108 32.8795 38.2767C33.0643 41.2469 31.8308 44.1601 30.0369 46.5429C30.0334 46.5475 30.0288 46.5512 30.0236 46.5536C30.0184 46.5561 30.0127 46.5573 30.0069 46.5572C30.0011 46.5571 29.9954 46.5555 29.9903 46.5528C29.9853 46.5501 29.9809 46.5462 29.9776 46.5414L29.8371 46.3371C29.8516 46.2995 29.8657 46.2592 29.8792 46.2161C29.8897 46.1841 29.8932 46.1425 29.8897 46.0914C29.8872 46.0549 29.8899 46.0191 29.898 45.984C29.9045 45.9535 29.9065 45.9204 29.904 45.8849C29.8965 45.7842 29.8792 45.6895 29.8799 45.5896C29.9135 43.0671 29.928 40.6259 29.9235 38.2662C29.9235 37.9742 29.7372 37.4504 29.3774 37.56C29.3098 37.5936 29.2361 37.6046 29.1565 37.5931C29.1325 37.5891 29.1102 37.5941 29.0897 37.6081L28.4632 38.0393C28.4568 38.0437 28.4518 38.0497 28.4489 38.0566C28.4369 38.0841 28.4151 38.0987 28.3835 38.1002C28.2926 38.1032 28.2002 38.161 28.1431 38.2256C28.1351 38.2348 28.1253 38.2422 28.1143 38.2472C28.1033 38.2523 28.0913 38.2549 28.0793 38.2549C27.8835 38.2549 27.7508 38.3468 27.6812 38.5306C27.6767 38.5431 27.6676 38.5494 27.6541 38.5494H27.6158C27.6058 38.5494 27.598 38.5539 27.5925 38.5629C27.5885 38.5704 27.587 38.5779 27.588 38.5854C27.5925 38.6105 27.5828 38.6268 27.5587 38.6343C27.4891 38.6558 27.433 38.7016 27.3904 38.7717C27.3694 38.8063 27.3551 38.8446 27.3476 38.8867C27.3401 38.9317 27.3301 38.9766 27.3176 39.0211C27.3091 39.0507 27.2895 39.0677 27.259 39.0722C27.2099 39.0787 27.1711 39.1055 27.1425 39.1526C27.117 39.1932 27.1037 39.1894 27.1027 39.1413C27.0975 38.9041 27.0704 38.6898 27.0426 39.0099C27.0426 39.0174 27.0391 39.0196 27.0321 39.0166C27.0296 39.0151 27.0291 39.0131 27.0306 39.0106C27.0321 39.0086 27.0334 39.0059 27.0344 39.0023C27.0534 38.9197 27.0454 38.8654 27.0103 38.8393C26.9802 38.4521 27.0331 37.9385 26.9953 37.5255C26.9672 37.2182 26.9037 36.9567 26.64 36.8967C26.4845 36.8524 26.4049 36.7255 26.2621 36.6601C26.2076 36.6351 26.161 36.5975 26.1224 36.5474C26.1029 36.5219 26.0778 36.5041 26.0473 36.4941C25.9441 36.4615 25.8545 36.4009 25.7784 36.3123C25.7623 36.2933 25.7438 36.2767 25.7228 36.2627L25.4411 36.0712C25.419 36.0561 25.3948 36.0486 25.3682 36.0486C25.2706 36.0471 25.1877 36.0156 25.1196 35.954C25.066 35.9054 25.0046 35.8708 24.9355 35.8503C24.8334 35.8193 24.7299 35.7947 24.6253 35.7767C24.6153 35.7752 24.6052 35.7767 24.5952 35.7812C24.5877 35.7847 24.5799 35.7882 24.5719 35.7917C24.5574 35.7977 24.5424 35.8002 24.5269 35.7992C24.3806 35.7872 24.2439 35.7935 24.1167 35.818C24.0211 35.836 23.9151 35.8631 23.7989 35.8991C23.7919 35.9011 23.7914 35.8999 23.7974 35.8954C23.7994 35.8939 23.8012 35.8921 23.8027 35.8901C23.8077 35.8836 23.8142 35.8794 23.8222 35.8773C23.8613 35.8683 23.8981 35.8531 23.9327 35.8315C23.9667 35.8105 23.964 35.8017 23.9244 35.8052C23.8012 35.8158 23.662 35.8155 23.5067 35.8045C23.3815 35.7955 23.2854 35.8205 23.2183 35.8796C23.1446 35.9442 23.0693 36.0061 22.9922 36.0652C22.9726 36.0804 22.9579 36.1007 22.9501 36.1237C22.9245 36.1929 22.8509 36.2169 22.8051 36.2777C22.7075 36.4069 22.6291 36.5469 22.57 36.6977C22.561 36.7202 22.6193 36.7588 22.6008 36.7743C22.5522 36.8144 22.556 36.8539 22.57 36.9245C22.596 37.0542 22.5114 37.1827 22.5024 37.3174C22.4975 37.395 22.5215 37.4141 22.4565 37.5578C22.3694 38.2935 22.3749 39.1215 22.4731 40.042C22.5637 40.8924 22.7726 41.7047 23.0996 42.4789C23.1042 42.4898 23.1058 42.5017 23.1041 42.5134C23.1024 42.5251 23.0975 42.5361 23.0899 42.5452C23.0823 42.5544 23.0723 42.5613 23.0611 42.5652C23.0498 42.5692 23.0377 42.57 23.026 42.5676C22.8717 42.535 22.741 42.4764 22.6338 42.3918C22.3985 42.206 22.1601 41.9921 21.9187 41.7502L22.1996 41.8133C22.2268 41.8194 22.2553 41.8146 22.279 41.7998C22.3027 41.7851 22.3198 41.7617 22.3266 41.7345C22.3742 41.5457 22.3662 41.3614 22.3026 41.1816C22.2715 41.0919 22.2552 40.995 22.2537 40.8909C22.2507 40.667 22.1974 40.4417 22.1703 40.2178C22.1388 39.9584 22.114 39.6905 22.096 39.414C22.0669 38.9748 22.0644 38.471 22.0885 37.9026C22.0982 37.6622 22.1914 37.4504 22.2267 37.2152C22.4791 35.5521 22.9403 34.0364 23.6104 32.6682C23.7 32.4849 23.9309 32.068 24.303 31.4175C24.316 31.3949 24.3205 31.3711 24.3165 31.3461L24.285 31.1478L24.6703 30.8991C24.6919 30.8851 24.6901 30.8753 24.6651 30.8698C24.59 30.8528 24.5209 30.8548 24.4578 30.8758C23.5889 31.1683 22.7395 31.5589 21.9097 32.0477C21.8896 32.0277 21.8676 32.0272 21.8436 32.0462C21.8255 32.0607 21.8128 32.0572 21.8053 32.0357L21.474 31.1185C22.3739 30.6204 23.3107 30.2974 24.2947 30.0127C24.3033 30.0102 24.31 30.0055 24.315 29.9984C24.32 29.9914 24.3175 29.9837 24.3075 29.9752C24.2965 29.9656 24.2835 29.9614 24.2684 29.9624C24.1688 29.9694 24.0634 29.9837 23.9522 30.0052C23.237 30.1457 22.606 30.4289 21.9405 30.7421C21.8734 30.7126 21.8305 30.6562 21.812 30.5731C21.8061 30.547 21.7937 30.5225 21.776 30.5017C21.6863 30.3971 21.6247 30.2821 21.5912 30.1569C21.5843 30.1319 21.5708 30.1093 21.5521 30.0916C21.501 30.043 21.4732 29.9974 21.4687 29.9549L24.1806 29.2525C24.2106 29.2445 24.2146 29.2295 24.1926 29.2074C24.17 29.1849 24.1335 29.1771 24.0829 29.1841C23.0813 29.3284 22.1315 29.5525 21.2336 29.8565C21.0413 29.8179 20.9491 29.6401 20.9571 29.3231C21.9678 28.9841 22.9932 28.7189 24.0333 28.5276C24.0589 28.5226 24.0699 28.5073 24.0664 28.4818L24.0641 28.4615C24.0626 28.448 24.0551 28.4417 24.0416 28.4427C23.7141 28.4677 23.4404 28.5026 23.2205 28.5471C22.5575 28.6823 21.8548 28.8756 21.1126 29.1271C20.9223 28.6888 20.6972 28.3748 20.4373 28.185C20.3096 28.0924 20.2072 28.0118 20.1301 27.9432C20.0264 27.85 19.9358 27.7897 19.8581 27.7621C19.6994 27.7065 19.5246 27.6662 19.3338 27.6412C19.3105 27.6381 19.2868 27.642 19.2657 27.6525C19.2447 27.6629 19.2274 27.6794 19.2159 27.6998C19.0626 27.9717 18.8898 28.2239 18.6975 28.4562C18.3435 28.8829 18.0122 29.2718 17.7037 29.6228C16.345 31.1697 16.0399 33.3326 15.9511 35.332C15.9341 35.7106 15.9484 36.0872 15.994 36.4618C15.9948 36.4692 15.9936 36.4768 15.9903 36.4835C15.987 36.4902 15.9818 36.4959 15.9754 36.4998C15.969 36.5037 15.9616 36.5056 15.9541 36.5054C15.9466 36.5052 15.9393 36.5028 15.9331 36.4986C15.842 36.435 15.7786 36.3744 15.7431 36.3168C15.713 36.0784 15.6782 35.8508 15.6386 35.634C15.5846 35.338 15.5497 35.1106 15.5342 34.9519C15.4058 33.6132 15.4426 32.3865 15.7558 31.0614C16.0691 29.7333 16.773 28.5036 17.7277 27.5488C18.2228 27.053 18.7449 26.5895 19.3105 26.141C19.3781 26.0874 19.4347 26.0261 19.4803 25.957C19.4948 25.9339 19.4978 25.9097 19.4893 25.8841C19.1748 24.9626 19.1129 24.0211 19.3038 23.0596C19.475 22.1967 19.6536 21.3481 19.8394 20.5138C20.0622 19.5132 20.3587 18.4607 20.7288 17.3565C20.7598 17.2638 20.8202 17.1056 20.9098 16.8817C20.9714 16.8176 21.01 16.7485 21.0255 16.6744C21.0305 16.6488 21.0205 16.6391 20.9955 16.6451C20.3179 16.8053 19.6779 17.0565 19.0754 17.3985C18.6913 17.6164 18.3122 17.8222 17.9381 18.016C17.889 18.009 17.8622 18.001 17.8577 17.992C17.8281 17.9344 17.8314 17.8993 17.8675 17.8868C17.9656 17.8272 18.0593 17.7614 18.1484 17.6892C19.0078 16.9936 19.8894 16.4282 20.7934 15.993C21.3658 15.7181 21.9638 15.495 22.5625 15.5664C22.6271 15.5739 22.6927 15.5819 22.7593 15.5904C22.7903 15.5939 22.8171 15.5849 22.8397 15.5633C23.1487 15.2724 23.4604 15.0032 23.7749 14.7558C24.0431 14.5447 24.291 14.2946 24.5254 14.0429C24.5534 14.0129 24.5572 13.9803 24.5366 13.9453C24.4532 13.8048 24.1017 13.7612 23.9507 13.7319C23.8701 13.7164 23.8693 13.6971 23.9484 13.6741C24.0821 13.635 24.2296 13.63 24.3909 13.659C24.4036 13.6614 24.4168 13.6606 24.4291 13.6566C24.4414 13.6526 24.4525 13.6456 24.4614 13.6361C24.4703 13.6267 24.4767 13.6152 24.48 13.6027C24.4833 13.5901 24.4834 13.577 24.4803 13.5644C24.4492 13.4407 24.4044 13.3163 24.3458 13.1911C23.7546 11.9283 22.5324 10.9269 21.2914 10.3462C21.2739 10.3232 21.2842 10.3067 21.3222 10.2967C21.331 10.2942 21.34 10.2948 21.3478 10.2982C21.812 10.4882 22.3003 10.5979 22.7766 10.803C23.4534 11.0944 24.0716 11.3619 24.6718 11.7878C25.2197 12.1764 25.6279 12.675 25.8963 13.2834ZM34.7597 19.9977C34.5309 20.0202 34.3914 19.9106 34.3413 19.6687C34.3338 19.6316 34.3153 19.6251 34.2857 19.6491C34.1272 19.7768 34.0837 19.9631 34.1167 20.1652C34.1422 20.3215 34.1738 20.516 34.324 20.6002C34.5469 20.7254 34.791 20.7369 35.0565 20.6347C35.5573 20.4414 35.7646 20.0731 35.6785 19.5297C35.6739 19.5016 35.6584 19.4824 35.6319 19.4719C35.5327 19.4323 35.4336 19.42 35.3344 19.435C35.3044 19.4395 35.2856 19.4566 35.2781 19.4861C35.241 19.6309 35.1797 19.7498 35.094 19.8429C35.0114 19.9326 34.9 19.9842 34.7597 19.9977ZM24.2467 19.7753C24.2376 19.7798 24.2334 19.7871 24.2339 19.7971C24.2497 20.1585 24.463 20.5318 24.8251 20.6295C25.1008 20.7038 25.5853 20.7008 25.7025 20.3658C25.7666 20.182 25.7794 19.9829 25.7408 19.7686C25.7233 19.6699 25.6922 19.6657 25.6477 19.7558C25.4884 20.0796 25.064 20.051 24.8319 19.8362C24.7662 19.7756 24.7046 19.7107 24.6471 19.6416C24.6278 19.6188 24.6043 19.6001 24.5778 19.5867C24.5514 19.5733 24.5225 19.5654 24.4931 19.5635C24.3438 19.554 24.2672 19.6158 24.2632 19.749C24.2627 19.7611 24.2572 19.7698 24.2467 19.7753ZM35.9564 28.4607C35.9554 28.4667 35.9577 28.4702 35.9632 28.4713C37.094 28.6971 38.1564 28.9756 39.1505 29.3066C39.5161 29.4283 39.8729 29.5795 40.221 29.7603C40.2305 29.7653 40.2377 29.7631 40.2428 29.7536L40.2435 29.7528C40.2465 29.7468 40.245 29.742 40.239 29.7385C39.7823 29.4764 39.321 29.2465 38.8147 29.0775C37.8417 28.753 36.9004 28.5326 35.991 28.4164C35.9839 28.4156 35.9768 28.4175 35.9711 28.4218C35.9654 28.4262 35.9615 28.4325 35.9602 28.4397L35.9564 28.4607ZM41.0375 30.7406C40.3129 30.3786 39.5727 30.0843 38.817 29.858C37.7961 29.5522 36.8616 29.2825 35.8392 29.1714C35.8222 29.1694 35.8119 29.1769 35.8084 29.1939L35.8054 29.2149C35.8039 29.223 35.8072 29.2277 35.8152 29.2292C36.2013 29.3123 36.5844 29.4085 36.9645 29.5177C37.8382 29.7686 38.7336 29.9887 39.5877 30.2636C40.0715 30.4199 40.5515 30.5881 41.0278 30.7684C41.0358 30.7714 41.0415 30.7689 41.045 30.7609C41.049 30.7519 41.0465 30.7451 41.0375 30.7406ZM40.2668 32.213C40.2307 32.1734 40.1929 32.1369 40.1534 32.1033C39.5637 31.6015 38.8936 31.1598 38.2363 30.8082C37.396 30.3575 36.4955 30.0713 35.535 29.9496C35.534 29.9496 35.5332 29.9501 35.5327 29.9511L35.529 29.9729C35.5275 29.9809 35.5307 29.9859 35.5387 29.9879C36.5964 30.2373 37.564 30.5769 38.5315 31.1185C39.2264 31.5069 39.8679 31.8892 40.4463 32.4151C40.4543 32.4226 40.4621 32.4223 40.4696 32.4143L40.4831 32.3985C40.4836 32.3981 40.4839 32.3975 40.4841 32.3969C40.4843 32.3963 40.4844 32.3956 40.4843 32.395C40.4842 32.3943 40.484 32.3937 40.4837 32.3932C40.4834 32.3926 40.4829 32.3921 40.4824 32.3918C40.4018 32.3427 40.3299 32.2831 40.2668 32.213ZM33.2521 34.2901C33.53 34.589 33.7323 34.9664 33.859 35.4221C33.8746 35.4777 33.8961 35.4802 33.9236 35.4296C34.1896 34.9496 34.4608 34.236 34.291 33.7049C34.1748 33.3398 34.0536 32.9452 33.9274 32.521C33.9244 32.5107 33.919 32.5012 33.9115 32.4935C33.9041 32.4857 33.8949 32.4798 33.8848 32.4764C33.8746 32.4729 33.8637 32.4719 33.8531 32.4735C33.8425 32.4752 33.8324 32.4793 33.8237 32.4857C33.7621 32.53 33.7058 32.5638 33.6277 32.5683C32.9426 32.6066 32.3454 32.364 31.7301 32.0755C30.9824 31.7265 30.1576 31.618 29.2557 31.7502C28.2731 31.8945 27.0779 32.856 26.1179 32.4819C26.1096 32.4786 26.1007 32.4771 26.0918 32.4775C26.0829 32.4779 26.0741 32.4801 26.0661 32.4841C26.0581 32.4881 26.051 32.4937 26.0453 32.5005C26.0396 32.5074 26.0354 32.5154 26.033 32.524C25.9511 32.8042 25.8858 33.0724 25.7799 33.3796C25.6807 33.6661 25.6324 33.911 25.6349 34.1143C25.6409 34.542 25.8082 35.0162 26.1367 35.5371C26.1582 35.5711 26.173 35.5684 26.181 35.5288C26.2561 35.1527 26.345 34.8855 26.4477 34.7273C26.5363 34.591 26.631 34.4536 26.7316 34.3149C26.7757 34.2538 26.7867 34.2595 26.7647 34.3321C26.7266 34.4578 26.7174 34.59 26.7369 34.7288C26.8195 35.3094 27.0779 35.6512 27.4273 36.0832C27.4748 36.1418 27.4896 36.1345 27.4716 36.0614C27.4015 35.7704 27.3586 35.484 27.3431 35.202C27.3341 35.0378 27.3639 35.0302 27.4325 35.1795C27.6977 35.7579 27.9508 36.2913 28.4218 36.6849C28.4744 36.729 28.4877 36.7192 28.4617 36.6556C28.3249 36.3281 28.2979 35.9943 28.3805 35.6542C28.4361 35.4251 28.5969 35.2088 28.7298 35.0067C28.7709 34.9441 28.7927 34.9501 28.7952 35.0247C28.8185 35.6993 29.0859 36.2477 29.4487 36.8487C29.5995 37.0981 29.7642 37.3419 29.943 37.5803C29.9458 37.5839 29.9493 37.5868 29.9533 37.5888C29.9574 37.5908 29.9618 37.5918 29.9663 37.5918C29.9708 37.5918 29.9753 37.5908 29.9793 37.5888C29.9833 37.5868 29.9869 37.5839 29.9896 37.5803C30.3261 37.1371 30.6386 36.6496 30.879 36.1711C31.0558 35.8185 31.1505 35.4404 31.163 35.0368C31.166 34.9371 31.1983 34.9266 31.2599 35.0052C31.3726 35.1489 31.4702 35.2997 31.5529 35.4574C31.6956 35.7286 31.7061 36.3288 31.5927 36.5917C31.5306 36.7365 31.5564 36.7543 31.67 36.6451C31.9074 36.4197 32.0885 36.1876 32.2402 35.8773C32.3879 35.5769 32.5319 35.2731 32.6721 34.9661C32.6977 34.9101 32.7205 34.9111 32.7405 34.9691C32.8502 35.2907 32.8454 35.6232 32.7262 35.9667C32.7137 36.0028 32.7215 36.0078 32.7495 35.9818C33.0695 35.6833 33.2503 35.365 33.2919 35.027C33.3164 34.8257 33.2939 34.5853 33.2243 34.3058C33.2138 34.2643 33.223 34.259 33.2521 34.2901Z" fill="#11151D"/>
<path d="M40.7986 14.6237C39.952 14.2331 39.0588 14.1331 38.1408 14.1429C38.0957 14.1434 38.0905 14.1291 38.125 14.1001C38.593 13.705 39.1256 13.424 39.6718 13.1934C40.123 13.0026 40.6073 12.8979 41.1246 12.8794C41.2418 12.8754 41.2435 12.8591 41.1299 12.8306C40.5745 12.6898 39.9943 12.6165 39.3893 12.6105C38.705 12.6037 37.8666 12.7825 37.3303 13.2212C37.3092 13.2382 37.3042 13.2342 37.3153 13.2092C37.8246 12.0809 38.6912 11.4241 39.9152 11.2388C40.2812 11.1832 40.7097 11.2355 41.2005 11.3958C42.2927 11.7526 43.0882 12.6037 43.1483 13.7613C43.2002 14.7551 42.8253 15.5093 42.2206 16.2635C42.152 16.3497 42.0771 16.4293 41.996 16.5024C41.974 16.522 41.9489 16.5282 41.9209 16.5212C41.8548 16.5047 41.7944 16.4771 41.7398 16.4386C40.9481 15.8819 40.0444 15.2983 39.1549 14.8107C38.9416 14.6935 38.717 14.6364 38.4879 14.5628C38.4353 14.5458 38.4368 14.5368 38.4924 14.5358C38.5465 14.535 38.6148 14.5576 38.6682 14.5516C39.3748 14.4779 40.0827 14.5095 40.7918 14.6462C40.8549 14.6582 40.8572 14.6507 40.7986 14.6237Z" fill="#11151D"/>
<path d="M19.0683 14.6746C19.3333 14.611 19.5626 14.5752 19.7564 14.5672C20.2327 14.5487 20.7746 14.5497 21.382 14.5702C21.3876 14.5704 21.393 14.5727 21.397 14.5767C21.401 14.5808 21.4035 14.5862 21.4038 14.592L21.4053 14.6123C21.4053 14.6153 21.4036 14.617 21.4001 14.6175C21.0715 14.6566 20.8292 14.7262 20.6729 14.8264C19.8789 15.3357 19.0661 15.8022 18.3277 16.3881C18.258 16.4432 18.1729 16.499 18.0722 16.5556C18.0574 16.5638 18.0405 16.5673 18.0238 16.5657C18.007 16.5641 17.9911 16.5575 17.9783 16.5466C17.8048 16.4009 17.6884 16.2198 17.5554 16.0395C17.0396 15.3379 16.8085 14.5882 16.8621 13.7904C16.9312 12.7538 17.421 12.0093 18.3314 11.5571C19.145 11.153 20.1613 11.1079 20.9914 11.5459C21.4699 11.7983 21.9169 12.1431 22.1963 12.6126C22.3331 12.8419 22.4703 13.0773 22.608 13.3187C22.6088 13.3201 22.6091 13.3218 22.6088 13.3233C22.6085 13.3249 22.6076 13.3264 22.6063 13.3274C22.605 13.3284 22.6034 13.3289 22.6018 13.3288C22.6002 13.3287 22.5987 13.3281 22.5975 13.327C22.327 13.066 22.0286 12.8888 21.7021 12.7951C21.1722 12.6434 20.6606 12.5833 20.1673 12.6148C19.8023 12.6379 19.4512 12.6794 19.1142 12.7395C18.7977 12.7956 18.7992 12.8414 19.1187 12.877C19.8023 12.9521 20.4626 13.2917 21.0778 13.6252C21.3277 13.7614 21.5686 13.9239 21.8005 14.1127C21.8265 14.1337 21.8227 14.143 21.7892 14.1405C21.1512 14.0944 20.5575 14.151 20.0081 14.3103C19.7226 14.3929 19.4104 14.4998 19.0713 14.631C19.0628 14.6345 19.0571 14.6406 19.0541 14.6491C19.0521 14.6551 19.0526 14.6616 19.0556 14.6686C19.0581 14.6736 19.0623 14.6756 19.0683 14.6746Z" fill="#11151D"/>
<path d="M34.0453 13.306C34.2781 13.5003 34.6492 13.7627 35.1585 14.0933C35.465 14.2926 35.8942 14.6284 36.4461 15.1006C36.8547 15.4502 37.1925 15.8007 37.4595 16.1523C37.9064 16.7413 38.2467 17.3971 38.5577 18.0761C39.2428 19.5745 39.495 21.1844 39.3142 22.9056C39.2 23.9904 38.8161 25.0323 38.1543 25.948C37.7046 26.57 37.1808 27.1221 36.5828 27.6044C36.416 27.7391 36.226 27.85 36.0127 27.9372C36.0107 27.9379 36.0086 27.9381 36.0066 27.9379C36.0045 27.9376 36.0026 27.9369 36.0009 27.9357C35.9992 27.9345 35.9978 27.9329 35.9968 27.9311C35.9959 27.9293 35.9954 27.9272 35.9954 27.9251C36.0054 27.5641 36.0372 27.2022 36.0908 26.8397C36.1343 26.5442 36.2568 26.2758 36.4581 26.0344C36.7466 25.6888 37.017 25.342 37.2694 24.994C37.9099 24.111 38.2713 23.1262 38.3534 22.0395C38.3574 21.9859 38.3526 21.9851 38.3391 22.0372C38.1273 22.837 37.7031 23.5181 37.0666 24.0805C36.7456 24.3645 36.4093 24.6534 36.0577 24.9474C35.9481 25.0398 35.6603 25.314 35.6889 25.4913C35.6979 25.5453 35.6854 25.5508 35.6513 25.5078C35.3869 25.1742 35.0278 24.9091 34.7657 24.5815C34.3996 24.1238 34.0645 23.6323 33.7605 23.1069C33.6288 22.8796 33.588 22.6527 33.6381 22.4264C33.723 22.0425 33.8477 21.5662 34.1046 21.2778C34.1256 21.2542 34.1519 21.242 34.1835 21.241C34.7213 21.2252 35.2239 21.141 35.6603 20.8248C35.9879 20.5867 36.199 20.1803 36.4521 19.8617C36.6309 19.6371 37.011 19.5237 37.2694 19.39C37.314 19.367 37.3122 19.3482 37.2642 19.3337C36.9622 19.2413 36.6542 19.1421 36.3612 19.0212C35.8579 18.8138 35.2081 18.6801 34.7288 18.8394C34.5811 18.8884 34.4008 18.9841 34.188 19.1263C33.7726 19.4035 33.4721 19.6011 33.4713 20.1675C33.4703 20.7048 33.4082 21.2234 33.285 21.7232C33.2305 21.9431 33.2542 22.1674 33.3564 22.3963C33.5948 22.9307 33.87 23.4395 34.182 23.9227C34.7882 24.861 35.3373 25.8428 35.7227 26.8607C35.7928 27.046 35.8241 27.2478 35.8166 27.4662C35.8156 27.4922 35.8023 27.5062 35.7768 27.5082C35.0506 27.5698 34.3325 27.688 33.6223 27.8628C33.5833 27.8723 33.5602 27.8803 33.5532 27.8868C33.5137 27.9214 33.5202 27.9377 33.5727 27.9357C34.2889 27.9056 34.9785 27.83 35.6416 27.7088C35.7057 27.6973 35.7678 27.6788 35.8279 27.6532C35.8574 27.6412 35.8737 27.651 35.8767 27.6825C35.9017 27.9524 35.9 28.2066 35.8714 28.445C35.8674 28.476 35.8499 28.4936 35.8188 28.4976C35.1408 28.5822 34.4574 28.6676 33.7688 28.7537C33.5848 28.777 33.406 28.8243 33.2219 28.8642C33.2144 28.8657 33.2082 28.8692 33.2032 28.8747C33.1987 28.8797 33.1976 28.8859 33.2002 28.8934C33.2012 28.897 33.2037 28.8987 33.2077 28.8987C34.1056 28.9137 34.9166 28.8609 35.6408 28.7402C35.7119 28.7287 35.7447 28.759 35.7392 28.8311C35.7257 28.9964 35.6984 29.1461 35.6573 29.2803C35.6148 29.4195 35.5226 29.5067 35.3809 29.5417C35.0398 29.6254 34.7223 29.6747 34.4284 29.6897C33.8454 29.7198 33.253 29.7501 32.651 29.7806C32.3836 29.7946 32.3816 29.8249 32.645 29.8715C33.3972 30.0057 34.2984 29.9579 35.3486 29.728C35.4222 29.712 35.4663 29.7411 35.4808 29.8152L35.5011 29.9143C35.5061 29.9399 35.4983 29.9612 35.4778 29.9782C35.4447 30.0052 35.4172 30.043 35.3952 30.0916C35.2895 30.3225 35.1901 30.5639 35.0969 30.8158C35.0514 30.9385 34.9517 31.0977 34.798 31.2935C34.0625 32.228 32.9861 31.9741 32.0628 31.5655C31.5115 31.3213 30.9796 31.0622 30.4658 30.7452C30.3641 30.6821 30.3033 30.5957 30.2832 30.486C30.2156 30.1111 30.1225 29.535 30.4042 29.2593C30.5724 29.0955 30.7587 28.9671 30.9037 28.7793C31.081 28.5486 31.2906 28.2256 31.5325 28.0611C31.7684 27.9011 32.0929 27.8898 32.3588 27.7862C33.0434 27.5192 33.4355 26.9972 33.5352 26.2199C33.5366 26.2081 33.5336 26.1961 33.5267 26.1862C33.5198 26.1763 33.5095 26.169 33.4976 26.1658C33.4541 26.1543 33.4162 26.1611 33.3842 26.1861C33.1959 26.3318 33.0073 26.4881 32.8185 26.6549C32.797 26.6738 32.769 26.6835 32.7406 26.6821C32.7121 26.6807 32.6853 26.6683 32.666 26.6474C32.3543 26.3123 31.8623 26.2995 31.4446 26.4227C30.8226 26.6065 30.1871 26.6772 29.538 26.6346C29.1369 26.6075 28.75 26.5061 28.3722 26.4115C27.9365 26.3026 27.5376 26.3326 27.2319 26.6684C27.2255 26.6754 27.2177 26.6811 27.2091 26.6851C27.2005 26.6892 27.1912 26.6915 27.1817 26.6919C27.1722 26.6923 27.1627 26.6908 27.1538 26.6876C27.1449 26.6843 27.1367 26.6793 27.1297 26.6729C26.9289 26.4846 26.7418 26.3188 26.5685 26.1756C26.4674 26.092 26.4155 26.1158 26.413 26.247C26.407 26.5159 26.6399 26.9313 26.7796 27.1484C27.0035 27.4955 27.3172 27.7221 27.7209 27.8282C28.1453 27.9402 28.4007 27.9958 28.6772 28.3684C28.9691 28.7625 29.2809 29.081 29.6124 29.3239C29.8566 29.5027 29.7026 30.3125 29.6214 30.5236C29.5834 30.6217 29.509 30.7016 29.3983 30.7632C28.8915 31.0446 28.4047 31.299 27.938 31.5264C27.4732 31.7528 27.028 31.89 26.6023 31.9381C25.7257 32.0372 25.0248 31.4032 24.7439 30.6235C24.6387 30.3328 24.4584 30.0203 24.4374 29.704C24.4354 29.6754 24.4481 29.6649 24.4757 29.6724C25.5314 29.9744 26.4849 30.0313 27.3363 29.843C27.6152 29.7814 27.612 29.7503 27.3265 29.7498C26.7311 29.7493 26.0823 29.7278 25.3801 29.6852C25.0536 29.6652 24.7374 29.6061 24.4314 29.5079C24.3958 29.4964 24.37 29.4736 24.354 29.4396C24.2814 29.2843 24.2351 29.0657 24.215 28.7838C24.212 28.7427 24.2308 28.7252 24.2714 28.7312C25.0186 28.8384 25.7753 28.9007 26.5415 28.9182C26.6221 28.9197 26.702 28.9147 26.7811 28.9032C26.8608 28.8917 26.8613 28.8779 26.7826 28.8619C25.9087 28.6846 25.0591 28.5907 24.2338 28.5802C24.2068 28.5798 24.1808 28.5702 24.16 28.5528C24.1392 28.5354 24.1249 28.5114 24.1196 28.4848C24.0746 28.2634 24.066 28.0303 24.0941 27.7854C24.0963 27.7665 24.106 27.7493 24.1209 27.7375C24.1358 27.7257 24.1548 27.7202 24.1737 27.7223C24.3487 27.7441 24.5313 27.7351 24.7071 27.7599C25.3135 27.846 25.913 27.8954 26.5054 27.9079C26.5961 27.9094 26.5981 27.8974 26.5115 27.8718C25.7788 27.6555 25.0153 27.5538 24.221 27.5668C24.196 27.5668 24.1825 27.5546 24.1805 27.53C24.1499 27.1729 24.1917 26.8564 24.3059 26.5805C24.8235 25.3297 25.5537 24.2322 26.223 23.0701C26.3514 22.847 26.4228 22.6089 26.5618 22.3986C26.6805 22.2205 26.7023 21.9794 26.6677 21.7788C26.562 21.1708 26.4937 20.5821 26.4626 20.0127C26.4536 19.8482 26.3417 19.6522 26.232 19.5215C25.7237 18.92 25.0807 18.6834 24.3029 18.8116C23.7388 18.9047 23.2287 19.2044 22.657 19.2953C22.5859 19.3069 22.5817 19.3309 22.6443 19.3675C22.8636 19.4952 23.1035 19.5976 23.3639 19.6747C23.4385 19.6967 23.4916 19.7396 23.5232 19.8032C23.8259 20.4101 24.1812 20.9743 24.8896 21.1208C25.1796 21.1809 25.4695 21.2292 25.7595 21.2657C25.8609 21.2793 25.9165 21.3446 25.9578 21.4325C26.1126 21.7645 26.2425 22.1394 26.3019 22.5015C26.3492 22.7944 26.2042 22.9792 26.06 23.2309C25.5782 24.0692 24.982 24.8154 24.2714 25.4695C24.2523 25.4875 24.2388 25.484 24.2308 25.459C24.1772 25.2857 24.0778 25.1389 23.9326 25.0187C23.5845 24.7308 23.2372 24.4343 22.8907 24.1293C22.2792 23.5915 21.8134 22.8673 21.6444 22.0673C21.6104 21.9045 21.5768 21.7388 21.5438 21.57C21.5372 21.5359 21.5347 21.5362 21.5362 21.5707C21.5828 22.7261 21.8991 23.9934 22.6195 24.9331C22.8904 25.2857 23.1764 25.642 23.4773 26.0021C23.5935 26.1418 23.6922 26.2833 23.7733 26.4265C23.8419 26.5487 23.89 26.7413 23.9176 27.0042C23.9531 27.3497 23.9899 27.6845 24.028 28.0085C24.0285 28.0133 24.0276 28.0182 24.0255 28.0225C24.0235 28.0268 24.0202 28.0305 24.0162 28.0332C24.0122 28.0358 24.0075 28.0373 24.0027 28.0374C23.9979 28.0376 23.9931 28.0364 23.9889 28.0341C23.5647 27.7817 23.1809 27.4844 22.8373 27.1424C21.9855 26.2935 21.2666 25.3147 20.9097 24.1721C20.5664 23.0716 20.5003 21.8126 20.6273 20.6595C20.7289 19.7406 20.9368 18.9395 21.2508 18.2564C21.5633 17.5753 21.8525 17.0225 22.1184 16.5978C22.3663 16.2001 22.6135 15.8821 22.8599 15.6437C23.1716 15.3418 23.5179 15.0541 23.8672 14.7971C24.2195 14.5395 24.5373 14.2525 24.9031 14.0031C25.2377 13.7753 25.5687 13.5354 25.8962 13.2835C26.9269 13.2542 27.7164 13.5532 28.6328 13.9971L29.6267 14.7596C29.6502 14.7781 29.6537 14.7999 29.6372 14.8249C29.6337 14.8299 29.6299 14.8352 29.6259 14.8407C29.6124 14.8606 29.6068 14.8847 29.6102 14.9083C29.8227 16.4468 29.8686 17.8485 29.991 19.3044C29.9912 19.3051 29.9917 19.3058 29.9923 19.3063C29.993 19.3068 29.9937 19.3071 29.9944 19.3071C29.9951 19.3071 29.9957 19.3068 29.996 19.3063C29.9964 19.3058 29.9965 19.3051 29.9963 19.3044C30.1022 17.8778 30.1668 16.428 30.3816 14.9001C30.3856 14.873 30.3739 14.8595 30.3463 14.8595L30.166 14.8625L31.4468 13.9858C32.2702 13.445 33.1363 13.2184 34.0453 13.306ZM33.3985 19.6484C33.4743 19.2135 33.8297 18.8071 34.0468 18.445C34.3412 17.9544 34.4794 17.5195 34.0791 16.9982C33.8312 16.6767 33.5505 16.4127 33.237 16.2064C33.2299 16.2019 33.2219 16.199 33.2135 16.198C33.2052 16.1971 33.1967 16.198 33.1888 16.2009C33.1809 16.2037 33.1737 16.2083 33.1679 16.2144C33.162 16.2204 33.1577 16.2277 33.1551 16.2357C32.9943 16.7465 32.7487 17.8936 33.249 18.2429C33.3331 18.3015 33.3727 18.4177 33.3677 18.5915C33.3587 18.924 33.3567 19.2753 33.3617 19.6454C33.3637 19.7761 33.3759 19.7771 33.3985 19.6484ZM26.6399 18.5547C26.6564 18.3466 26.8119 18.1445 26.9111 17.9687C27.1455 17.5526 26.9494 16.6954 26.7962 16.2748C26.7923 16.2641 26.786 16.2546 26.7778 16.2469C26.7696 16.2391 26.7597 16.2335 26.7489 16.2303C26.7381 16.2272 26.7268 16.2266 26.7158 16.2287C26.7048 16.2308 26.6945 16.2355 26.6857 16.2425C25.9751 16.7901 25.2599 17.4496 25.8714 18.4382C26.0908 18.7928 26.4018 19.1 26.5137 19.5485C26.5508 19.6982 26.5728 19.696 26.5798 19.5417C26.5948 19.2102 26.6149 18.8812 26.6399 18.5547ZM23.5404 18.0514C24.0007 17.9111 24.4401 17.8242 24.8588 17.7907C24.8618 17.7907 24.8633 17.7922 24.8633 17.7952C24.8633 17.7957 24.8633 17.7962 24.8633 17.7967C24.8633 17.7987 24.8623 17.7997 24.8603 17.7997C24.376 17.7196 23.9333 17.7969 23.5322 18.0318C23.4801 18.0624 23.4829 18.0689 23.5404 18.0514ZM27.5752 21.3048C27.5416 21.5487 27.4973 21.7756 27.4422 21.9854C27.3816 22.2163 27.2847 22.4521 27.1515 22.693C26.8765 23.1908 26.6096 23.7495 26.3507 24.369C26.2841 24.5277 26.2328 24.73 26.1967 24.9759C26.1945 24.9905 26.1976 25.0053 26.2055 25.0177C26.2134 25.03 26.2255 25.0389 26.2395 25.0428L26.2651 25.0495C26.2681 25.0505 26.2712 25.0507 26.2744 25.0504C26.2775 25.0501 26.2805 25.0491 26.2832 25.0475C26.286 25.046 26.2884 25.0439 26.2903 25.0414C26.2922 25.0389 26.2936 25.0361 26.2944 25.033C26.3384 24.8487 26.392 24.7015 26.4551 24.5913C26.8092 23.9723 27.0621 23.4898 27.2138 23.1437C27.4933 22.5067 27.5691 21.7991 27.5887 21.1035C27.5887 21.103 27.5884 21.1025 27.5879 21.102C27.5844 21.0995 27.5834 21.1002 27.5849 21.1042C27.5859 21.1067 27.5864 21.1092 27.5864 21.1117C27.5874 21.1769 27.5837 21.2412 27.5752 21.3048ZM32.3843 21.5302C32.3753 21.4926 32.3721 21.4581 32.3746 21.4265C32.3747 21.4259 32.375 21.4254 32.3755 21.425C32.376 21.4247 32.3766 21.4245 32.3772 21.4246C32.3778 21.4247 32.3783 21.4251 32.3787 21.4255C32.379 21.426 32.3792 21.4267 32.3791 21.4273C32.3831 21.9471 32.4545 22.4191 32.5932 22.8433C32.6743 23.0912 32.7993 23.3669 32.968 23.6703C33.1213 23.9473 33.2755 24.2375 33.4308 24.541C33.5159 24.7078 33.572 24.8587 33.599 24.994C33.6001 24.9988 33.6022 25.0033 33.6052 25.0072C33.6082 25.0111 33.612 25.0143 33.6164 25.0165C33.6208 25.0188 33.6256 25.02 33.6305 25.0201C33.6355 25.0202 33.6404 25.0193 33.6449 25.0172L33.6636 25.009C33.7012 24.9915 33.717 24.9622 33.711 24.9211C33.6804 24.7078 33.6281 24.5157 33.554 24.3449C33.3441 23.8611 33.1058 23.3726 32.8388 22.8793C32.5992 22.4361 32.5038 22.0327 32.3843 21.5302Z" fill="#FEFEFE"/>
<path d="M42.0732 18.0581C42.0908 18.0546 42.1008 18.0446 42.1033 18.028C42.1048 18.0175 42.1053 18.007 42.1048 17.9965C42.1043 17.9885 42.1003 17.984 42.0928 17.983C42.0737 17.9804 42.0692 17.9709 42.0792 17.9544C42.0868 17.9414 42.0978 17.9336 42.1123 17.9311C42.1383 17.9261 42.1461 17.9113 42.1356 17.8868C42.1311 17.8768 42.1251 17.8678 42.1176 17.8598C42.0935 17.8342 42.0855 17.8385 42.0935 17.8725C42.095 17.8795 42.094 17.886 42.0905 17.8921C42.0897 17.8932 42.0885 17.8941 42.0873 17.8947C42.086 17.8952 42.0846 17.8955 42.0832 17.8953C42.0819 17.8952 42.0807 17.8946 42.0797 17.8938C42.0787 17.8929 42.0781 17.8918 42.0778 17.8906L42.0439 17.7891C42.1161 17.8387 42.1882 17.8247 42.2603 17.7471C42.8169 17.1469 43.3165 16.606 43.65 15.8638C43.6685 15.8222 43.6863 15.8227 43.7033 15.8653C43.8185 16.1543 43.9775 16.481 44.1804 16.8456C44.9428 18.2151 45.8969 19.3389 47.409 19.885C47.414 19.8867 47.4185 19.8897 47.4218 19.8937C47.4252 19.8978 47.4274 19.9026 47.4282 19.9079C47.429 19.9131 47.4283 19.9184 47.4263 19.9232C47.4242 19.9281 47.4208 19.9323 47.4165 19.9353C47.2693 20.042 47.106 20.1156 46.9268 20.1562C46.2807 20.3029 45.6269 20.3653 44.9654 20.3432C44.9378 20.3422 44.913 20.3332 44.891 20.3162C44.7658 20.221 44.6414 20.1166 44.5177 20.0029C43.7341 19.2848 42.9597 18.5899 42.0732 18.0581Z" fill="#1F232B"/>
<path d="M17.8676 17.887C17.8316 17.8995 17.8283 17.9346 17.8579 17.9922C17.8624 18.0012 17.8892 18.0092 17.9382 18.0162C17.4084 18.4063 16.8933 18.8055 16.393 19.2136C15.9663 19.5622 15.6073 19.9596 15.1919 20.3141C15.1683 20.3344 15.1409 20.3498 15.1114 20.3595C15.0819 20.3691 15.0508 20.3729 15.0198 20.3705C14.8155 20.355 14.6194 20.3439 14.4316 20.3374C13.8742 20.3179 13.1779 20.2458 12.6626 19.9919C12.5844 19.9538 12.5872 19.9225 12.6708 19.898C12.8156 19.8564 12.951 19.8008 13.0772 19.7312C14.4076 19.0003 15.3105 17.739 16.0452 16.3884C16.1459 16.2036 16.2195 16.0383 16.2661 15.8926C16.2781 15.8565 16.2924 15.8555 16.3089 15.8896C16.6805 16.6488 17.2001 17.3146 17.8676 17.887Z" fill="#E38929"/>
<path d="M33.3613 19.6455C33.3563 19.2754 33.3583 18.9241 33.3673 18.5915C33.3724 18.4178 33.3328 18.3016 33.2487 18.243C32.7484 17.8937 32.994 16.7466 33.1548 16.2358C33.1573 16.2278 33.1617 16.2205 33.1676 16.2144C33.1734 16.2084 33.1806 16.2038 33.1885 16.201C33.1964 16.1981 33.2048 16.1972 33.2132 16.1981C33.2215 16.1991 33.2296 16.2019 33.2366 16.2065C33.5501 16.4128 33.8308 16.6767 34.0787 16.9982C34.4791 17.5196 34.3409 17.9545 34.0464 18.4451C33.8293 18.8071 33.474 19.2135 33.3981 19.6485C33.3756 19.7772 33.3633 19.7762 33.3613 19.6455Z" fill="#E38929"/>
<path d="M26.9112 17.9688C26.8121 18.1446 26.6566 18.3467 26.64 18.5547C26.615 18.8813 26.595 19.2103 26.5799 19.5418C26.5729 19.6961 26.5509 19.6983 26.5138 19.5486C26.4019 19.1001 26.0909 18.7929 25.8716 18.4383C25.2601 17.4497 25.9752 16.7902 26.6859 16.2425C26.6946 16.2356 26.7049 16.2309 26.7159 16.2288C26.7269 16.2267 26.7382 16.2272 26.749 16.2304C26.7598 16.2335 26.7697 16.2392 26.7779 16.2469C26.7861 16.2547 26.7924 16.2642 26.7963 16.2748C26.9495 16.6955 27.1456 17.5526 26.9112 17.9688Z" fill="#E38929"/>
<path d="M39.1738 16.8569C40.2052 17.3565 41.036 17.7967 41.9172 18.4472C42.9095 19.1812 43.7674 20.2065 44.4217 21.2244C44.7192 21.6867 45.0249 22.1429 45.3389 22.5931C45.688 23.0939 46.1207 23.5534 46.637 23.9716C46.9037 24.1872 47.2252 24.3652 47.5384 24.5222C47.5494 24.5276 47.5585 24.536 47.5649 24.5465C47.5713 24.5569 47.5745 24.5689 47.5744 24.5812C47.5742 24.5935 47.5706 24.6055 47.564 24.6159C47.5574 24.6263 47.548 24.6347 47.5369 24.6401C47.1178 24.8437 46.7467 24.7423 46.3207 24.5778C45.5044 24.2643 44.7522 23.8366 44.0641 23.2947C42.9378 22.4078 41.8736 21.4525 40.8715 20.4289C40.7032 20.2576 40.5553 20.0721 40.3727 19.9136C40.227 19.7869 40.207 19.8041 40.3126 19.9654C40.6657 20.5053 41.0415 21.0677 41.4402 21.6526C42.5925 23.3448 44.1044 24.5873 45.9759 25.3801C46.0355 25.4051 46.0726 25.4492 46.0871 25.5123C46.3956 26.8419 46.4767 28.2246 46.3305 29.6604C46.1923 31.0236 45.9238 32.3445 45.5252 33.623C45.2428 34.5275 44.8659 35.3488 44.3946 36.087C44.291 36.2492 44.1723 36.3822 44.0386 36.4858C44.0345 36.4889 44.0297 36.4908 44.0246 36.4913C44.0196 36.4917 44.0145 36.4907 44.0101 36.4884C44.0056 36.4861 44.002 36.4826 43.9996 36.4783C43.9971 36.4739 43.9961 36.469 43.9965 36.4641L44.0649 35.4236L44.0814 35.4394C44.0969 35.4537 44.1158 35.4638 44.1364 35.4686C44.1569 35.4734 44.1783 35.4728 44.1986 35.4668C44.2188 35.4608 44.2371 35.4496 44.2517 35.4344C44.2664 35.4193 44.2768 35.4005 44.282 35.3801C44.312 35.2649 44.3483 35.1522 44.3909 35.042C44.4375 34.9208 44.4658 34.7969 44.4758 34.6702C44.5549 33.6601 44.5369 32.806 44.4217 32.1078C44.3416 31.6211 44.1958 31.0444 43.9845 30.3778C43.4729 28.768 42.3228 27.3745 40.9759 26.3379C40.8467 26.2382 40.7148 26.129 40.58 26.0103C40.5436 25.9781 40.5169 25.9363 40.5031 25.8897C40.4893 25.8431 40.4889 25.7935 40.5019 25.7467C40.6108 25.362 40.7483 24.9767 40.7709 24.5688C40.7954 24.1176 40.7791 23.7224 40.722 23.3834C40.6431 22.9116 40.5583 22.4339 40.4433 21.9741C40.3802 21.7207 40.3241 21.4678 40.2751 21.2154C40.2295 20.979 40.1724 20.7572 40.1038 20.5498C40.0462 20.3751 40.0121 20.1948 40.0016 20.009C39.9916 19.8342 39.9581 19.6569 39.901 19.4771C39.6551 18.7054 39.4244 18.0358 39.2091 17.4684C39.123 17.241 39.1112 17.0372 39.1738 16.8569Z" fill="#1F232B"/>
<path d="M20.9098 16.8818C20.8201 17.1057 20.7598 17.2639 20.7288 17.3566C20.3587 18.4609 20.0622 19.5133 19.8393 20.5139C19.6535 21.3482 19.475 22.1968 19.3037 23.0597C19.1129 24.0213 19.1748 24.9628 19.4893 25.8842C19.4978 25.9098 19.4948 25.9341 19.4803 25.9571C19.4347 26.0262 19.3781 26.0876 19.3105 26.1412C18.7448 26.5896 18.2227 27.0531 17.7277 27.5489C16.7729 28.5037 16.069 29.7334 15.7558 31.0615C15.4425 32.3866 15.4057 33.6134 15.5342 34.952C15.5497 35.1108 15.5845 35.3381 15.6386 35.6341C15.6782 35.8509 15.713 36.0785 15.743 36.3169C15.3975 35.9313 15.1225 35.5084 14.9182 35.0482C14.1956 33.4225 13.8177 31.697 13.6013 29.9009C13.4241 28.4321 13.4834 26.9732 13.7794 25.5244C13.7851 25.4966 13.798 25.4708 13.8167 25.4495C13.8354 25.4283 13.8593 25.4124 13.8861 25.4035C14.1209 25.3253 14.3576 25.2262 14.5959 25.106C16.1397 24.3285 17.419 23.1964 18.3858 21.7737C18.7922 21.175 19.1745 20.574 19.5809 19.9858C19.6295 19.9157 19.6165 19.9014 19.5419 19.943C19.5043 19.9635 19.4712 19.9896 19.4427 20.0211C18.6164 20.9321 17.7315 21.8015 16.7879 22.6293C16.0533 23.2733 15.3234 23.7969 14.5982 24.2C14.2181 24.4109 13.7604 24.5897 13.225 24.7364C12.9944 24.7995 12.7067 24.7973 12.4858 24.7109C12.4657 24.7031 12.4483 24.6897 12.4357 24.6723C12.4231 24.6548 12.4158 24.6341 12.4147 24.6125C12.4136 24.591 12.4187 24.5695 12.4295 24.5507C12.4402 24.5319 12.4561 24.5166 12.4753 24.5065C13.1899 24.1364 13.8062 23.6306 14.324 22.9891C14.9415 22.2259 15.4673 21.3936 16.0195 20.6055C17.2101 18.9093 18.9281 17.5249 20.9098 16.8818Z" fill="#E38929"/>
<path d="M23.5405 18.0513C23.4829 18.0688 23.4801 18.0623 23.5322 18.0317C23.9334 17.7969 24.3761 17.7195 24.8603 17.7996C24.8623 17.7996 24.8633 17.7986 24.8633 17.7966C24.8633 17.7961 24.8633 17.7956 24.8633 17.7951C24.8633 17.7921 24.8618 17.7906 24.8588 17.7906C24.4402 17.8242 24.0007 17.911 23.5405 18.0513Z" fill="#90969F"/>
<path d="M36.4312 18.1638C36.4888 18.1813 36.4915 18.1748 36.4395 18.1443C36.0383 17.9094 35.5956 17.832 35.1113 17.9122C35.1093 17.9122 35.1083 17.9112 35.1083 17.9092C35.1083 17.9087 35.1083 17.9082 35.1083 17.9077C35.1083 17.9047 35.1098 17.9032 35.1128 17.9032C35.5315 17.9367 35.971 18.0236 36.4312 18.1638Z" fill="#90969F"/>
<path d="M35.0941 19.8431C35.1797 19.7499 35.2411 19.631 35.2781 19.4862C35.2857 19.4567 35.3044 19.4397 35.3345 19.4352C35.4336 19.4201 35.5328 19.4324 35.632 19.472C35.6585 19.4825 35.674 19.5018 35.6785 19.5298C35.7647 20.0732 35.5573 20.4415 35.0565 20.6348C34.7911 20.737 34.547 20.7255 34.3241 20.6003C34.1739 20.5161 34.1423 20.3216 34.1168 20.1653C34.0837 19.9633 34.1273 19.777 34.2858 19.6493C34.3154 19.6252 34.3339 19.6317 34.3414 19.6688C34.3915 19.9107 34.5309 20.0203 34.7598 19.9978C34.9 19.9843 35.0115 19.9327 35.0941 19.8431Z" fill="#E38929"/>
<path d="M24.2632 19.749C24.2672 19.6158 24.3439 19.5539 24.4931 19.5635C24.5226 19.5653 24.5514 19.5732 24.5779 19.5867C24.6043 19.6001 24.6279 19.6188 24.6471 19.6416C24.7047 19.7107 24.7663 19.7755 24.8319 19.8361C25.064 20.051 25.4884 20.0795 25.6477 19.7558C25.6923 19.6656 25.7233 19.6699 25.7408 19.7685C25.7794 19.9829 25.7666 20.1819 25.7025 20.3657C25.5853 20.7008 25.1008 20.7038 24.8251 20.6294C24.463 20.5317 24.2497 20.1584 24.2339 19.7971C24.2334 19.7871 24.2377 19.7798 24.2467 19.7753C24.2572 19.7698 24.2627 19.761 24.2632 19.749Z" fill="#E38929"/>
<path d="M27.575 21.3049C27.5835 21.2413 27.5872 21.1769 27.5862 21.1118C27.5862 21.1093 27.5857 21.1068 27.5847 21.1043C27.5832 21.1003 27.5842 21.0995 27.5877 21.102C27.5882 21.1025 27.5885 21.103 27.5885 21.1035C27.5689 21.7991 27.4931 22.5068 27.2136 23.1438C27.0619 23.4899 26.809 23.9724 26.4549 24.5914C26.3918 24.7015 26.3382 24.8488 26.2942 25.0331C26.2934 25.0361 26.292 25.039 26.2901 25.0415C26.2882 25.044 26.2858 25.046 26.283 25.0476C26.2803 25.0491 26.2773 25.0501 26.2742 25.0505C26.271 25.0508 26.2679 25.0505 26.2649 25.0496L26.2393 25.0428C26.2253 25.039 26.2132 25.03 26.2053 25.0177C26.1974 25.0054 26.1943 24.9905 26.1965 24.976C26.2326 24.7301 26.2839 24.5278 26.3505 24.369C26.6094 23.7495 26.8763 23.1909 27.1513 22.6931C27.2845 22.4522 27.3814 22.2163 27.442 21.9854C27.4971 21.7756 27.5414 21.5487 27.575 21.3049Z" fill="#1F232B"/>
<path d="M32.3846 21.5301C32.504 22.0327 32.5995 22.4361 32.8391 22.8793C33.106 23.3726 33.3444 23.8611 33.5542 24.3449C33.6283 24.5157 33.6807 24.7077 33.7112 24.9211C33.7172 24.9621 33.7015 24.9914 33.6639 25.009L33.6451 25.0172C33.6406 25.0192 33.6357 25.0202 33.6308 25.0201C33.6259 25.02 33.621 25.0187 33.6167 25.0165C33.6123 25.0143 33.6084 25.0111 33.6054 25.0072C33.6024 25.0033 33.6003 24.9987 33.5993 24.9939C33.5723 24.8587 33.5162 24.7077 33.431 24.541C33.2758 24.2375 33.1215 23.9473 32.9683 23.6703C32.7995 23.3668 32.6746 23.0911 32.5934 22.8432C32.4547 22.4191 32.3834 21.9471 32.3793 21.4272C32.3794 21.4266 32.3793 21.426 32.379 21.4255C32.3786 21.425 32.3781 21.4247 32.3775 21.4246C32.3769 21.4245 32.3763 21.4246 32.3758 21.425C32.3753 21.4253 32.3749 21.4259 32.3748 21.4265C32.3723 21.458 32.3756 21.4926 32.3846 21.5301Z" fill="#1F232B"/>
<path d="M21.9094 32.0477C21.4142 32.3397 20.9234 32.6932 20.4371 33.1084C19.3877 34.0046 18.822 35.2238 18.6462 36.5542C18.5471 37.3069 18.5611 38.192 18.6883 39.2097C18.7063 39.3539 18.7356 39.4816 18.7807 39.6161C18.7992 39.6722 18.7862 39.6807 18.7416 39.6416C17.3632 38.4202 16.8276 36.7562 16.5226 35.0127C16.4153 34.4034 16.219 33.4539 16.2529 32.8305C16.3243 31.5129 16.8411 30.6046 17.7035 29.6228C18.012 29.2718 18.3432 28.8829 18.6973 28.4562C18.8896 28.2238 19.0624 27.9717 19.2156 27.6998C19.2271 27.6794 19.2445 27.6629 19.2655 27.6524C19.2865 27.642 19.3102 27.6381 19.3336 27.6412C21.2108 27.7974 22.5207 30.5934 21.9094 32.0477Z" fill="#333841"/>
<path d="M35.9908 28.4165C36.9003 28.5326 37.8416 28.753 38.8146 29.0775C39.3209 29.2465 39.7822 29.4764 40.2389 29.7386C40.2449 29.7421 40.2464 29.7468 40.2434 29.7528L40.2426 29.7536C40.2376 29.7631 40.2304 29.7654 40.2209 29.7604C39.8728 29.5796 39.516 29.4283 39.1504 29.3066C38.1563 28.9756 37.0939 28.6972 35.963 28.4713C35.9575 28.4703 35.9553 28.4668 35.9563 28.4608L35.96 28.4397C35.9613 28.4326 35.9653 28.4262 35.971 28.4219C35.9767 28.4175 35.9838 28.4156 35.9908 28.4165Z" fill="#ADB1BA"/>
<path d="M20.9572 29.3231L19.5464 29.8768C19.54 29.8794 19.5329 29.8794 19.5265 29.8769C19.5202 29.8743 19.5152 29.8694 19.5126 29.8633L19.5043 29.846C19.5023 29.842 19.5036 29.839 19.5081 29.837L21.1127 29.1271C21.8549 28.8757 22.5575 28.6824 23.2205 28.5471C23.4404 28.5026 23.7141 28.4678 24.0416 28.4427C24.0551 28.4417 24.0626 28.448 24.0641 28.4615L24.0664 28.4818C24.0699 28.5073 24.0589 28.5226 24.0333 28.5276C22.9932 28.7189 21.9678 28.9841 20.9572 29.3231Z" fill="#ADB1BA"/>
<path d="M41.0372 30.7407C41.0462 30.7452 41.0487 30.752 41.0447 30.761C41.0412 30.769 41.0354 30.7715 41.0274 30.7685C40.5511 30.5882 40.0711 30.42 39.5873 30.2637C38.7332 29.9888 37.8378 29.7687 36.9641 29.5178C36.584 29.4086 36.2009 29.3124 35.8148 29.2293C35.8068 29.2278 35.8035 29.223 35.805 29.215L35.808 29.194C35.8116 29.177 35.8218 29.1695 35.8388 29.1715C36.8612 29.2826 37.7957 29.5523 38.8166 29.8581C39.5723 30.0844 40.3125 30.3786 41.0372 30.7407Z" fill="#FEFEFE"/>
<path d="M21.4684 29.9549C20.6601 30.1772 19.8661 30.4409 19.0864 30.7459C19.0768 30.7494 19.0701 30.7466 19.0661 30.7376L19.0653 30.7369C19.0613 30.7279 19.0638 30.7211 19.0728 30.7166C19.7664 30.3645 20.4866 30.0778 21.2333 29.8565C22.1312 29.5525 23.081 29.3284 24.0826 29.1841C24.1332 29.1771 24.1697 29.1849 24.1923 29.2074C24.2143 29.2295 24.2103 29.2445 24.1803 29.2525L21.4684 29.9549Z" fill="#ADB1BA"/>
<path d="M40.2665 32.2131C40.3296 32.2832 40.4015 32.3428 40.4821 32.3919C40.4826 32.3922 40.4831 32.3927 40.4834 32.3933C40.4837 32.3938 40.4839 32.3944 40.484 32.3951C40.4841 32.3957 40.484 32.3964 40.4838 32.397C40.4836 32.3976 40.4833 32.3982 40.4829 32.3986L40.4693 32.4144C40.4618 32.4224 40.4541 32.4227 40.446 32.4152C39.8676 31.8893 39.2261 31.5069 38.5312 31.1186C37.5637 30.577 36.5961 30.2374 35.5384 29.988C35.5304 29.986 35.5272 29.981 35.5287 29.973L35.5324 29.9512C35.5329 29.9502 35.5337 29.9497 35.5347 29.9497C36.4952 30.0714 37.3957 30.3576 38.236 30.8083C38.8933 31.1599 39.5634 31.6016 40.1531 32.1034C40.1926 32.137 40.2304 32.1735 40.2665 32.2131Z" fill="#FEFEFE"/>
<path d="M21.474 31.1184C20.7544 31.49 20.0888 31.9094 19.4773 32.3767C19.4077 32.4302 19.402 32.424 19.4601 32.3579C19.5342 32.2742 19.6253 32.1896 19.7335 32.104C20.4176 31.5616 21.1533 31.1076 21.9405 30.742C22.6061 30.4288 23.2371 30.1456 23.9522 30.0051C24.0634 29.9836 24.1688 29.9693 24.2685 29.9623C24.2835 29.9613 24.2965 29.9656 24.3076 29.9751C24.3176 29.9836 24.3201 29.9913 24.3151 29.9984C24.3101 30.0054 24.3033 30.0101 24.2948 30.0126C23.3107 30.2973 22.374 30.6204 21.474 31.1184Z" fill="#ADB1BA"/>
<path d="M24.2849 31.1479L24.3164 31.3463C24.3205 31.3713 24.3159 31.3951 24.3029 31.4176C23.9308 32.0682 23.7 32.4851 23.6103 32.6684C22.9402 34.0366 22.479 35.5522 22.2266 37.2154C22.1913 37.4505 22.0981 37.6624 22.0884 37.9028C22.0643 38.4712 22.0668 38.975 22.0959 39.4142C22.1139 39.6906 22.1387 39.9585 22.1703 40.218C22.1973 40.4418 22.2506 40.6672 22.2536 40.891C22.2551 40.9952 22.2714 41.0921 22.3025 41.1818C22.3661 41.3615 22.3741 41.5458 22.3265 41.7346C22.3197 41.7618 22.3026 41.7853 22.2789 41.8C22.2552 41.8147 22.2267 41.8196 22.1996 41.8135L21.9186 41.7504C21.2891 41.1179 20.7598 40.3033 20.3306 39.3068C19.967 38.4624 19.7807 37.5883 19.7717 36.6843C19.7604 35.5853 20.2524 34.5569 20.9871 33.7516C21.9396 32.7082 23.0199 31.7805 24.2849 31.1479Z" fill="#333841"/>
<path d="M33.2243 34.3059C33.2939 34.5853 33.3164 34.8257 33.2919 35.027C33.2503 35.3651 33.0695 35.6833 32.7495 35.9818C32.7214 36.0078 32.7137 36.0028 32.7262 35.9668C32.8454 35.6232 32.8502 35.2907 32.7405 34.9692C32.7204 34.9111 32.6977 34.9101 32.6721 34.9662C32.5319 35.2732 32.3879 35.5769 32.2402 35.8774C32.0884 36.1876 31.9074 36.4198 31.67 36.6451C31.5563 36.7543 31.5305 36.7365 31.5926 36.5918C31.7061 36.3289 31.6956 35.7286 31.5528 35.4575C31.4702 35.2997 31.3725 35.149 31.2599 35.0052C31.1983 34.9266 31.166 34.9371 31.163 35.0368C31.1504 35.4404 31.0558 35.8185 30.879 36.1711C30.6386 36.6496 30.3261 37.1371 29.9896 37.5804C29.9868 37.5839 29.9833 37.5868 29.9793 37.5888C29.9752 37.5908 29.9708 37.5919 29.9663 37.5919C29.9618 37.5919 29.9573 37.5908 29.9533 37.5888C29.9493 37.5868 29.9457 37.5839 29.943 37.5804C29.7642 37.342 29.5995 37.0981 29.4487 36.8487C29.0859 36.2477 28.8185 35.6993 28.7952 35.0248C28.7927 34.9502 28.7709 34.9441 28.7298 35.0067C28.5968 35.2088 28.4361 35.4252 28.3805 35.6543C28.2979 35.9943 28.3249 36.3281 28.4616 36.6556C28.4877 36.7192 28.4744 36.729 28.4218 36.6849C27.9508 36.2913 27.6977 35.7579 27.4325 35.1795C27.3639 35.0303 27.3341 35.0378 27.3431 35.2021C27.3586 35.484 27.4014 35.7705 27.4715 36.0614C27.4896 36.1345 27.4748 36.1418 27.4272 36.0832C27.0779 35.6513 26.8195 35.3095 26.7369 34.7288C26.7173 34.5901 26.7266 34.4579 26.7647 34.3322C26.7867 34.2595 26.7757 34.2538 26.7316 34.3149C26.631 34.4536 26.5363 34.5911 26.4477 34.7273C26.345 34.8855 26.2561 35.1527 26.181 35.5288C26.173 35.5684 26.1582 35.5711 26.1367 35.5371C25.8081 35.0163 25.6409 34.542 25.6349 34.1143C25.6324 33.911 25.6807 33.6661 25.7798 33.3796C25.8858 33.0724 25.9511 32.8042 26.033 32.524C26.0354 32.5154 26.0396 32.5074 26.0453 32.5006C26.051 32.4937 26.0581 32.4881 26.0661 32.4841C26.0741 32.4802 26.0828 32.4779 26.0918 32.4776C26.1007 32.4772 26.1096 32.4787 26.1179 32.482C27.0779 32.856 28.2731 31.8945 29.2557 31.7503C30.1576 31.6181 30.9824 31.7265 31.7301 32.0756C32.3453 32.364 32.9426 32.6067 33.6276 32.5683C33.7058 32.5638 33.7621 32.53 33.8237 32.4857C33.8324 32.4794 33.8425 32.4752 33.8531 32.4736C33.8637 32.472 33.8746 32.4729 33.8847 32.4764C33.8949 32.4799 33.9041 32.4857 33.9115 32.4935C33.9189 32.5013 33.9244 32.5107 33.9274 32.521C34.0536 32.9452 34.1748 33.3398 34.291 33.7049C34.4607 34.236 34.1895 34.9496 33.9236 35.4297C33.8961 35.4802 33.8745 35.4777 33.859 35.4222C33.7323 34.9664 33.53 34.5891 33.252 34.2901C33.223 34.259 33.2137 34.2643 33.2243 34.3059Z" fill="#FEFEFE"/>
<path d="M26.9954 37.6382C26.9368 37.9126 26.8421 38.1928 26.7715 38.5269C26.3854 40.356 26.6243 42.2213 27.4017 43.9242C27.6001 44.3584 27.8006 44.7856 28.0035 45.2058C28.0066 45.2124 28.0078 45.2199 28.0068 45.2272C28.0058 45.2345 28.0026 45.2414 27.9977 45.2469C27.9928 45.2524 27.9864 45.2564 27.9793 45.2583C27.9722 45.2602 27.9646 45.26 27.9576 45.2576C27.7293 45.1788 27.4972 45.1096 27.2801 45.0022C26.1112 44.423 25.2368 43.6155 24.3639 42.6367C23.0863 41.2049 22.4506 39.5119 22.4566 37.5578C22.4674 34.0419 26.1261 35.8314 26.9683 37.0267C27.108 37.225 27.0407 37.4296 26.9954 37.6382Z" fill="#1F232B"/>
<path d="M29.837 46.337C28.2084 44.2307 27.1102 41.5128 27.0103 38.8393C27.0776 38.8893 29.9234 36.1357 29.9234 38.2661C29.9279 40.6259 29.9134 43.0671 29.8798 45.5896C29.8791 45.6895 29.8964 45.7842 29.9039 45.8848C29.9064 45.9204 29.9044 45.9534 29.8979 45.984C29.8899 46.019 29.8871 46.0548 29.8896 46.0914C29.8931 46.1425 29.8896 46.1841 29.8791 46.2161C29.8656 46.2592 29.8515 46.2995 29.837 46.337Z" fill="#1F232B"/>
</g>
<path d="M26.4184 50.4382H27.3147L25.6347 53.5614C25.3078 54.1703 24.8398 54.4747 24.3099 54.4747C24.1013 54.4747 23.8871 54.4296 23.6672 54.3394L23.8871 53.646C24.0337 53.6911 24.1633 53.7193 24.2817 53.7193C24.5072 53.7193 24.682 53.6178 24.8342 53.381L24.868 53.3359L23.3121 50.4382H24.2874L25.336 52.5579L26.4184 50.4382ZM29.0391 50.3706C30.223 50.3706 31.0855 51.2218 31.0855 52.4114C31.0855 53.6009 30.223 54.4522 29.0391 54.4522C28.34 54.4522 27.765 54.2041 27.3929 53.7475L27.9736 53.2063C28.2498 53.5163 28.5881 53.6742 28.994 53.6742C29.5747 53.6742 30.0031 53.3021 30.1215 52.7383H28.5204V52.0393H30.1102C29.9806 51.4981 29.5578 51.1485 28.994 51.1485C28.5881 51.1485 28.2498 51.3064 27.9736 51.6165L27.3929 51.0753C27.765 50.6186 28.34 50.3706 29.0391 50.3706ZM36.2488 54.3845H35.3919L35.3863 52.0224L34.2249 53.9673H33.819L32.6577 52.0675V54.3845H31.8008V50.4382H32.5562L34.0333 52.8906L35.4878 50.4382H36.2432L36.2488 54.3845Z" fill="#11151D"/>
<rect x="13.0771" y="55.9231" width="33.8462" height="0.288462" fill="#11151D"/>
<path d="M23.2007 59.75L22.888 59.0656H21.4776L21.1684 59.75H20.9774L22.096 57.3182H22.2732L23.3918 59.75H23.2007ZM21.5471 58.9162H22.822L22.1828 57.5128L21.5471 58.9162ZM24.9009 57.9366V58.0929H24.1922V59.75H24.0185V58.0929H23.3098V57.9366H24.9009ZM25.3135 57.9366H26.585V59.75H26.4113V58.0929H25.4664L25.4421 58.5758C25.4073 59.2115 25.3378 59.7708 24.9592 59.7708C24.914 59.7708 24.8654 59.7604 24.8098 59.7465L24.8272 59.5971C24.855 59.6041 24.8862 59.611 24.9105 59.611C25.2197 59.611 25.2545 59.0865 25.2823 58.5619L25.3135 57.9366ZM27.9365 57.9227C28.3846 57.9227 28.6347 58.152 28.6347 58.6001V59.75H28.468V59.4269C28.3533 59.6354 28.131 59.7639 27.8149 59.7639C27.4084 59.7639 27.1618 59.5555 27.1618 59.2463C27.1618 58.9718 27.3355 58.7391 27.8392 58.7391H28.461V58.5932C28.461 58.2562 28.2769 58.0755 27.9226 58.0755C27.6724 58.0755 27.4466 58.1693 27.2972 58.3048L27.2104 58.1798C27.391 58.02 27.6551 57.9227 27.9365 57.9227ZM27.8392 59.6215C28.1449 59.6215 28.3568 59.4756 28.461 59.215V58.8746H27.8427C27.4675 58.8746 27.3355 59.0309 27.3355 59.2393C27.3355 59.4756 27.5196 59.6215 27.8392 59.6215ZM29.3405 59.75V57.9366H29.5142V58.7634H30.7439V57.9366H30.9176V59.75H30.7439V58.9162H29.5142V59.75H29.3405ZM32.8802 57.9366V58.0929H32.1715V59.75H31.9978V58.0929H31.2891V57.9366H32.8802ZM33.2521 59.75V57.9366H33.4258V59.4825L34.7181 57.9366H34.8709V59.75H34.6972V58.2041L33.4049 59.75H33.2521ZM36.9576 59.75L36.235 58.9093H35.7938V59.75H35.6201V57.9366H35.7938V58.7599H36.235L36.9193 57.9366H37.1104L36.3739 58.8155L37.166 59.75H36.9576ZM38.2631 59.7639C37.7316 59.7639 37.346 59.3818 37.346 58.8433C37.346 58.3014 37.7316 57.9227 38.2631 57.9227C38.5514 57.9227 38.8016 58.0339 38.9509 58.2562L38.8224 58.35C38.6904 58.1659 38.4889 58.079 38.2631 58.079C37.8358 58.079 37.5231 58.3847 37.5231 58.8433C37.5231 59.3019 37.8358 59.6076 38.2631 59.6076C38.4889 59.6076 38.6904 59.5207 38.8224 59.3366L38.9509 59.4304C38.8016 59.6493 38.5514 59.7639 38.2631 59.7639Z" fill="#11151D"/>
</g>
<defs>
<clipPath id="clip0_1_9508">
<rect width="60" height="60" fill="white"/>
</clipPath>
<clipPath id="clip1_1_9508">
<rect width="57.6923" height="57.6923" fill="white" transform="translate(1.15381 -3.0769)"/>
</clipPath>
</defs>
</svg>
